<?xml version="1.0" encoding="iso-8859-1"?>
<!-- Generator: Adobe Illustrator 16.0.0, SVG Export Plug-In . SVG Version: 6.00 Build 0)  -->
<!DOCTYPE svg PUBLIC "-//W3C//DTD SVG 1.1//EN" "http://www.w3.org/Graphics/SVG/1.1/DTD/svg11.dtd">
<svg version="1.1" id="Capa_1" xmlns="http://www.w3.org/2000/svg" xmlns:xlink="http://www.w3.org/1999/xlink" x="0px" y="0px"
	 width="32.75px" height="32.75px" viewBox="0 0 32.75 32.75" style="enable-background:new 0 0 32.75 32.75;" xml:space="preserve"
	>
<g>
	<g>
		<path d="M29.375,1.25h-1.123c0.029-0.092,0.059-0.186,0.059-0.288c0-0.53-0.432-0.962-0.963-0.962s-0.961,0.432-0.961,0.962
			c0,0.103,0.028,0.196,0.059,0.288h-3.68c0.029-0.092,0.059-0.186,0.059-0.288c0-0.53-0.432-0.962-0.963-0.962
			C21.332,0,20.9,0.432,20.9,0.962c0,0.103,0.029,0.196,0.06,0.288h-3.681c0.029-0.092,0.058-0.186,0.058-0.288
			c0-0.53-0.43-0.962-0.961-0.962c-0.531,0-0.961,0.432-0.961,0.962c0,0.103,0.028,0.196,0.058,0.288h-3.681
			c0.029-0.092,0.059-0.186,0.059-0.288C11.851,0.432,11.42,0,10.89,0c-0.531,0-0.962,0.432-0.962,0.962
			c0,0.103,0.028,0.196,0.058,0.288h-3.68c0.03-0.092,0.059-0.186,0.059-0.288C6.365,0.432,5.935,0,5.404,0
			C4.873,0,4.442,0.432,4.442,0.962c0,0.103,0.028,0.196,0.058,0.288H3.375c-1.518,0-2.75,1.234-2.75,2.75v26
			c0,1.518,1.232,2.75,2.75,2.75H26.27l5.855-5.855V4C32.125,2.484,30.893,1.25,29.375,1.25z M30.625,26.273l-0.311,0.311h-2.355
			c-1.102,0-2,0.9-2,2v2.355l-0.311,0.311H3.375c-0.689,0-1.25-0.561-1.25-1.25V5h28.5V26.273z"/>
		<path d="M15.115,25.666h3.359v-14.16h-2.359c-0.04,0.227-0.117,0.47-0.23,0.73c-0.113,0.26-0.29,0.5-0.53,0.72
			c-0.24,0.22-0.563,0.403-0.97,0.55c-0.407,0.147-0.93,0.22-1.57,0.22h-0.42v2.12h2.72V25.666z"/>
	</g>
</g>
<g>
</g>
<g>
</g>
<g>
</g>
<g>
</g>
<g>
</g>
<g>
</g>
<g>
</g>
<g>
</g>
<g>
</g>
<g>
</g>
<g>
</g>
<g>
</g>
<g>
</g>
<g>
</g>
<g>
</g>
</svg>
