<?xml version="1.0" encoding="UTF-8" standalone="no"?>
<!DOCTYPE svg PUBLIC "-//W3C//DTD SVG 1.1//EN" "http://www.w3.org/Graphics/SVG/1.1/DTD/svg11.dtd">
<svg width="100%" height="100%" viewBox="0 0 48 47" version="1.1" xmlns="http://www.w3.org/2000/svg" xmlns:xlink="http://www.w3.org/1999/xlink" xml:space="preserve" xmlns:serif="http://www.serif.com/" style="fill-rule:evenodd;clip-rule:evenodd;stroke-linejoin:round;stroke-miterlimit:2;">
    <g transform="matrix(0.891941,0,0,0.965949,0.0727513,0.0320799)">
        <path d="M18.959,1.382C18.959,1.139 18.746,0.942 18.483,0.942L1.15,0.942C0.887,0.942 0.673,1.139 0.673,1.382L0.673,31.108C0.673,31.351 0.887,31.548 1.15,31.548L18.483,31.548C18.746,31.548 18.959,31.351 18.959,31.108L18.959,1.382Z"/>
    </g>
    <g transform="matrix(0.872708,0,0,0.920421,-0.155436,3.68787)">
        <path d="M36.121,33.551C36.121,33.011 35.658,32.573 35.089,32.573L2.151,32.573C1.582,32.573 1.12,33.011 1.12,33.551L1.12,45.364C1.12,45.904 1.582,46.342 2.151,46.342L35.089,46.342C35.658,46.342 36.121,45.904 36.121,45.364L36.121,33.551Z"/>
    </g>
    <g transform="matrix(0.951226,0,0,0.94784,2.25337,2.41938)">
        <path d="M46.2,33.973C46.2,33.361 45.705,32.864 45.095,32.864L34.841,32.864C34.231,32.864 33.736,33.361 33.736,33.973L33.736,45.275C33.736,45.887 34.231,46.384 34.841,46.384L45.095,46.384C45.705,46.384 46.2,45.887 46.2,45.275L46.2,33.973Z"/>
    </g>
    <g transform="matrix(0.936064,0,0,0.836544,2.96723,4.08216)">
        <path d="M46.409,20.421C46.409,19.966 46.079,19.597 45.672,19.597L20.731,19.597C20.324,19.597 19.994,19.966 19.994,20.421L19.994,30.843C19.994,31.297 20.324,31.667 20.731,31.667L45.672,31.667C46.079,31.667 46.409,31.297 46.409,30.843L46.409,20.421Z"/>
    </g>
    <g transform="matrix(0.929342,0,0,0.981514,3.28769,-0.761508)">
        <path d="M46.53,3.242C46.53,2.53 45.919,1.952 45.167,1.952L21.101,1.952C20.349,1.952 19.738,2.53 19.738,3.242L19.738,17.262C19.738,17.974 20.349,18.552 21.101,18.552L45.167,18.552C45.919,18.552 46.53,17.974 46.53,17.262L46.53,3.242Z"/>
    </g>
</svg>
