<?xml version="1.0" encoding="UTF-8" standalone="no"?>
<!DOCTYPE svg PUBLIC "-//W3C//DTD SVG 1.1//EN" "http://www.w3.org/Graphics/SVG/1.1/DTD/svg11.dtd">
<svg width="100%" height="100%" viewBox="0 0 512 512" version="1.1" xmlns="http://www.w3.org/2000/svg" xmlns:xlink="http://www.w3.org/1999/xlink" xml:space="preserve" xmlns:serif="http://www.serif.com/" style="fill-rule:evenodd;clip-rule:evenodd;stroke-linejoin:round;stroke-miterlimit:2;">
    <g id="XMLID_1_">
        <g transform="matrix(1.34885,0,0,1.34885,-178.61,-178.61)">
            <path d="M458.667,512L256,512C261.973,512 266.667,507.307 266.667,501.333L266.667,490.667L458.667,490.667C476.373,490.667 490.667,476.373 490.667,458.667L490.667,266.667L501.333,266.667C507.307,266.667 512,261.973 512,256L512,458.667C512,488.107 488.107,512 458.667,512Z" style="fill-rule:nonzero;"/>
        </g>
        <g transform="matrix(1.35106,0,0,1.35106,-179.741,0)">
            <path d="M512,53.333L512,256C512,250.027 507.307,245.333 501.333,245.333L490.667,245.333L490.667,53.333C490.667,35.627 476.373,21.333 458.667,21.333L266.667,21.333L266.667,10.667C266.667,4.693 261.973,0 256,0L458.667,0C488.107,0 512,23.893 512,53.333Z" style="fill-rule:nonzero;"/>
        </g>
        <g transform="matrix(1.54767,0,0,1.54767,-210.307,-192.782)">
            <path d="M426.667,341.333C432.64,341.333 437.333,346.027 437.333,352C437.333,357.973 432.64,362.667 426.667,362.667L341.333,362.667C335.36,362.667 330.667,357.973 330.667,352C330.667,346.027 335.36,341.333 341.333,341.333L426.667,341.333Z" style="fill-rule:nonzero;"/>
        </g>
        <g transform="matrix(1.09437,1.09437,-1.09437,1.09437,96.3178,-416.615)">
            <path d="M426.667,341.333C432.64,341.333 437.333,346.027 437.333,352C437.333,357.973 432.64,362.667 426.667,362.667L341.333,362.667C335.36,362.667 330.667,357.973 330.667,352C330.667,346.027 335.36,341.333 341.333,341.333L426.667,341.333Z" style="fill-rule:nonzero;"/>
        </g>
        <g transform="matrix(1.54767,0,0,1.54767,-211.428,-405.241)">
            <path d="M426.667,341.333C432.64,341.333 437.333,346.027 437.333,352C437.333,357.973 432.64,362.667 426.667,362.667L341.333,362.667C335.36,362.667 330.667,357.973 330.667,352C330.667,346.027 335.36,341.333 341.333,341.333L426.667,341.333Z" style="fill-rule:nonzero;"/>
        </g>
        <g transform="matrix(9.47678e-17,1.54767,-1.54767,9.47678e-17,673.854,-455.258)">
            <path d="M426.667,341.333C432.64,341.333 437.333,346.027 437.333,352C437.333,357.973 432.64,362.667 426.667,362.667L341.333,362.667C335.36,362.667 330.667,357.973 330.667,352C330.667,346.027 335.36,341.333 341.333,341.333L426.667,341.333Z" style="fill-rule:nonzero;"/>
        </g>
        <g transform="matrix(-1.10404,1.08461,-1.08461,-1.10404,935.314,362.095)">
            <path d="M426.667,341.333C432.64,341.333 437.333,346.027 437.333,352C437.333,357.973 432.64,362.667 426.667,362.667L341.333,362.667C335.36,362.667 330.667,357.973 330.667,352C330.667,346.027 335.36,341.333 341.333,341.333L426.667,341.333Z" style="fill-rule:nonzero;"/>
        </g>
        <g transform="matrix(1.54767,0,0,1.54767,-465.442,-405.332)">
            <path d="M426.667,341.333C432.64,341.333 437.333,346.027 437.333,352C437.333,357.973 432.64,362.667 426.667,362.667L341.333,362.667C335.36,362.667 330.667,357.973 330.667,352C330.667,346.027 335.36,341.333 341.333,341.333L426.667,341.333Z" style="fill-rule:nonzero;"/>
        </g>
        <g transform="matrix(1.54767,0,0,1.54767,-210.307,-123.024)">
            <path d="M426.667,341.333C432.64,341.333 437.333,346.027 437.333,352C437.333,357.973 432.64,362.667 426.667,362.667L341.333,362.667C335.36,362.667 330.667,357.973 330.667,352C330.667,346.027 335.36,341.333 341.333,341.333L426.667,341.333Z" style="fill-rule:nonzero;"/>
        </g>
        <g transform="matrix(1.86711,0,0,2.26956,-221.616,-604.017)">
            <rect x="245.333" y="266.667" width="21.333" height="224" style="fill-rule:nonzero;"/>
        </g>
        <g transform="matrix(2.28246,0,0,1.49073,-48.8294,-120.392)">
            <rect x="21.333" y="245.333" width="224" height="21.333" style="fill-rule:nonzero;"/>
        </g>
        <g transform="matrix(1.35585,0,0,1.35585,0,0)">
            <path d="M0,53.333C0,23.893 23.893,0 53.333,0L256,0C250.027,0 245.333,4.693 245.333,10.667L245.333,21.333L53.333,21.333C35.627,21.333 21.333,35.627 21.333,53.333L21.333,245.333L10.667,245.333C4.693,245.333 0,250.027 0,256L0,53.333Z" style="fill-rule:nonzero;"/>
        </g>
        <g transform="matrix(1.39906,0,0,1.39906,0,-204.318)">
            <path d="M21.333,458.667C21.333,476.373 35.627,490.667 53.333,490.667L245.333,490.667L245.333,501.333C245.333,507.307 250.027,512 256,512L53.333,512C23.893,512 0,488.107 0,458.667L0,256C0,261.973 4.693,266.667 10.667,266.667L21.333,266.667L21.333,458.667Z" style="fill-rule:nonzero;"/>
        </g>
    </g>
</svg>
