<svg height="511pt" viewBox="-15 1 511 511.99975" width="511pt" xmlns="http://www.w3.org/2000/svg"><path d="m390.488281 104.417969c0 15.125 12.304688 27.429687 27.429688 27.429687s27.433593-12.304687 27.433593-27.429687-12.308593-27.429688-27.433593-27.429688-27.429688 12.304688-27.429688 27.429688zm39.859375 0c0 6.855469-5.574218 12.429687-12.429687 12.429687s-12.433594-5.574218-12.433594-12.429687 5.578125-12.429688 12.433594-12.429688 12.429687 5.574219 12.429687 12.429688zm0 0"/><path d="m37.183594 186.554688-3.449219.835937c-4.027344.972656-6.503906 5.023437-5.53125 9.046875.828125 3.4375 3.898437 5.746094 7.28125 5.746094.585937 0 1.175781-.070313 1.765625-.210938l3.453125-.835937c4.027344-.96875 6.503906-5.019531 5.53125-9.046875s-5.023437-6.5-9.050781-5.535156zm0 0"/><path d="m473.316406 122.628906c4.144532 0 7.5-3.355468 7.5-7.5v-66.671875c0-2.378906-1.128906-4.613281-3.039062-6.03125l-55.398438-40.953125c-2.652344-1.964844-6.269531-1.964844-8.917968 0l-55.398438 40.953125c-1.914062 1.417969-3.042969 3.652344-3.042969 6.03125v17.355469l-246.574219 71.054688c-3.980468 1.144531-6.277343 5.300781-5.128906 9.28125 1.144532 3.980468 5.304688 6.273437 9.28125 5.132812l242.421875-69.859375v41.886719c-91.851562 26.46875-269.167969 77.5625-313.808593 90.429687-10.660157 3.070313-21.835938-3.105469-24.910157-13.765625-1.484375-5.167968-.875-10.601562 1.726563-15.308594 2.597656-4.703124 6.875-8.113281 12.039062-9.601562l57.285156-16.507812c3.980469-1.148438 6.277344-5.304688 5.128907-9.285157-1.144531-3.980469-5.304688-6.273437-9.28125-5.128906l-57.285157 16.507813c-9.015624 2.597656-16.476562 8.550781-21.015624 16.761718-4.539063 8.210938-5.605469 17.699219-3.007813 26.714844 4.429687 15.371094 18.507813 25.402344 33.765625 25.398438.042969 0 .089844-.003907.132812-.003907v274.980469c0 4.140625 3.359376 7.5 7.5 7.5 4.140626 0 7.5-3.359375 7.5-7.5v-277.914062l142.847657-41.164063-38.015625 311.578125h-35.585938c-4.140625 0-7.5 3.355469-7.5 7.5s3.359375 7.5 7.5 7.5h278.855469c4.144531 0 7.5-3.355469 7.5-7.5s-3.355469-7.5-7.5-7.5h-35.585937l-42.488282-348.222656 34.203125-9.859375v21.457031c0 2.378906 1.128907 4.617188 3.042969 6.03125l52.355469 38.710938v52.347656h-12.429688c-4.144531 0-7.5 3.359375-7.5 7.5v73.410156c0 4.140625 3.355469 7.5 7.5 7.5h39.859375c4.144532 0 7.5-3.359375 7.5-7.5v-73.410156c0-4.140625-3.355468-7.5-7.5-7.5h-12.429687v-52.347656l52.359375-38.710938c1.910156-1.414062 3.039062-3.652344 3.039062-6.03125v-20c0-4.140625-3.355468-7.5-7.5-7.5-4.144531 0-7.5 3.359375-7.5 7.5v16.21875l-47.898437 35.414062-47.898438-35.414062v-104.351562l47.898438-35.414063 47.898437 35.414063v62.886718c0 4.144532 3.359375 7.5 7.5 7.5zm-263.445312 131.828125 49.589844-49.941406 49.59375 49.941406zm95.992187 15-46.402343 37.511719-46.398438-37.511719zm-108.203125 6.839844 49.871094 40.316406-60.785156 49.140625zm.605469 99.429687 61.195313-49.472656 61.199218 49.472656zm119.089844 15-57.894531 39.089844-57.894532-39.089844zm-134.339844 5.574219 63.042969 42.566407-74.363282 50.210937zm76.445313 51.617188 72.691406 49.082031h-145.382813zm13.402343-9.050781 63.042969-42.5625 11.320312 92.773437zm-1.472656-122.253907 49.875-40.316406 10.914063 89.457031zm-1.359375-122.742187 36.667969-36.929688 10.277343 84.207032zm12.757812-34.136719-23.328124 23.492187-12.949219-13.039062zm-52.710937 15.1875 18.816406 18.949219-46.945312 47.277344 7.351562-60.238282zm200.269531 155.953125h-24.859375v-58.410156h24.859375zm0 0"/></svg>