<svg xmlns="http://www.w3.org/2000/svg" fill="currentColor" viewBox="0 0 24 24" stroke="currentColor">
    <g id="file" transform="matrix(0.0450556,0,0,0.0450556,1.58533,1.14454)">
        <path d="M302.614,0L108.967,0C80.676,0 57.651,23.026 57.651,51.315L57.651,430.824C57.651,459.113 80.676,482.14 108.967,482.14L373.188,482.14C401.462,482.14 424.489,459.114 424.489,430.824L424.489,121.449C424.489,121.449 425.012,79.837 425.012,58.378C425.012,29.491 406.567,-0.181 365.623,-0.181C339.452,-0.181 302.614,0 302.614,0ZM373.188,450.698L108.967,450.698C98.013,450.698 89.092,441.793 89.092,430.824L89.092,51.315C89.092,40.362 98.013,31.457 108.967,31.457L133.695,31.435L133.695,54.167C133.695,58.604 137.289,62.198 141.725,62.198L160.996,62.198L160.803,95.814L141.725,95.814C137.289,95.814 133.695,99.408 133.695,103.844L133.695,121.402C133.695,125.839 137.289,129.43 141.725,129.43L161.307,129.43L161.23,163.047L141.725,163.047C137.289,163.047 133.695,166.641 133.695,171.077L133.695,188.635C133.695,193.072 137.289,196.663 141.725,196.663L161.312,196.663L161.096,222.251C161.096,226.688 162.771,230.28 167.208,230.28L224.356,230.28C228.784,230.28 232.378,226.687 232.378,222.251L232.378,204.694C232.378,200.258 228.784,196.663 224.356,196.663L207.079,196.663L207.189,163.047L224.357,163.047C228.785,163.047 232.379,159.454 232.379,155.018L232.379,137.461C232.379,133.025 228.785,129.43 224.357,129.43L207.449,129.43L207.251,95.814L224.357,95.814C228.785,95.814 232.379,92.221 232.379,87.785L232.379,70.229C232.379,65.792 228.785,62.199 224.357,62.199L207.055,62.199L207.014,31.37C207.014,31.37 329.754,31.191 365.455,31.191C377.877,31.191 392.507,44.4 392.507,56.822C392.507,122.236 393.047,430.826 393.047,430.826C393.046,441.793 384.143,450.698 373.188,450.698Z" style="fill-rule:nonzero;"/>
    </g>
    <g transform="matrix(0.0656816,0,0,0.0656816,-2.08492,-4.59269)">
        <g id="zip">
            <path d="M202.196,301.778L202.196,260.691C202.196,256.262 198.604,252.67 194.175,252.67L171.89,252.67C167.461,252.67 163.868,256.263 163.868,260.691L163.868,301.77L151.473,338.185C148.005,348.334 149.669,359.61 155.918,368.349C162.167,377.072 172.3,382.282 183.032,382.282C193.766,382.282 203.9,377.072 210.149,368.349C216.398,359.61 218.06,348.334 214.593,338.193L202.196,301.778ZM197.019,358.957C190.589,367.956 175.475,367.956 169.044,358.957C165.821,354.449 164.963,348.634 166.744,343.394L170.904,331.18L195.159,331.18L199.32,343.402C201.102,348.634 200.241,354.449 197.019,358.957Z" style="fill-rule:nonzero;"/>
        </g>
    </g>
</svg>