<?xml version="1.0" encoding="UTF-8" standalone="no"?>
<!DOCTYPE svg PUBLIC "-//W3C//DTD SVG 1.1//EN" "http://www.w3.org/Graphics/SVG/1.1/DTD/svg11.dtd">
<svg width="100%" height="100%" viewBox="0 0 1452 654" version="1.1" xmlns="http://www.w3.org/2000/svg" xmlns:xlink="http://www.w3.org/1999/xlink" xml:space="preserve" xmlns:serif="http://www.serif.com/" style="fill-rule:evenodd;clip-rule:evenodd;stroke-linejoin:round;stroke-miterlimit:2;">
    <path d="M101.96,499.47C101.137,499.47 100.46,498.793 100.46,497.97C100.46,497.147 101.137,496.47 101.96,496.47C112.225,496.459 120.669,488.015 120.68,477.75C120.68,476.927 121.357,476.25 122.18,476.25C123.003,476.25 123.68,476.927 123.68,477.75C123.664,489.659 113.869,499.454 101.96,499.47ZM44.25,275.45L23.71,275.45C22.887,275.45 22.21,274.773 22.21,273.95C22.21,273.127 22.887,272.45 23.71,272.45L44.25,272.45C53.725,272.439 61.519,264.645 61.53,255.17L61.53,190.93C61.541,179.809 70.689,170.661 81.81,170.65L107.44,170.65C116.915,170.639 124.709,162.845 124.72,153.37L124.72,3.16C124.72,2.337 125.397,1.66 126.22,1.66C127.043,1.66 127.72,2.337 127.72,3.16L127.72,153.39C127.709,164.511 118.561,173.659 107.44,173.67L81.8,173.67C72.325,173.681 64.531,181.475 64.52,190.95L64.52,255.19C64.498,266.3 55.36,275.434 44.25,275.45ZM223.65,92.26L167.37,92.26C166.547,92.26 165.87,91.583 165.87,90.76C165.87,89.937 166.547,89.26 167.37,89.26L223.65,89.26C224.473,89.26 225.15,89.937 225.15,90.76C225.15,91.583 224.473,92.26 223.65,92.26Z" style="fill:rgb(160,160,160);fill-rule:nonzero;"/>
    <path d="M98.74,112.56L54.61,112.56C53.787,112.56 53.11,111.883 53.11,111.06C53.11,110.237 53.787,109.56 54.61,109.56L98.74,109.56C99.563,109.56 100.24,110.237 100.24,111.06C100.24,111.883 99.563,112.56 98.74,112.56ZM154.55,112.56L141.8,112.56C140.977,112.56 140.3,111.883 140.3,111.06C140.3,110.237 140.977,109.56 141.8,109.56L154.55,109.56C155.373,109.56 156.05,110.237 156.05,111.06C156.05,111.883 155.373,112.56 154.55,112.56ZM51.26,51.43L8.07,51.43C7.247,51.43 6.57,50.753 6.57,49.93C6.57,49.107 7.247,48.43 8.07,48.43L51.26,48.43C52.083,48.43 52.76,49.107 52.76,49.93C52.76,50.753 52.083,51.43 51.26,51.43ZM89.55,51.43L67.37,51.43C66.547,51.43 65.87,50.753 65.87,49.93C65.87,49.107 66.547,48.43 67.37,48.43L89.55,48.43C90.373,48.43 91.05,49.107 91.05,49.93C91.05,50.753 90.373,51.43 89.55,51.43ZM180.69,51.43L152.81,51.43C151.987,51.43 151.31,50.753 151.31,49.93C151.31,49.107 151.987,48.43 152.81,48.43L180.69,48.43C181.513,48.43 182.19,49.107 182.19,49.93C182.19,50.753 181.513,51.43 180.69,51.43ZM218.48,51.43L198.97,51.43C198.147,51.43 197.47,50.753 197.47,49.93C197.47,49.107 198.147,48.43 198.97,48.43L218.48,48.43C219.303,48.43 219.98,49.107 219.98,49.93C219.98,50.753 219.303,51.43 218.48,51.43ZM310.34,51.43L296.07,51.43C295.247,51.43 294.57,50.753 294.57,49.93C294.57,49.107 295.247,48.43 296.07,48.43L310.36,48.43C311.179,48.435 311.85,49.111 311.85,49.93C311.85,50.753 311.173,51.43 310.35,51.43L310.34,51.43ZM361.07,51.43L327.39,51.43C326.567,51.43 325.89,50.753 325.89,49.93C325.89,49.107 326.567,48.43 327.39,48.43L361.07,48.43C361.893,48.43 362.57,49.107 362.57,49.93C362.57,50.753 361.893,51.43 361.07,51.43ZM77.12,71.73L61.61,71.73C60.787,71.73 60.11,71.053 60.11,70.23C60.11,69.407 60.787,68.73 61.61,68.73L77.12,68.73C77.943,68.73 78.62,69.407 78.62,70.23C78.62,71.053 77.943,71.73 77.12,71.73ZM110.45,153.39L91.95,153.39C91.127,153.39 90.45,152.713 90.45,151.89C90.45,151.067 91.127,150.39 91.95,150.39L110.45,150.39C111.273,150.39 111.95,151.067 111.95,151.89C111.95,152.713 111.273,153.39 110.45,153.39ZM88.38,173.69L35.69,173.69C34.867,173.69 34.19,173.013 34.19,172.19C34.19,171.367 34.867,170.69 35.69,170.69L88.38,170.69C89.203,170.69 89.88,171.367 89.88,172.19C89.88,173.013 89.203,173.69 88.38,173.69ZM106.26,132.86L91.07,132.86C90.247,132.86 89.57,132.183 89.57,131.36C89.57,130.537 90.247,129.86 91.07,129.86L106.26,129.86C107.083,129.86 107.76,130.537 107.76,131.36C107.76,132.183 107.083,132.86 106.26,132.86ZM45.64,234.85L7.07,234.85C6.247,234.85 5.57,234.173 5.57,233.35C5.57,232.527 6.247,231.85 7.07,231.85L45.67,231.85C46.487,231.858 47.155,232.533 47.155,233.35C47.155,234.173 46.478,234.85 45.655,234.85L45.64,234.85ZM101.67,234.85L79.67,234.85C78.847,234.85 78.17,234.173 78.17,233.35C78.17,232.527 78.847,231.85 79.67,231.85L101.67,231.85C102.493,231.85 103.17,232.527 103.17,233.35C103.17,234.173 102.493,234.85 101.67,234.85ZM195.15,234.85L178.32,234.85C177.497,234.85 176.82,234.173 176.82,233.35C176.82,232.527 177.497,231.85 178.32,231.85L195.15,231.85C195.973,231.85 196.65,232.527 196.65,233.35C196.65,234.173 195.973,234.85 195.15,234.85ZM250.71,234.85L211.88,234.85C211.057,234.85 210.38,234.173 210.38,233.35C210.38,232.527 211.057,231.85 211.88,231.85L250.705,231.85C251.528,231.85 252.205,232.527 252.205,233.35C252.205,234.171 251.531,234.847 250.71,234.85ZM165.67,255.15L142.35,255.15C141.527,255.15 140.85,254.473 140.85,253.65C140.85,252.827 141.527,252.15 142.35,252.15L165.67,252.15C166.493,252.15 167.17,252.827 167.17,253.65C167.17,254.473 166.493,255.15 165.67,255.15ZM127.91,194.02L112.18,194.02C111.357,194.02 110.68,193.343 110.68,192.52C110.68,191.697 111.357,191.02 112.18,191.02L127.91,191.02C128.733,191.02 129.41,191.697 129.41,192.52C129.41,193.343 128.733,194.02 127.91,194.02ZM191.63,194.02L146.3,194.02C145.477,194.02 144.8,193.343 144.8,192.52C144.8,191.697 145.477,191.02 146.3,191.02L191.63,191.02C192.453,191.02 193.13,191.697 193.13,192.52C193.13,193.343 192.453,194.02 191.63,194.02ZM229.76,194.02L206.3,194.02C205.477,194.02 204.8,193.343 204.8,192.52C204.8,191.697 205.477,191.02 206.3,191.02L229.76,191.02C230.583,191.02 231.26,191.697 231.26,192.52C231.26,193.343 230.583,194.02 229.76,194.02ZM138.16,214.32L79.62,214.32C78.797,214.32 78.12,213.643 78.12,212.82C78.12,211.997 78.797,211.32 79.62,211.32L138.16,211.32C138.983,211.32 139.66,211.997 139.66,212.82C139.66,213.643 138.983,214.32 138.16,214.32ZM210.29,214.32L167.44,214.32C166.617,214.32 165.94,213.643 165.94,212.82C165.94,211.997 166.617,211.32 167.44,211.32L210.29,211.32C211.113,211.32 211.79,211.997 211.79,212.82C211.79,213.643 211.113,214.32 210.29,214.32ZM281.78,214.32L225.4,214.32C224.577,214.32 223.9,213.643 223.9,212.82C223.9,211.997 224.577,211.32 225.4,211.32L281.775,211.32C282.598,211.32 283.275,211.997 283.275,212.82C283.275,213.641 282.601,214.317 281.78,214.32ZM35.86,214.32L14.58,214.32C13.757,214.32 13.08,213.643 13.08,212.82C13.08,211.997 13.757,211.32 14.58,211.32L35.86,211.32C36.683,211.32 37.36,211.997 37.36,212.82C37.36,213.643 36.683,214.32 35.86,214.32ZM74.54,295.98L38.37,295.98C37.547,295.98 36.87,295.303 36.87,294.48C36.87,293.657 37.547,292.98 38.37,292.98L74.54,292.98C75.363,292.98 76.04,293.657 76.04,294.48C76.04,295.303 75.363,295.98 74.54,295.98ZM121.07,295.98L90.3,295.98C89.477,295.98 88.8,295.303 88.8,294.48C88.8,293.657 89.477,292.98 90.3,292.98L121.07,292.98C121.893,292.98 122.57,293.657 122.57,294.48C122.57,295.303 121.893,295.98 121.07,295.98ZM218.74,295.98L183.66,295.98C182.837,295.98 182.16,295.303 182.16,294.48C182.16,293.657 182.837,292.98 183.66,292.98L218.74,292.98C219.563,292.98 220.24,293.657 220.24,294.48C220.24,295.303 219.563,295.98 218.74,295.98ZM94.68,275.45L70.85,275.45C70.027,275.45 69.35,274.773 69.35,273.95C69.35,273.127 70.027,272.45 70.85,272.45L94.68,272.45C95.503,272.45 96.18,273.127 96.18,273.95C96.18,274.773 95.503,275.45 94.68,275.45ZM117.32,275.45L106.32,275.45C105.497,275.45 104.82,274.773 104.82,273.95C104.82,273.127 105.497,272.45 106.32,272.45L117.32,272.45C118.143,272.45 118.82,273.127 118.82,273.95C118.82,274.773 118.143,275.45 117.32,275.45ZM130.51,377.41L103.71,377.41C102.887,377.41 102.21,376.733 102.21,375.91C102.21,375.087 102.887,374.41 103.71,374.41L130.52,374.41C131.341,374.413 132.015,375.089 132.015,375.91C132.015,376.733 131.338,377.41 130.515,377.41L130.51,377.41ZM161.82,397.71L152.96,397.71C152.137,397.71 151.46,397.033 151.46,396.21C151.46,395.387 152.137,394.71 152.96,394.71L161.82,394.71C162.643,394.71 163.32,395.387 163.32,396.21C163.32,397.033 162.643,397.71 161.82,397.71ZM53.64,336.58L8.07,336.58C7.247,336.58 6.57,335.903 6.57,335.08C6.57,334.257 7.247,333.58 8.07,333.58L53.67,333.58C54.487,333.588 55.155,334.263 55.155,335.08C55.155,335.903 54.478,336.58 53.655,336.58L53.64,336.58ZM184.07,336.58L166.87,336.58C166.047,336.58 165.37,335.903 165.37,335.08C165.37,334.257 166.047,333.58 166.87,333.58L184.07,333.58C184.893,333.58 185.57,334.257 185.57,335.08C185.57,335.903 184.893,336.58 184.07,336.58ZM78.46,356.88L58.07,356.88C57.247,356.88 56.57,356.203 56.57,355.38C56.57,354.557 57.247,353.88 58.07,353.88L78.46,353.88C79.283,353.88 79.96,354.557 79.96,355.38C79.96,356.203 79.283,356.88 78.46,356.88ZM130.51,356.88L92.65,356.88C91.827,356.88 91.15,356.203 91.15,355.38C91.15,354.557 91.827,353.88 92.65,353.88L130.51,353.88C131.333,353.88 132.01,354.557 132.01,355.38C132.01,356.203 131.333,356.88 130.51,356.88ZM181.73,356.88L157.46,356.88C156.637,356.88 155.96,356.203 155.96,355.38C155.96,354.557 156.637,353.88 157.46,353.88L181.73,353.88C182.553,353.88 183.23,354.557 183.23,355.38C183.23,356.203 182.553,356.88 181.73,356.88ZM200.26,356.88L191.26,356.88C190.437,356.88 189.76,356.203 189.76,355.38C189.76,354.557 190.437,353.88 191.26,353.88L200.26,353.88C201.083,353.88 201.76,354.557 201.76,355.38C201.76,356.203 201.083,356.88 200.26,356.88ZM119.81,438.54L79.58,438.54C78.757,438.54 78.08,437.863 78.08,437.04C78.08,436.217 78.757,435.54 79.58,435.54L119.81,435.54C120.633,435.54 121.31,436.217 121.31,437.04C121.31,437.863 120.633,438.54 119.81,438.54ZM62.41,438.43L24.41,438.43C23.587,438.43 22.91,437.753 22.91,436.93C22.91,436.107 23.587,435.43 24.41,435.43L62.41,435.43C63.233,435.43 63.91,436.107 63.91,436.93C63.91,437.753 63.233,438.43 62.41,438.43ZM70.34,458.84L58.7,458.84C57.877,458.84 57.2,458.163 57.2,457.34C57.2,456.517 57.877,455.84 58.7,455.84L70.34,455.84C71.163,455.84 71.84,456.517 71.84,457.34C71.84,458.163 71.163,458.84 70.34,458.84ZM206.3,458.84L183.24,458.84C182.417,458.84 181.74,458.163 181.74,457.34C181.74,456.517 182.417,455.84 183.24,455.84L206.31,455.84C207.131,455.843 207.805,456.519 207.805,457.34C207.805,458.163 207.128,458.84 206.305,458.84L206.3,458.84ZM80.98,418.01L64.73,418.01C63.907,418.01 63.23,417.333 63.23,416.51C63.23,415.687 63.907,415.01 64.73,415.01L80.98,415.01C81.803,415.01 82.48,415.687 82.48,416.51C82.48,417.333 81.803,418.01 80.98,418.01ZM104.64,418.01L95.88,418.01C95.057,418.01 94.38,417.333 94.38,416.51C94.38,415.687 95.057,415.01 95.88,415.01L104.64,415.01C105.463,415.01 106.14,415.687 106.14,416.51C106.14,417.333 105.463,418.01 104.64,418.01ZM197.62,653.43C196.797,653.43 196.12,652.753 196.12,651.93L196.12,638.93C196.087,629.475 188.305,621.711 178.85,621.7L97.45,621.78L97.35,621.78C86.262,621.78 77.125,612.687 77.07,601.6L76.88,544.6L76.88,538.88C76.886,528.547 68.403,520.033 58.07,520L27.3,520C26.477,520 25.8,519.323 25.8,518.5C25.8,517.677 26.477,517 27.3,517L58.07,517C70.05,517.016 79.904,526.87 79.92,538.85L79.92,544.56L80.11,601.56C80.132,611.021 87.919,618.795 97.38,618.8L178.78,618.72C189.894,618.725 199.043,627.856 199.07,638.97L199.07,651.97C199.07,652.793 198.393,653.47 197.57,653.47L197.62,653.43ZM112.87,520L84.14,520C83.317,520 82.64,519.323 82.64,518.5C82.64,517.677 83.317,517 84.14,517L112.87,517C113.693,517 114.37,517.677 114.37,518.5C114.37,519.323 113.693,520 112.87,520ZM191.22,520L128.22,520C127.397,520 126.72,519.323 126.72,518.5C126.72,517.677 127.397,517 128.22,517L191.22,517C192.043,517 192.72,517.677 192.72,518.5C192.72,519.323 192.043,520 191.22,520Z" style="fill:rgb(160,160,160);fill-rule:nonzero;"/>
    <path d="M64.73,540.3L51.26,540.3C50.437,540.3 49.76,539.623 49.76,538.8C49.76,537.977 50.437,537.3 51.26,537.3L64.73,537.3C65.553,537.3 66.23,537.977 66.23,538.8C66.23,539.623 65.553,540.3 64.73,540.3ZM150.62,479.17L110.44,479.17C109.617,479.17 108.94,478.493 108.94,477.67C108.94,476.847 109.617,476.17 110.44,476.17L150.62,476.17C151.443,476.17 152.12,476.847 152.12,477.67C152.12,478.493 151.443,479.17 150.62,479.17ZM40.97,499.47L8.07,499.47C7.247,499.47 6.57,498.793 6.57,497.97C6.57,497.147 7.247,496.47 8.07,496.47L40.97,496.47C41.793,496.47 42.47,497.147 42.47,497.97C42.47,498.793 41.793,499.47 40.97,499.47ZM133.07,499.47L98.34,499.47C97.517,499.47 96.84,498.793 96.84,497.97C96.84,497.147 97.517,496.47 98.34,496.47L133.07,496.47C133.893,496.47 134.57,497.147 134.57,497.97C134.57,498.793 133.893,499.47 133.07,499.47ZM153.87,499.47L147.19,499.47C146.367,499.47 145.69,498.793 145.69,497.97C145.69,497.147 146.367,496.47 147.19,496.47L153.87,496.47C154.693,496.47 155.37,497.147 155.37,497.97C155.37,498.793 154.693,499.47 153.87,499.47ZM158.85,581.09L126.22,581.09C125.397,581.09 124.72,580.413 124.72,579.59C124.72,578.767 125.397,578.09 126.22,578.09L158.85,578.09C159.673,578.09 160.35,578.767 160.35,579.59C160.35,580.413 159.673,581.09 158.85,581.09ZM184.94,581.09L171.4,581.09C170.577,581.09 169.9,580.413 169.9,579.59C169.9,578.767 170.577,578.09 171.4,578.09L184.94,578.09C185.763,578.09 186.44,578.767 186.44,579.59C186.44,580.413 185.763,581.09 184.94,581.09ZM141.9,601.43L97.84,601.43C97.017,601.43 96.34,600.753 96.34,599.93C96.34,599.107 97.017,598.43 97.84,598.43L141.9,598.43C142.723,598.43 143.4,599.107 143.4,599.93C143.4,600.753 142.723,601.43 141.9,601.43ZM34.62,560.6L1.5,560.6C0.677,560.6 0,559.923 0,559.1C0,558.277 0.677,557.6 1.5,557.6L34.62,557.6C35.443,557.6 36.12,558.277 36.12,559.1C36.12,559.923 35.443,560.6 34.62,560.6ZM131.07,560.6L111.46,560.6C110.637,560.6 109.96,559.923 109.96,559.1C109.96,558.277 110.637,557.6 111.46,557.6L131.07,557.6C131.893,557.6 132.57,558.277 132.57,559.1C132.57,559.923 131.893,560.6 131.07,560.6ZM166.89,560.6L144.78,560.6C143.957,560.6 143.28,559.923 143.28,559.1C143.28,558.277 143.957,557.6 144.78,557.6L166.89,557.6C167.713,557.6 168.39,558.277 168.39,559.1C168.39,559.923 167.713,560.6 166.89,560.6ZM368.85,601.43L328.99,601.43C328.167,601.43 327.49,600.753 327.49,599.93C327.49,599.107 328.167,598.43 328.99,598.43L368.85,598.43C369.673,598.43 370.35,599.107 370.35,599.93C370.35,600.753 369.673,601.43 368.85,601.43ZM1338.07,92.26L1286.37,92.26C1285.55,92.26 1284.87,91.583 1284.87,90.76C1284.87,89.937 1285.55,89.26 1286.37,89.26L1338.07,89.26C1338.89,89.26 1339.57,89.937 1339.57,90.76C1339.57,91.583 1338.89,92.26 1338.07,92.26ZM1274.74,92.26L1243.41,92.26C1242.59,92.26 1241.91,91.583 1241.91,90.76C1241.91,89.937 1242.59,89.26 1243.41,89.26L1274.74,89.26C1275.56,89.26 1276.24,89.937 1276.24,90.76C1276.24,91.583 1275.56,92.26 1274.74,92.26ZM1194.99,92.26L1166.65,92.26C1165.83,92.26 1165.15,91.583 1165.15,90.76C1165.15,89.937 1165.83,89.26 1166.65,89.26L1194.99,89.26C1195.81,89.26 1196.49,89.937 1196.49,90.76C1196.49,91.583 1195.81,92.26 1194.99,92.26ZM1445.98,92.26L1421.07,92.26C1420.25,92.26 1419.57,91.583 1419.57,90.76C1419.57,89.937 1420.25,89.26 1421.07,89.26L1446.01,89.26C1446.83,89.268 1447.5,89.943 1447.5,90.76C1447.5,91.583 1446.82,92.26 1446,92.26L1445.98,92.26ZM1288.07,112.56L1272.47,112.56C1271.65,112.56 1270.97,111.883 1270.97,111.06C1270.97,110.237 1271.65,109.56 1272.47,109.56L1288.07,109.56C1288.89,109.56 1289.57,110.237 1289.57,111.06C1289.57,111.883 1288.89,112.56 1288.07,112.56ZM1374.64,51.43L1311.07,51.43C1310.25,51.43 1309.57,50.753 1309.57,49.93C1309.57,49.107 1310.25,48.43 1311.07,48.43L1374.65,48.43C1375.47,48.433 1376.14,49.109 1376.14,49.93C1376.14,50.753 1375.47,51.43 1374.64,51.43L1374.64,51.43ZM1195.33,51.43L1179.89,51.43C1179.07,51.43 1178.39,50.753 1178.39,49.93C1178.39,49.107 1179.07,48.43 1179.89,48.43L1195.33,48.43C1196.15,48.43 1196.83,49.107 1196.83,49.93C1196.83,50.753 1196.15,51.43 1195.33,51.43ZM1166.64,51.43L1069.89,51.43C1069.07,51.43 1068.39,50.753 1068.39,49.93C1068.39,49.107 1069.07,48.43 1069.89,48.43L1166.64,48.43C1167.46,48.43 1168.14,49.107 1168.14,49.93C1168.14,50.753 1167.46,51.43 1166.64,51.43ZM1400.65,51.43L1387.76,51.43C1386.94,51.43 1386.26,50.753 1386.26,49.93C1386.26,49.107 1386.94,48.43 1387.76,48.43L1400.65,48.43C1401.47,48.43 1402.15,49.107 1402.15,49.93C1402.15,50.753 1401.47,51.43 1400.65,51.43ZM1139.32,71.73L1117.07,71.73C1116.25,71.73 1115.57,71.053 1115.57,70.23C1115.57,69.407 1116.25,68.73 1117.07,68.73L1139.34,68.73C1140.16,68.735 1140.83,69.411 1140.83,70.23C1140.83,71.053 1140.15,71.73 1139.33,71.73L1139.32,71.73ZM1352.16,71.73L1323.07,71.73C1322.25,71.73 1321.57,71.053 1321.57,70.23C1321.57,69.407 1322.25,68.73 1323.07,68.73L1352.16,68.73C1352.98,68.73 1353.66,69.407 1353.66,70.23C1353.66,71.053 1352.98,71.73 1352.16,71.73ZM1322.48,31.09L1291.86,31.09C1291.04,31.09 1290.36,30.413 1290.36,29.59C1290.36,28.767 1291.04,28.09 1291.86,28.09L1322.48,28.09C1323.3,28.09 1323.98,28.767 1323.98,29.59C1323.98,30.413 1323.3,31.09 1322.48,31.09ZM1149.9,31.09L1112.57,31.09C1111.75,31.09 1111.07,30.413 1111.07,29.59C1111.07,28.767 1111.75,28.09 1112.57,28.09L1149.89,28.09C1150.72,28.09 1151.39,28.767 1151.39,29.59C1151.39,30.411 1150.72,31.087 1149.9,31.09ZM1095.07,31.09L981.07,31.09C980.247,31.09 979.57,30.413 979.57,29.59C979.57,28.767 980.247,28.09 981.07,28.09L1095.07,28.09C1095.89,28.09 1096.57,28.767 1096.57,29.59C1096.57,30.413 1095.89,31.09 1095.07,31.09ZM398.78,31.09L320.07,31.09C319.247,31.09 318.57,30.413 318.57,29.59C318.57,28.767 319.247,28.09 320.07,28.09L398.81,28.09C399.627,28.098 400.295,28.773 400.295,29.59C400.295,30.413 399.618,31.09 398.795,31.09L398.78,31.09ZM454.5,31.09L412.69,31.09C411.867,31.09 411.19,30.413 411.19,29.59C411.19,28.767 411.867,28.09 412.69,28.09L454.5,28.09C455.323,28.09 456,28.767 456,29.59C456,30.413 455.323,31.09 454.5,31.09ZM1332.14,153.39L1323.07,153.39C1322.25,153.39 1321.57,152.713 1321.57,151.89C1321.57,151.067 1322.25,150.39 1323.07,150.39L1332.14,150.39C1332.96,150.39 1333.64,151.067 1333.64,151.89C1333.64,152.713 1332.96,153.39 1332.14,153.39ZM1383.99,153.39L1348.71,153.39C1347.89,153.39 1347.21,152.713 1347.21,151.89C1347.21,151.067 1347.89,150.39 1348.71,150.39L1383.99,150.39C1384.81,150.39 1385.49,151.067 1385.49,151.89C1385.49,152.713 1384.81,153.39 1383.99,153.39ZM1290.45,173.69L1266.64,173.69C1265.82,173.69 1265.14,173.013 1265.14,172.19C1265.14,171.367 1265.82,170.69 1266.64,170.69L1290.45,170.69C1291.27,170.69 1291.95,171.367 1291.95,172.19C1291.95,173.013 1291.27,173.69 1290.45,173.69ZM1418.42,173.69L1384.16,173.69C1383.34,173.69 1382.66,173.013 1382.66,172.19C1382.66,171.367 1383.34,170.69 1384.16,170.69L1418.42,170.69C1419.24,170.69 1419.92,171.367 1419.92,172.19C1419.92,173.013 1419.24,173.69 1418.42,173.69ZM1377.74,132.86L1359.31,132.86C1358.49,132.86 1357.81,132.183 1357.81,131.36C1357.81,130.537 1358.49,129.86 1359.31,129.86L1377.74,129.86C1378.56,129.86 1379.24,130.537 1379.24,131.36C1379.24,132.183 1378.56,132.86 1377.74,132.86ZM1259.49,234.85L1247.07,234.85C1246.25,234.85 1245.57,234.173 1245.57,233.35C1245.57,232.527 1246.25,231.85 1247.07,231.85L1259.49,231.85C1260.31,231.85 1260.99,232.527 1260.99,233.35C1260.99,234.173 1260.31,234.85 1259.49,234.85ZM1296.83,234.85L1272.66,234.85C1271.84,234.85 1271.16,234.173 1271.16,233.35C1271.16,232.527 1271.84,231.85 1272.66,231.85L1296.83,231.85C1297.65,231.85 1298.33,232.527 1298.33,233.35C1298.33,234.173 1297.65,234.85 1296.83,234.85ZM1337.32,234.85L1323.07,234.85C1322.25,234.85 1321.57,234.173 1321.57,233.35C1321.57,232.527 1322.25,231.85 1323.07,231.85L1337.32,231.85C1338.14,231.85 1338.82,232.527 1338.82,233.35C1338.82,234.173 1338.14,234.85 1337.32,234.85ZM1389.65,234.85L1352.16,234.85C1351.34,234.85 1350.66,234.173 1350.66,233.35C1350.66,232.527 1351.34,231.85 1352.16,231.85L1389.65,231.85C1390.47,231.85 1391.15,232.527 1391.15,233.35C1391.15,234.173 1390.47,234.85 1389.65,234.85ZM1445.01,234.85L1424.88,234.85C1424.06,234.85 1423.38,234.173 1423.38,233.35C1423.38,232.527 1424.06,231.85 1424.88,231.85L1445.01,231.85C1445.83,231.85 1446.51,232.527 1446.51,233.35C1446.51,234.173 1445.83,234.85 1445.01,234.85ZM1401.57,194.02L1359.3,194.02C1358.48,194.02 1357.8,193.343 1357.8,192.52C1357.8,191.697 1358.48,191.02 1359.3,191.02L1401.57,191.02C1402.39,191.02 1403.07,191.697 1403.07,192.52C1403.07,193.343 1402.39,194.02 1401.57,194.02ZM1351.16,214.32L1322.48,214.32C1321.66,214.32 1320.98,213.643 1320.98,212.82C1320.98,211.997 1321.66,211.32 1322.48,211.32L1351.16,211.32C1351.98,211.32 1352.66,211.997 1352.66,212.82C1352.66,213.643 1351.98,214.32 1351.16,214.32ZM1377.74,214.32L1367.19,214.32C1366.37,214.32 1365.69,213.643 1365.69,212.82C1365.69,211.997 1366.37,211.32 1367.19,211.32L1377.74,211.32C1378.56,211.32 1379.24,211.997 1379.24,212.82C1379.24,213.643 1378.56,214.32 1377.74,214.32ZM1280.18,296.36L1253.07,296.36C1252.25,296.36 1251.57,295.683 1251.57,294.86C1251.57,294.037 1252.25,293.36 1253.07,293.36L1280.16,293.36C1280.99,293.36 1281.66,294.037 1281.66,294.86C1281.66,295.677 1281,296.352 1280.18,296.36ZM1322.48,296.36L1296.26,296.36C1295.44,296.36 1294.76,295.683 1294.76,294.86C1294.76,294.037 1295.44,293.36 1296.26,293.36L1322.48,293.36C1323.3,293.36 1323.98,294.037 1323.98,294.86C1323.98,295.683 1323.3,296.36 1322.48,296.36ZM1389.65,296.36L1340.22,296.36C1339.4,296.36 1338.72,295.683 1338.72,294.86C1338.72,294.037 1339.4,293.36 1340.22,293.36L1389.65,293.36C1390.47,293.36 1391.15,294.037 1391.15,294.86C1391.15,295.683 1390.47,296.36 1389.65,296.36ZM1262.71,316.28L1233.71,316.28C1232.89,316.28 1232.21,315.603 1232.21,314.78C1232.21,313.957 1232.89,313.28 1233.71,313.28L1262.71,313.28C1263.53,313.28 1264.21,313.957 1264.21,314.78C1264.21,315.603 1263.53,316.28 1262.71,316.28ZM1442.54,336.54L1418.32,336.54C1417.5,336.54 1416.82,335.863 1416.82,335.04C1416.82,334.217 1417.5,333.54 1418.32,333.54L1442.54,333.54C1443.36,333.54 1444.04,334.217 1444.04,335.04C1444.04,335.863 1443.36,336.54 1442.54,336.54ZM1305.32,275.45L1290.07,275.45C1289.25,275.45 1288.57,274.773 1288.57,273.95C1288.57,273.127 1289.25,272.45 1290.07,272.45L1305.3,272.45C1306.12,272.45 1306.8,273.127 1306.8,273.95C1306.8,274.764 1306.13,275.436 1305.32,275.45ZM1350.5,275.45L1321.63,275.45C1320.81,275.45 1320.13,274.773 1320.13,273.95C1320.13,273.127 1320.81,272.45 1321.63,272.45L1350.5,272.45C1351.32,272.45 1352,273.127 1352,273.95C1352,274.773 1351.32,275.45 1350.5,275.45ZM1447.81,275.45L1418.31,275.45C1417.49,275.45 1416.81,274.773 1416.81,273.95C1416.81,273.127 1417.49,272.45 1418.31,272.45L1447.81,272.45C1448.63,272.45 1449.31,273.127 1449.31,273.95C1449.31,274.773 1448.63,275.45 1447.81,275.45ZM1339.57,377.41L1297.17,377.41C1296.35,377.41 1295.67,376.733 1295.67,375.91C1295.67,375.087 1296.35,374.41 1297.17,374.41L1339.57,374.41C1340.39,374.41 1341.07,375.087 1341.07,375.91C1341.07,376.733 1340.39,377.41 1339.57,377.41ZM1374.78,377.41L1354.07,377.41C1353.25,377.41 1352.57,376.733 1352.57,375.91C1352.57,375.087 1353.25,374.41 1354.07,374.41L1374.77,374.41C1375.59,374.41 1376.27,375.087 1376.27,375.91C1376.27,376.727 1375.6,377.402 1374.78,377.41ZM1441.13,397.71L1418.31,397.71C1417.49,397.71 1416.81,397.033 1416.81,396.21C1416.81,395.387 1417.49,394.71 1418.31,394.71L1441.13,394.71C1441.95,394.71 1442.63,395.387 1442.63,396.21C1442.63,397.033 1441.95,397.71 1441.13,397.71ZM1388.65,336.58L1358.3,336.58C1357.48,336.58 1356.8,335.903 1356.8,335.08C1356.8,334.257 1357.48,333.58 1358.3,333.58L1388.65,333.58C1389.47,333.58 1390.15,334.257 1390.15,335.08C1390.15,335.903 1389.47,336.58 1388.65,336.58ZM1320.65,356.88L1311.46,356.88C1310.64,356.88 1309.96,356.203 1309.96,355.38C1309.96,354.557 1310.64,353.88 1311.46,353.88L1320.65,353.88C1321.47,353.88 1322.15,354.557 1322.15,355.38C1322.15,356.203 1321.47,356.88 1320.65,356.88ZM1354.07,356.88L1332.95,356.88C1332.13,356.88 1331.45,356.203 1331.45,355.38C1331.45,354.557 1332.13,353.88 1332.95,353.88L1354.07,353.88C1354.89,353.88 1355.57,354.557 1355.57,355.38C1355.57,356.203 1354.89,356.88 1354.07,356.88ZM1442.29,356.88L1418.42,356.88C1417.6,356.88 1416.92,356.203 1416.92,355.38C1416.92,354.557 1417.6,353.88 1418.42,353.88L1442.29,353.88C1443.11,353.88 1443.79,354.557 1443.79,355.38C1443.79,356.203 1443.11,356.88 1442.29,356.88ZM1388.95,438.54L1337.61,438.54C1336.79,438.54 1336.11,437.863 1336.11,437.04C1336.11,436.217 1336.79,435.54 1337.61,435.54L1388.95,435.54C1389.77,435.54 1390.45,436.217 1390.45,437.04C1390.45,437.863 1389.77,438.54 1388.95,438.54ZM1393.47,458.84L1366.35,458.84C1365.53,458.84 1364.85,458.163 1364.85,457.34C1364.85,456.517 1365.53,455.84 1366.35,455.84L1393.47,455.84C1394.29,455.84 1394.97,456.517 1394.97,457.34C1394.97,458.163 1394.29,458.84 1393.47,458.84ZM1351.91,418.01L1310.07,418.01C1309.25,418.01 1308.57,417.333 1308.57,416.51C1308.57,415.687 1309.25,415.01 1310.07,415.01L1351.91,415.01C1352.73,415.01 1353.41,415.687 1353.41,416.51C1353.41,417.333 1352.73,418.01 1351.91,418.01ZM1388.95,418.01L1376.31,418.01C1375.49,418.01 1374.81,417.333 1374.81,416.51C1374.81,415.687 1375.49,415.01 1376.31,415.01L1388.95,415.01C1389.77,415.01 1390.45,415.687 1390.45,416.51C1390.45,417.333 1389.77,418.01 1388.95,418.01ZM1320.75,520L1274.75,520C1273.93,520 1273.25,519.323 1273.25,518.5C1273.25,517.677 1273.93,517 1274.75,517L1320.75,517C1321.57,517 1322.25,517.677 1322.25,518.5C1322.25,519.323 1321.57,520 1320.75,520ZM1392,520L1334.39,520C1333.57,520 1332.89,519.323 1332.89,518.5C1332.89,517.677 1333.57,517 1334.39,517L1392,517C1392.82,517 1393.5,517.677 1393.5,518.5C1393.5,519.323 1392.82,520 1392,520ZM1277.3,540.3L1220.71,540.3C1219.89,540.3 1219.21,539.623 1219.21,538.8C1219.21,537.977 1219.89,537.3 1220.71,537.3L1277.3,537.3C1278.12,537.3 1278.8,537.977 1278.8,538.8C1278.8,539.623 1278.12,540.3 1277.3,540.3ZM1322.71,540.3L1293.07,540.3C1292.25,540.3 1291.57,539.623 1291.57,538.8C1291.57,537.977 1292.25,537.3 1293.07,537.3L1322.7,537.3C1323.52,537.3 1324.2,537.977 1324.2,538.8C1324.2,539.619 1323.53,540.295 1322.71,540.3ZM1299.49,479.17L1285.37,479.17C1284.55,479.17 1283.87,478.493 1283.87,477.67C1283.87,476.847 1284.55,476.17 1285.37,476.17L1299.49,476.17C1300.31,476.17 1300.99,476.847 1300.99,477.67C1300.99,478.493 1300.31,479.17 1299.49,479.17ZM1443.9,479.17L1421.07,479.17C1420.25,479.17 1419.57,478.493 1419.57,477.67C1419.57,476.847 1420.25,476.17 1421.07,476.17L1443.93,476.17C1444.75,476.178 1445.41,476.853 1445.41,477.67C1445.41,478.493 1444.74,479.17 1443.91,479.17L1443.9,479.17ZM1324.68,499.47L1291.13,499.47C1290.31,499.47 1289.63,498.793 1289.63,497.97C1289.63,497.147 1290.31,496.47 1291.13,496.47L1324.68,496.47C1325.5,496.47 1326.18,497.147 1326.18,497.97C1326.18,498.793 1325.5,499.47 1324.68,499.47ZM1359.3,499.47L1344.97,499.47C1344.15,499.47 1343.47,498.793 1343.47,497.97C1343.47,497.147 1344.15,496.47 1344.97,496.47L1359.3,496.47C1360.12,496.47 1360.8,497.147 1360.8,497.97C1360.8,498.793 1360.12,499.47 1359.3,499.47ZM1208.59,601.43L1192.07,601.43C1191.25,601.43 1190.57,600.753 1190.57,599.93C1190.57,599.107 1191.25,598.43 1192.07,598.43L1208.58,598.43C1209.4,598.43 1210.08,599.107 1210.08,599.93C1210.08,600.749 1209.41,601.425 1208.59,601.43ZM1407.36,601.43L1371.78,601.43C1370.96,601.43 1370.28,600.753 1370.28,599.93C1370.28,599.107 1370.96,598.43 1371.78,598.43L1407.36,598.43C1408.18,598.43 1408.86,599.107 1408.86,599.93C1408.86,600.753 1408.18,601.43 1407.36,601.43ZM1441.42,601.43L1422.23,601.43C1421.41,601.43 1420.73,600.753 1420.73,599.93C1420.73,599.107 1421.41,598.43 1422.23,598.43L1441.42,598.43C1442.24,598.43 1442.92,599.107 1442.92,599.93C1442.92,600.753 1442.24,601.43 1441.42,601.43ZM1355.64,621.73L1342.2,621.73C1341.38,621.73 1340.7,621.053 1340.7,620.23C1340.7,619.407 1341.38,618.73 1342.2,618.73L1355.64,618.73C1356.46,618.73 1357.14,619.407 1357.14,620.23C1357.14,621.053 1356.46,621.73 1355.64,621.73ZM1326.39,621.73L1300.39,621.73C1299.57,621.73 1298.89,621.053 1298.89,620.23C1298.89,619.407 1299.57,618.73 1300.39,618.73L1326.39,618.73C1327.21,618.73 1327.89,619.407 1327.89,620.23C1327.89,621.053 1327.21,621.73 1326.39,621.73ZM1150.21,621.73L1128.42,621.73C1127.6,621.73 1126.92,621.053 1126.92,620.23C1126.92,619.407 1127.6,618.73 1128.42,618.73L1150.21,618.73C1151.03,618.73 1151.71,619.407 1151.71,620.23C1151.71,621.053 1151.03,621.73 1150.21,621.73ZM1117.07,621.73L1054.07,621.73C1053.25,621.73 1052.57,621.053 1052.57,620.23C1052.57,619.407 1053.25,618.73 1054.07,618.73L1117.07,618.73C1117.89,618.73 1118.57,619.407 1118.57,620.23C1118.57,621.053 1117.89,621.73 1117.07,621.73ZM1217.85,621.73L1167.33,621.73C1166.51,621.73 1165.83,621.053 1165.83,620.23C1165.83,619.407 1166.51,618.73 1167.33,618.73L1217.85,618.73C1218.67,618.73 1219.35,619.407 1219.35,620.23C1219.35,621.053 1218.67,621.73 1217.85,621.73ZM1386.32,642.04L1320.38,642.04C1319.56,642.04 1318.88,641.363 1318.88,640.54C1318.88,639.717 1319.56,639.04 1320.38,639.04L1386.32,639.04C1387.14,639.04 1387.82,639.717 1387.82,640.54C1387.82,641.363 1387.14,642.04 1386.32,642.04ZM1185.57,642.04L1148.92,642.04C1148.1,642.04 1147.42,641.363 1147.42,640.54C1147.42,639.717 1148.1,639.04 1148.92,639.04L1185.57,639.04C1186.39,639.04 1187.07,639.717 1187.07,640.54C1187.07,641.363 1186.39,642.04 1185.57,642.04ZM1078.15,642.04L1059.28,642.04C1058.46,642.04 1057.78,641.363 1057.78,640.54C1057.78,639.717 1058.46,639.04 1059.28,639.04L1078.15,639.04C1078.97,639.04 1079.65,639.717 1079.65,640.54C1079.65,641.363 1078.97,642.04 1078.15,642.04ZM1046.23,642.04L978.36,642.04C977.537,642.04 976.86,641.363 976.86,640.54C976.86,639.717 977.537,639.04 978.36,639.04L1046.24,639.04C1047.06,639.043 1047.74,639.719 1047.74,640.54C1047.74,641.363 1047.06,642.04 1046.24,642.04L1046.23,642.04ZM322.25,621.73L305.58,621.73C304.757,621.73 304.08,621.053 304.08,620.23C304.08,619.407 304.757,618.73 305.58,618.73L322.245,618.73C323.068,618.73 323.745,619.407 323.745,620.23C323.745,621.051 323.071,621.727 322.25,621.73ZM64.52,621.73L44.69,621.73C43.867,621.73 43.19,621.053 43.19,620.23C43.19,619.407 43.867,618.73 44.69,618.73L64.52,618.73C65.343,618.73 66.02,619.407 66.02,620.23C66.02,621.053 65.343,621.73 64.52,621.73ZM352.14,621.73L334.33,621.73C333.507,621.73 332.83,621.053 332.83,620.23C332.83,619.407 333.507,618.73 334.33,618.73L352.14,618.73C352.963,618.73 353.64,619.407 353.64,620.23C353.64,621.053 352.963,621.73 352.14,621.73ZM352.92,642.04L286.98,642.04C286.157,642.04 285.48,641.363 285.48,640.54C285.48,639.717 286.157,639.04 286.98,639.04L352.92,639.04C353.743,639.04 354.42,639.717 354.42,640.54C354.42,641.363 353.743,642.04 352.92,642.04ZM272.17,642.04L211.64,642.04C210.817,642.04 210.14,641.363 210.14,640.54C210.14,639.717 210.817,639.04 211.64,639.04L272.17,639.04C272.993,639.04 273.67,639.717 273.67,640.54C273.67,641.363 272.993,642.04 272.17,642.04ZM183.71,642.04L167.85,642.04C167.027,642.04 166.35,641.363 166.35,640.54C166.35,639.717 167.027,639.04 167.85,639.04L183.705,639.04C184.528,639.04 185.205,639.717 185.205,640.54C185.205,641.361 184.531,642.037 183.71,642.04ZM97.84,642.04L25.84,642.04C25.017,642.04 24.34,641.363 24.34,640.54C24.34,639.717 25.017,639.04 25.84,639.04L97.84,639.04C98.663,639.04 99.34,639.717 99.34,640.54C99.34,641.363 98.663,642.04 97.84,642.04ZM433.59,642.04L367.73,642.04C366.907,642.04 366.23,641.363 366.23,640.54C366.23,639.717 366.907,639.04 367.73,639.04L433.59,639.04C434.413,639.04 435.09,639.717 435.09,640.54C435.09,641.363 434.413,642.04 433.59,642.04ZM1274.74,560.6L1261.45,560.6C1260.63,560.6 1259.95,559.923 1259.95,559.1C1259.95,558.277 1260.63,557.6 1261.45,557.6L1274.74,557.6C1275.56,557.6 1276.24,558.277 1276.24,559.1C1276.24,559.923 1275.56,560.6 1274.74,560.6ZM1273.43,621.73L1243.01,621.73C1242.19,621.73 1241.51,621.053 1241.51,620.23C1241.51,619.407 1242.19,618.73 1243.01,618.73L1273.43,618.73C1282.9,618.719 1290.7,610.925 1290.71,601.45L1290.71,577.87C1290.72,566.749 1299.87,557.601 1310.99,557.59L1442.29,557.59C1443.11,557.59 1443.79,558.267 1443.79,559.09C1443.79,559.913 1443.11,560.59 1442.29,560.59L1310.99,560.59C1301.52,560.601 1293.72,568.395 1293.71,577.87L1293.71,601.45C1293.7,612.571 1284.55,621.719 1273.43,621.73ZM146.65,71.84C134.629,71.835 124.736,61.951 124.72,49.93C124.72,49.107 125.397,48.43 126.22,48.43C127.043,48.43 127.72,49.107 127.72,49.93C127.731,60.3 136.26,68.829 146.63,68.84L238.47,68.84C247.945,68.829 255.739,61.035 255.75,51.56L255.75,1.56C255.75,0.737 256.427,0.06 257.25,0.06C258.073,0.06 258.75,0.737 258.75,1.56L258.75,51.56C258.739,62.681 249.591,71.829 238.47,71.84L151.02,71.84L146.65,71.84Z" style="fill:rgb(160,160,160);fill-rule:nonzero;"/>
    <path d="M190.48,586.14C186.909,586.14 183.97,583.201 183.97,579.63C183.97,576.059 186.909,573.12 190.48,573.12C194.051,573.12 196.99,576.059 196.99,579.63C196.985,583.199 194.049,586.135 190.48,586.14ZM190.48,576.14C188.554,576.14 186.97,577.724 186.97,579.65C186.97,581.576 188.554,583.16 190.48,583.16C192.406,583.16 193.99,581.576 193.99,579.65L193.99,579.6C193.99,577.674 192.406,576.09 190.48,576.09L190.48,576.14ZM56.42,402.72C52.849,402.72 49.91,399.781 49.91,396.21C49.91,392.639 52.849,389.7 56.42,389.7C59.991,389.7 62.93,392.639 62.93,396.21C62.925,399.779 59.989,402.715 56.42,402.72ZM56.42,392.72C54.494,392.72 52.91,394.304 52.91,396.23C52.91,398.156 54.494,399.74 56.42,399.74C58.346,399.74 59.93,398.156 59.93,396.23L59.93,396.22C59.93,394.294 58.346,392.71 56.42,392.71L56.42,392.72ZM143.17,219.33C139.599,219.33 136.66,216.391 136.66,212.82C136.66,209.249 139.599,206.31 143.17,206.31C146.741,206.31 149.68,209.249 149.68,212.82C149.675,216.389 146.739,219.325 143.17,219.33ZM143.17,209.33C141.244,209.33 139.66,210.914 139.66,212.84C139.66,214.766 141.244,216.35 143.17,216.35C145.096,216.35 146.68,214.766 146.68,212.84L146.68,212.82C146.68,210.894 145.096,209.31 143.17,209.31L143.17,209.33ZM104.48,295.89C104.082,295.89 103.701,295.731 103.42,295.45L83.02,275.09C82.761,274.812 82.617,274.447 82.617,274.067C82.617,273.245 83.295,272.567 84.117,272.567C84.497,272.567 84.862,272.711 85.14,272.97L105.54,293.37C105.797,293.647 105.941,294.012 105.941,294.391C105.941,295.199 105.288,295.869 104.48,295.89ZM341.53,51.22C340.708,51.219 340.031,50.542 340.031,49.72C340.031,49.323 340.189,48.941 340.47,48.66L360.57,28.56C360.848,28.301 361.213,28.157 361.593,28.157C362.415,28.157 363.093,28.835 363.093,29.657C363.093,30.037 362.949,30.402 362.69,30.68L342.59,50.78C342.309,51.061 341.928,51.22 341.53,51.22ZM1358.3,295.67C1357.9,295.67 1357.52,295.511 1357.24,295.23L1337.07,275.01C1336.81,274.732 1336.67,274.367 1336.67,273.987C1336.67,273.165 1337.35,272.487 1338.17,272.487C1338.55,272.487 1338.91,272.631 1339.19,272.89L1359.41,293.11C1359.69,293.391 1359.85,293.773 1359.85,294.171C1359.85,294.994 1359.17,295.671 1358.35,295.671C1358.33,295.671 1358.32,295.671 1358.3,295.67ZM1316.45,91.95C1315.63,91.949 1314.95,91.272 1314.95,90.45C1314.95,90.053 1315.11,89.671 1315.39,89.39L1335.61,69.17C1335.89,68.911 1336.25,68.767 1336.63,68.767C1337.45,68.767 1338.13,69.445 1338.13,70.267C1338.13,70.647 1337.99,71.012 1337.73,71.29L1317.51,91.51C1317.23,91.791 1316.85,91.95 1316.45,91.95ZM1292.87,519.84C1292.05,519.839 1291.37,519.162 1291.37,518.34C1291.37,517.943 1291.53,517.561 1291.81,517.28L1312.07,497.09C1312.35,496.831 1312.71,496.687 1313.09,496.687C1313.91,496.687 1314.59,497.365 1314.59,498.187C1314.59,498.567 1314.45,498.932 1314.19,499.21L1293.97,519.43C1293.67,519.71 1293.28,519.858 1292.87,519.84ZM121.87,601.35C121.048,601.349 120.371,600.672 120.371,599.85C120.371,599.453 120.529,599.071 120.81,598.79L141.07,578.57C141.354,578.266 141.751,578.093 142.167,578.093C142.99,578.093 143.667,578.77 143.667,579.593C143.667,580.009 143.494,580.406 143.19,580.69L122.97,600.91C122.679,601.201 122.281,601.36 121.87,601.35Z" style="fill:rgb(160,160,160);fill-rule:nonzero;"/>
    <path d="M123.45,397.71L61.45,397.71C60.627,397.71 59.95,397.033 59.95,396.21C59.95,395.387 60.627,394.71 61.45,394.71L123.45,394.71C123.513,394.711 123.577,394.711 123.64,394.711C132.966,394.711 140.64,387.037 140.64,377.711L140.64,377.6L140.86,333.5C140.893,322.401 150.031,313.285 161.13,313.28L178,313.28C188.322,313.28 196.823,304.802 196.85,294.48C196.85,293.657 197.527,292.98 198.35,292.98C199.173,292.98 199.85,293.657 199.85,294.48C199.823,306.448 189.968,316.28 178,316.28L161.14,316.28C151.676,316.28 143.882,324.056 143.86,333.52L143.64,377.61C143.602,388.656 134.496,397.721 123.45,397.71ZM102.14,499.47C101.317,499.47 100.64,498.793 100.64,497.97C100.64,497.147 101.317,496.47 102.14,496.47C112.367,496.421 120.748,487.977 120.72,477.75C120.72,476.927 121.397,476.25 122.22,476.25C123.043,476.25 123.72,476.927 123.72,477.75C123.742,489.621 114.011,499.415 102.14,499.47ZM315.07,36.09C311.499,36.09 308.56,33.151 308.56,29.58C308.56,26.009 311.499,23.07 315.07,23.07C318.641,23.07 321.58,26.009 321.58,29.58C321.575,33.149 318.639,36.085 315.07,36.09ZM315.07,26.09C313.144,26.09 311.56,27.674 311.56,29.6C311.56,31.526 313.144,33.11 315.07,33.11C316.996,33.11 318.58,31.526 318.58,29.6C318.58,27.674 316.996,26.09 315.07,26.09ZM1382.75,137.87C1379.18,137.87 1376.24,134.931 1376.24,131.36C1376.24,127.789 1379.18,124.85 1382.75,124.85C1386.32,124.85 1389.26,127.789 1389.26,131.36C1389.26,134.929 1386.32,137.865 1382.75,137.87ZM1382.75,127.87C1380.82,127.87 1379.24,129.454 1379.24,131.38C1379.24,133.306 1380.82,134.89 1382.75,134.89C1384.68,134.89 1386.26,133.306 1386.26,131.38L1386.26,131.36C1386.26,129.434 1384.68,127.85 1382.75,127.85L1382.75,127.87ZM1371.28,423.02C1367.71,423.02 1364.77,420.081 1364.77,416.51C1364.77,412.939 1367.71,410 1371.28,410C1374.85,410 1377.79,412.939 1377.79,416.51C1377.79,420.081 1374.85,423.02 1371.28,423.02ZM1371.28,413.02C1369.35,413.02 1367.77,414.604 1367.77,416.53C1367.77,418.456 1369.35,420.04 1371.28,420.04C1373.21,420.04 1374.79,418.456 1374.79,416.53L1374.79,416.52C1374.79,414.594 1373.21,413.01 1371.28,413.01L1371.28,413.02ZM1237.84,626.74C1234.27,626.74 1231.33,623.801 1231.33,620.23C1231.33,616.659 1234.27,613.72 1237.84,613.72C1241.41,613.72 1244.35,616.659 1244.35,620.23C1244.35,623.799 1241.41,626.735 1237.84,626.74ZM1237.84,616.74C1235.91,616.74 1234.33,618.324 1234.33,620.25C1234.33,622.176 1235.91,623.76 1237.84,623.76C1239.77,623.76 1241.35,622.176 1241.35,620.25L1241.35,620.24C1241.35,618.314 1239.77,616.73 1237.84,616.73L1237.84,616.74ZM1374.07,194.02C1373.25,194.02 1372.57,193.343 1372.57,192.52C1372.57,191.697 1373.25,191.02 1374.07,191.02C1384.34,191.009 1392.78,182.565 1392.79,172.3C1392.79,171.477 1393.47,170.8 1394.29,170.8C1395.11,170.8 1395.79,171.477 1395.79,172.3C1395.77,184.209 1385.98,194.004 1374.07,194.02ZM1129.07,71.68C1128.25,71.68 1127.57,71.003 1127.57,70.18C1127.58,58.252 1137.39,48.441 1149.32,48.43C1150.14,48.43 1150.82,49.107 1150.82,49.93C1150.82,50.753 1150.14,51.43 1149.32,51.43C1139.04,51.441 1130.58,59.898 1130.57,70.18C1130.57,71.003 1129.89,71.68 1129.07,71.68ZM1330.86,49.86C1330.04,49.86 1329.36,49.183 1329.36,48.36C1329.39,37.257 1338.53,28.135 1349.63,28.13L1443.63,28.13C1444.45,28.13 1445.13,28.807 1445.13,29.63C1445.13,30.453 1444.45,31.13 1443.63,31.13L1349.63,31.13L1349.59,31.13C1340.13,31.13 1332.33,38.906 1332.31,48.37C1332.31,49.171 1331.66,49.833 1330.86,49.86ZM1442.54,458.84L1422.07,458.84C1410.95,458.829 1401.8,449.681 1401.79,438.56L1401.79,356.31C1401.79,355.487 1402.47,354.81 1403.29,354.81C1404.11,354.81 1404.79,355.487 1404.79,356.31L1404.79,438.56C1404.8,448.035 1412.6,455.829 1422.07,455.84L1442.55,455.84C1443.37,455.843 1444.05,456.519 1444.05,457.34C1444.05,458.163 1443.37,458.84 1442.55,458.84L1442.54,458.84ZM1310.21,172.9C1309.39,172.9 1308.71,172.223 1308.71,171.4C1308.69,161.941 1300.9,154.17 1291.44,154.17L1229.62,154.25C1218.52,154.234 1209.39,145.118 1209.35,134.02L1209.07,5.5C1209.07,4.677 1209.75,4 1210.57,4C1211.39,4 1212.07,4.677 1212.07,5.5L1212.26,134.02C1212.29,143.475 1220.08,151.239 1229.53,151.25L1291.35,151.17C1302.45,151.175 1311.59,160.297 1311.62,171.4C1311.62,172.223 1310.94,172.9 1310.12,172.9L1310.21,172.9Z" style="fill:rgb(160,160,160);fill-rule:nonzero;"/>
    <path d="M1403.28,364.88C1402.46,364.88 1401.78,364.203 1401.78,363.38L1401.78,272.27C1401.77,262.796 1393.97,255.005 1384.5,255L1328.86,255C1317.74,254.989 1308.59,245.841 1308.58,234.72L1308.58,227.46L1308.76,129.79C1308.79,118.687 1317.93,109.565 1329.03,109.56L1449.57,109.64C1450.39,109.64 1451.07,110.317 1451.07,111.14C1451.07,111.963 1450.39,112.64 1449.57,112.64L1329.03,112.56C1319.57,112.56 1311.77,120.336 1311.75,129.8L1311.55,234.73C1311.56,244.204 1319.36,251.995 1328.83,252L1384.47,252C1395.59,252.011 1404.73,261.153 1404.75,272.27L1404.75,363.38C1404.75,364.192 1404.09,364.864 1403.28,364.88ZM189.47,214.24C188.647,214.24 187.97,213.563 187.97,212.74C187.959,202.475 179.515,194.031 169.25,194.02C168.427,194.02 167.75,193.343 167.75,192.52C167.75,191.697 168.427,191.02 169.25,191.02C181.159,191.036 190.954,200.831 190.97,212.74C190.97,213.563 190.293,214.24 189.47,214.24Z" style="fill:rgb(160,160,160);fill-rule:nonzero;"/>
    <g transform="matrix(0.201246,0,0,0.187818,1125.84,447.181)">
        <rect x="120" y="32" width="80" height="16" style="fill:rgb(160,160,160);"/>
    </g>
    <g transform="matrix(0.201246,0,0,0.187818,1125.84,447.181)">
        <path d="M144,96L128,96L128,184L112,184L112,120L96,120L96,184L80,184L80,144L64,144L64,184L48,184L48,200L160,200L160,184L144,184L144,96Z" style="fill:rgb(160,160,160);fill-rule:nonzero;"/>
    </g>
    <g transform="matrix(0.201246,0,0,0.187818,1125.84,447.181)">
        <rect x="48" y="216" width="16" height="16" style="fill:rgb(160,160,160);"/>
    </g>
    <g transform="matrix(0.201246,0,0,0.187818,1125.84,447.181)">
        <rect x="80" y="216" width="80" height="16" style="fill:rgb(160,160,160);"/>
    </g>
    <g transform="matrix(0.201246,0,0,0.187818,1125.84,447.181)">
        <path d="M472,328C485.23,328 496,317.23 496,304L496,180.816C496,164.992 484.184,151.375 468.527,149.137L440,145.063L440,131.68C449.793,122.887 456,110.176 456,96L456,80C456,53.527 434.473,32 408,32C381.527,32 360,53.527 360,80L360,96C360,110.168 366.207,122.879 376,131.68L376,145.063L331.168,151.473L303.633,120L304,120L304,80L320,80L320,32L235.312,32L203.312,0L116.687,0L84.687,32L0,32L0,80L16,80L16,272L0,272L0,320L80,320L80,342.496L26.527,480L0,480L0,496L496,496L496,480L464,480L464,326.527C466.512,327.426 469.184,328 472,328ZM415.574,229.113L408,236.688L400.426,229.113L407.07,175.945C407.383,175.953 407.68,176 408,176C408.32,176 408.617,175.953 408.93,175.945L415.574,229.113ZM376,80C376,62.352 390.352,48 408,48C425.648,48 440,62.352 440,80L440,96C440,113.648 425.648,128 408,128C390.352,128 376,113.648 376,96L376,80ZM408,144C413.617,144 418.984,142.977 424,141.199L424,149.801C422.016,152.863 416.504,160 408,160C399.48,160 393.961,152.832 392,149.801L392,141.199C397.016,142.977 402.383,144 408,144ZM380.055,160.641C382.48,163.91 386.289,168.137 391.52,171.32L383.574,234.887L408,259.313L432.426,234.887L424.48,171.32C429.719,168.129 433.527,163.91 435.945,160.641L466.266,164.969C474.098,166.09 480,172.902 480,180.809L480,304C480,308.406 476.406,312 472,312C467.594,312 464,308.406 464,304L464,192L448,192L448,272L368,272L368,192L319.688,192C317.246,192 314.969,190.902 313.441,189L257.863,119.527C256.664,118.023 256,116.137 256,114.207L256,112.504C256,107.816 259.816,104 264.504,104C266.961,104 269.297,105.055 270.91,106.902L324.832,168.527L380.055,160.641ZM136,352L136,480L75.695,480L125.473,352L136,352ZM152,352L168,352L168,480L152,480L152,352ZM184,352L194.527,352L244.305,480L184,480L184,352ZM211.695,352L226.527,352L276.305,480L261.473,480L211.695,352ZM240,342.496L240,320L320,320L320,272L304,272L304,202.039C308.336,205.816 313.824,208 319.688,208L352,208L352,480L293.473,480L240,342.496ZM368,288L400,288L400,480L368,480L368,288ZM16,48L91.313,48L123.313,16L196.688,16L228.688,48L304,48L304,64L16,64L16,48ZM32,80L288,80L288,102.137L282.953,96.367C278.297,91.047 271.574,88 264.504,88C251,88 240,99 240,112.504L240,114.207C240,119.742 241.902,125.184 245.367,129.52L288,182.809L288,272L32,272L32,80ZM16,288L304,288L304,304L16,304L16,288ZM224,320L224,336L96,336L96,320L224,320ZM93.473,352L108.305,352L58.527,480L43.695,480L93.473,352ZM416,480L416,288L448,288L448,480L416,480Z" style="fill:rgb(160,160,160);fill-rule:nonzero;"/>
    </g>
    <g transform="matrix(0.201246,0,0,0.187818,1125.84,447.181)">
        <path d="M224,160C197.527,160 176,181.527 176,208C176,234.473 197.527,256 224,256C250.473,256 272,234.473 272,208C272,181.527 250.473,160 224,160ZM216,177.137L216,200L193.137,200C196.047,188.809 204.809,180.047 216,177.137ZM193.137,216L216,216L216,238.863C204.809,235.953 196.047,227.191 193.137,216ZM232,238.863L232,177.137C245.762,180.711 256,193.137 256,208C256,222.863 245.762,235.289 232,238.863Z" style="fill:rgb(160,160,160);fill-rule:nonzero;"/>
    </g>
    <g transform="matrix(0.129032,0,0,0.176951,284.704,513.66)">
        <path d="M496,80L496.179,64.39L480,64L480,0L64,0L64,64L48,64L48,80L64,80L64,128L16,128L16,192L0,192L0,208L16,208L16,480L0,480L0,496L496,496L496,480L480,480L480,80L496,80ZM320,16L384,16L384,32L320,32L320,16ZM320,48L384,48L384,64L320,64L320,48ZM240,16L304,16L304,32L240,32L240,16ZM240,48L304,48L304,64L240,64L240,48ZM160,16L224,16L224,32L160,32L160,16ZM160,48L224,48L224,64L160,64L160,48ZM80,16L144,16L144,32L80,32L80,16ZM80,48L144,48L144,64L80,64L80,48ZM32,144L80,144L80,160L32,160L32,144ZM32,176L80,176L80,192L32,192L32,176ZM216,288L200,288L200,304L216,304L216,384L200,384L200,400L216,400L216,480L32,480L32,400L184,400L184,384L32,384L32,304L184,304L184,288L32,288L32,208L216,208L216,288ZM152,176L152,192L96,192L96,176L152,176ZM96,160L96,144L152,144L152,160L96,160ZM216,192L168,192L168,176L216,176L216,192ZM216,160L168,160L168,144L216,144L216,160ZM368,480L232,480L232,333.248L368,404.824L368,480ZM232,315.176L232,269.256L264,286.096L264,332.016L232,315.176ZM280,340.432L280,294.512L320,315.568L320,361.488L280,340.432ZM368,386.752L336,369.912L336,323.992L368,340.832L368,386.752ZM432,480L384,480L384,464L432,464L432,480ZM432,448L384,448L384,432L432,432L432,448ZM432,416L384,416L384,400L432,400L432,416ZM464,480L448,480L448,336L432,336L432,384L384,384L384,331.168L232,251.168L232,208L248,208L248,192L232,192L232,128L80,128L80,80L464,80L464,480ZM464,64L400,64L400,48L464,48L464,64ZM464,32L400,32L400,16L464,16L464,32Z" style="fill:rgb(160,160,160);fill-rule:nonzero;"/>
    </g>
    <g transform="matrix(0.140233,0,0,0.13507,279.917,534.281)">
        <rect x="432" y="96" width="16" height="16" style="fill:rgb(160,160,160);"/>
    </g>
    <g transform="matrix(0.140233,0,0,0.13507,279.917,534.281)">
        <rect x="400" y="96" width="16" height="16" style="fill:rgb(160,160,160);"/>
    </g>
    <g transform="matrix(0.140233,0,0,0.13507,279.917,534.281)">
        <rect x="432" y="128" width="16" height="16" style="fill:rgb(160,160,160);"/>
    </g>
    <g transform="matrix(0.140233,0,0,0.13507,280.819,531.093)">
        <path d="M200,228C200,225.792 198.208,224 196,224L188,224C185.792,224 184,225.792 184,228L184,236C184,238.208 185.792,240 188,240L196,240C198.208,240 200,238.208 200,236L200,228Z" style="fill:rgb(160,160,160);"/>
    </g>
    <g transform="matrix(0.140233,0,0,0.13507,280.2,531.335)">
        <path d="M168,228C168,225.792 166.208,224 164,224L156,224C153.792,224 152,225.792 152,228L152,236C152,238.208 153.792,240 156,240L164,240C166.208,240 168,238.208 168,236L168,228Z" style="fill:rgb(160,160,160);"/>
    </g>
    <g transform="matrix(0.140233,0,0,0.13507,280.807,523.257)">
        <path d="M200,260C200,257.792 198.208,256 196,256L188,256C185.792,256 184,257.792 184,260L184,268C184,270.208 185.792,272 188,272L196,272C198.208,272 200,270.208 200,268L200,260Z" style="fill:rgb(160,160,160);"/>
    </g>
    <g transform="matrix(0.160735,0,0,0.163656,269.287,132.861)">
        <rect x="480" y="480" width="16" height="16" style="fill:rgb(160,160,160);"/>
    </g>
    <g transform="matrix(0.191534,0,0,0.175657,254.751,127.064)">
        <path d="M496,176L496,160L336,160L336,176L352,176L352,248L336,248L336,264L352,264L352,336L327.2,336L296.888,48L312,48L312,0L216,0L216,48L231.112,48L200.8,336L187.72,336L63.664,188.68C61.976,172.608 48.512,160 32,160C14.352,160 0,174.352 0,192C0,206.872 10.232,219.288 24,222.864L24,480L0,480L0,496L464,496L464,480L448,480L448,400L496,400L496,336L480,336L480,264L496,264L496,248L480,248L480,176L496,176ZM368,176L464,176L464,248L368,248L368,176ZM368,264L464,264L464,336L368,336L368,264ZM310.624,331.312L243.312,264L303.536,264L310.624,331.312ZM301.096,240.816L249.96,184L295.112,184L301.096,240.816ZM242.992,88L247.2,48L280.8,48L285.008,88L242.992,88ZM286.696,104L292.24,156.68L255.368,104L286.696,104ZM280.632,168L234.568,168L240.592,110.792L280.632,168ZM232,16L296,16L296,32L295.2,32L232.8,32L232,32L232,16ZM232.424,188.424L286.04,248L226.152,248L232.424,188.424ZM224.104,267.416L292.688,336L216.88,336L224.104,267.416ZM166.8,336L132.208,336L121.208,320L153.328,320L166.8,336ZM115.968,275.632L139.856,304L110.208,304L106.672,298.856L115.968,275.632ZM104.288,261.752L95.784,283.008L66.704,240.712L97.784,254.032L104.288,261.752ZM59.344,208.384L74.856,226.808L51.816,216.936C54.808,214.544 57.36,211.68 59.344,208.384ZM16,192C16,183.176 23.176,176 32,176C40.824,176 48,183.176 48,192C48,200.824 40.824,208 32,208C23.176,208 16,200.824 16,192ZM104,480L40,480L40,230.12L88.64,300.864L88.576,301.032L88.824,301.128L112.792,336L56,336L56,400L104,400L104,480ZM184,448L176,448L176,464L184,464L184,480L120,480L120,464L160,464L160,448L120,448L120,400L184,400L184,448ZM352,480L200,480L200,400L352,400L352,480ZM432,448L424,448L424,464L432,464L432,480L368,480L368,464L408,464L408,448L368,448L368,400L432,400L432,448ZM480,384L72,384L72,352L480,352L480,384Z" style="fill:rgb(160,160,160);fill-rule:nonzero;"/>
    </g>
    <g transform="matrix(0.160735,0,0,0.163656,269.287,132.861)">
        <rect x="384" y="192" width="16" height="16" style="fill:rgb(160,160,160);"/>
    </g>
    <g transform="matrix(0.160735,0,0,0.163656,269.287,132.861)">
        <rect x="416" y="192" width="16" height="16" style="fill:rgb(160,160,160);"/>
    </g>
    <g transform="matrix(0.160735,0,0,0.163656,269.287,132.861)">
        <rect x="432" y="304" width="16" height="16" style="fill:rgb(160,160,160);"/>
    </g>
    <g transform="matrix(0.160735,0,0,0.163656,269.287,132.861)">
        <rect x="400" y="304" width="16" height="16" style="fill:rgb(160,160,160);"/>
    </g>
    <g transform="matrix(0.153582,0,0,0.150841,1105.37,89.7612)">
        <path d="M259.2,326.4C251.976,336.024 248,347.952 248,360C248,390.872 273.128,416 304,416C334.872,416 360,390.872 360,360C360,347.952 356.024,336.024 348.8,326.408L304,266.664L259.2,326.4ZM344,360C344,382.056 326.056,400 304,400C281.944,400 264,382.056 264,360C264,351.4 266.84,342.872 272,336L304,293.336L336,336.008C341.16,342.872 344,351.4 344,360Z" style="fill:rgb(160,160,160);fill-rule:nonzero;"/>
    </g>
    <g transform="matrix(0.153582,0,0,0.150841,1105.37,89.7612)">
        <path d="M252.8,158.408L208,98.664L163.2,158.4C155.976,168.024 152,179.952 152,192C152,222.872 177.128,248 208,248C238.872,248 264,222.872 264,192C264,179.952 260.024,168.024 252.8,158.408ZM208,232C185.944,232 168,214.056 168,192C168,183.4 170.84,174.872 176,168L208,125.336L240,168.008C245.16,174.872 248,183.4 248,192C248,214.056 230.056,232 208,232Z" style="fill:rgb(160,160,160);fill-rule:nonzero;"/>
    </g>
    <g transform="matrix(0.153582,0,0,0.150841,1105.37,89.7612)">
        <path d="M464,216C446.352,216 432,230.352 432,248C432,251.64 432.744,255.088 433.864,258.352L399.944,278.704L312,227.408L312,124.592L408,68.592L408,0L392,0L392,59.408L304,110.744L216,59.408L216,0L200,0L200,59.408L112.144,110.656L62.904,79.88C63.552,77.344 64,74.736 64,72C64,54.352 49.648,40 32,40C14.352,40 0,54.352 0,72C0,89.648 14.352,104 32,104C41.144,104 49.352,100.096 55.192,93.928L104,124.432L104,227.408L11.968,281.088L20.032,294.92L112,241.256L200,292.584L200,395.4L119.448,442.384C113.6,436.04 105.296,432 96,432C78.352,432 64,446.352 64,464C64,481.648 78.352,496 96,496C113.648,496 128,481.648 128,464C128,461.408 127.608,458.92 127.024,456.504L208,409.264L296,460.592L296,496L312,496L312,460.592L350.76,437.976L400.04,409.232L452.032,438.944L459.968,425.056L408,395.36L408,292.528L442.704,271.704C448.376,276.808 455.792,280 464,280C481.648,280 496,265.648 496,248C496,230.352 481.648,216 464,216ZM32,88C23.176,88 16,80.824 16,72C16,63.176 23.176,56 32,56C40.824,56 48,63.176 48,72C48,80.824 40.824,88 32,88ZM96,480C87.176,480 80,472.824 80,464C80,455.176 87.176,448 96,448C104.824,448 112,455.176 112,464C112,472.824 104.824,480 96,480ZM164,253.072L120,227.408L120,124.592L208,73.256L296,124.592L296,227.408L252,253.072L208,278.736L164,253.072ZM392,395.408L342.648,424.2L304,446.744L216,395.408L216,292.592L260,266.928L304,241.264L392,292.6L392,395.408ZM464,264C455.176,264 448,256.824 448,248C448,239.176 455.176,232 464,232C472.824,232 480,239.176 480,248C480,256.824 472.824,264 464,264Z" style="fill:rgb(160,160,160);fill-rule:nonzero;"/>
    </g>
    <g transform="matrix(0.153582,0,0,0.150841,1105.37,89.7612)">
        <rect x="424" y="168" width="16" height="16" style="fill:rgb(160,160,160);"/>
    </g>
    <g transform="matrix(0.153582,0,0,0.150841,1105.37,89.7612)">
        <rect x="392" y="168" width="16" height="16" style="fill:rgb(160,160,160);"/>
    </g>
    <g transform="matrix(0.153582,0,0,0.150841,1105.37,89.7612)">
        <rect x="360" y="168" width="16" height="16" style="fill:rgb(160,160,160);"/>
    </g>
    <g transform="matrix(0.153582,0,0,0.150841,1105.37,89.7612)">
        <rect x="136" y="336" width="16" height="16" style="fill:rgb(160,160,160);"/>
    </g>
    <g transform="matrix(0.153582,0,0,0.150841,1105.37,89.7612)">
        <rect x="104" y="336" width="16" height="16" style="fill:rgb(160,160,160);"/>
    </g>
    <g transform="matrix(0.153582,0,0,0.150841,1105.37,89.7612)">
        <rect x="72" y="336" width="16" height="16" style="fill:rgb(160,160,160);"/>
    </g>
    <g transform="matrix(0.111405,0,0,0.114588,1197.28,256.785)">
        <path d="M80,392C66.768,392 56,402.768 56,416C56,429.232 66.768,440 80,440C93.232,440 104,429.232 104,416C104,402.768 93.232,392 80,392ZM80,424C75.584,424 72,420.416 72,416C72,411.584 75.584,408 80,408C84.416,408 88,411.584 88,416C88,420.416 84.416,424 80,424Z" style="fill:rgb(160,160,160);fill-rule:nonzero;"/>
    </g>
    <g transform="matrix(0.111405,0,0,0.114588,1197.28,256.785)">
        <path d="M440,136L440,80L456,80L456,64L384,64L328,64L328,80L344,80L344,136L288,136L288,200L312,200L312,496L328,496L328,200L344,200L344,400C344,426.472 365.528,448 392,448C418.472,448 440,426.472 440,400L440,200L456,200L456,496L472,496L472,200L496,200L496,136L440,136ZM360,80L424,80L424,136L360,136L360,80ZM424,400C424,417.648 409.648,432 392,432C379.896,432 369.464,425.168 364.032,415.232C384.464,411.44 400,393.512 400,372C400,349.096 382.392,330.232 360,328.2L360,256L380.448,256C377.696,260.728 376,266.144 376,272C376,289.648 390.352,304 408,304C413.856,304 419.272,302.304 424,299.552L424,400ZM360,399.592L360,344.408C373.536,346.368 384,357.936 384,372C384,386.064 373.536,397.632 360,399.592ZM408,288C399.176,288 392,280.824 392,272C392,263.176 399.176,256 408,256C416.824,256 424,263.176 424,272C424,280.824 416.824,288 408,288ZM424,240L360,240L360,200L424,200L424,240ZM480,184L304,184L304,152L480,152L480,184Z" style="fill:rgb(160,160,160);fill-rule:nonzero;"/>
    </g>
    <g transform="matrix(0.111405,0,0,0.114588,1197.28,256.785)">
        <path d="M408,40C408,26.768 397.232,16 384,16C370.768,16 360,26.768 360,40C360,53.232 370.768,64 384,64C397.232,64 408,53.232 408,40ZM384,48C379.584,48 376,44.416 376,40C376,35.584 379.584,32 384,32C388.416,32 392,35.584 392,40C392,44.416 388.416,48 384,48Z" style="fill:rgb(160,160,160);fill-rule:nonzero;"/>
    </g>
    <g transform="matrix(0.111405,0,0,0.114588,1197.28,256.785)">
        <path d="M448,40C470.056,40 488,22.056 488,0L472,0C472,13.232 461.232,24 448,24C434.768,24 424,13.232 424,0L408,0C408,22.056 425.944,40 448,40Z" style="fill:rgb(160,160,160);fill-rule:nonzero;"/>
    </g>
    <g transform="matrix(0.111405,0,0,0.114588,1197.28,256.785)">
        <path d="M176,230.144L176,40L192,40L192,24L176,24L144,24L144,0L128,0L128,24L96,24L80,24L80,40L96,40L96,230.144C39.168,247.584 0,300.12 0,360C0,434.992 61.008,496 136,496C210.992,496 272,434.992 272,360C272,300.12 232.832,247.584 176,230.144ZM256,360C256,426.168 202.168,480 136,480C69.832,480 16,426.168 16,360C16,354.584 16.464,349.256 17.168,344L144.808,344C148.528,362.232 164.68,376 184,376C203.32,376 219.472,362.232 223.192,344L254.832,344C255.536,349.256 256,354.584 256,360ZM161.472,344L206.528,344C203.216,353.288 194.416,360 184,360C173.584,360 164.784,353.288 161.472,344ZM20.416,328C31.656,287.48 63.704,254.848 106,243.944L112,242.392L112,40L160,40L160,242.392L166,243.944C208.296,254.848 240.344,287.48 251.584,328L20.416,328Z" style="fill:rgb(160,160,160);fill-rule:nonzero;"/>
    </g>
    <g transform="matrix(0.181023,0,0,0.184498,883.02,550.977)">
        <rect x="480" y="480" width="16" height="16" style="fill:rgb(160,160,160);"/>
    </g>
    <g transform="matrix(0.181023,0,0,0.184498,883.02,550.977)">
        <path d="M424,128L457.296,128L488,117.768L488,0L280,0L280,117.768L310.704,128L344,128L344,144L173.152,144C189.504,130.792 200,110.608 200,88L200,80L200,64C200,35.136 178.04,11.304 149.952,8.328C147.224,3.392 142.032,0 136,0L120,0C113.968,0 108.776,3.392 106.048,8.328C77.96,11.304 56,35.136 56,64L56,88C56,110.608 66.496,130.792 82.848,144L72,144C32.304,144 0,176.296 0,216L0,296C0,322.472 21.528,344 48,344L48,480L0,480L0,496L464,496L464,480L424,480L424,128ZM152,24.808C170.232,28.52 184,44.68 184,64L152,64L152,24.808ZM120,16L136,16L136,64L120,64L120,16ZM120,80L168.336,80C159.28,84.272 146.2,88 128,88C109.552,88 96.416,84.28 87.4,80L120,80ZM104,24.808L104,64L72,64C72,44.68 85.768,28.52 104,24.808ZM72.08,89.648C83.096,96.728 100.936,104 128,104C155.064,104 172.904,96.728 183.92,89.648C183.032,119.76 158.32,144 128,144C97.68,144 72.968,119.76 72.08,89.648ZM139.872,160L128,187.688L116.128,160L139.872,160ZM80,192L80,160L98.728,160L120,209.64L120,248L64,248L64,214.528C73.288,211.216 80,202.416 80,192ZM64,312L64,296L120,296L120,312L64,312ZM80,328L80,336C80,344.824 72.824,352 64,352L64,328L80,328ZM64,280L64,264L120,264L120,280L64,280ZM48,328C36.208,328 26,321.52 20.448,312L48,312L48,328ZM56,200L48,200L48,296L16,296L16,216C16,187.848 36.904,164.544 64,160.64L64,192C64,196.416 60.408,200 56,200ZM120,480L64,480L64,464L120,464L120,480ZM192,480L136,480L136,464L192,464L192,480ZM192,448L136,448L136,360L120,360L120,448L64,448L64,368C81.648,368 96,353.648 96,336L96,328L160,328L160,336C160,353.648 174.352,368 192,368L192,448ZM192,352C183.176,352 176,344.824 176,336L176,328L192,328L192,352ZM192,312L136,312L136,296L192,296L192,312ZM192,280L136,280L136,264L192,264L192,280ZM192,248L136,248L136,209.64L157.272,160L176,160L176,192C176,202.416 182.712,211.216 192,214.528L192,248ZM200,200C195.592,200 192,196.416 192,192L192,160L304,160L304,200L200,200ZM344,480L208,480L208,216L344,216L344,480ZM344,200L320,200L320,160L344,160L344,200ZM408,147.056L380.424,160.848L387.584,175.16L408,164.944L408,243.056L380.424,256.848L387.584,271.16L408,260.944L408,339.056L380.424,352.848L387.584,367.16L408,356.944L408,435.056L380.424,448.848L387.584,463.16L408,452.944L408,480L360,480L360,420.944L387.576,407.152L380.416,392.84L360,403.056L360,324.944L387.576,311.152L380.416,296.84L360,307.056L360,228.944L387.576,215.152L380.416,200.84L360,211.056L360,128L408,128L408,147.056ZM408,80L408,112L392,112L392,80L376,80L376,112L360,112L360,80L344,80L344,112L328,112L328,80L312,80L312,111.568L296,106.232L296,48L440,48L440,32L296,32L296,16L472,16L472,32L456,32L456,48L472,48L472,106.232L456,111.568L456,80L440,80L440,112L424,112L424,80L408,80Z" style="fill:rgb(160,160,160);fill-rule:nonzero;"/>
    </g>
    <g transform="matrix(0.181023,0,0,0.184498,883.02,550.977)">
        <path d="M288,440L288,456L289.368,456C301.824,456 313.536,460.848 322.344,469.656L333.656,458.344C321.824,446.512 306.096,440 289.368,440L288,440Z" style="fill:rgb(160,160,160);fill-rule:nonzero;"/>
    </g>
    <g transform="matrix(0.181023,0,0,0.184498,883.02,550.977)">
        <path d="M310.656,416.408L313.344,420.44L326.656,411.568L323.968,407.536C314.152,392.8 297.712,384 280,384L280,400C292.344,400 303.808,406.136 310.656,416.408Z" style="fill:rgb(160,160,160);fill-rule:nonzero;"/>
    </g>
    <g transform="matrix(0.181023,0,0,0.184498,883.02,550.977)">
        <path d="M480,440L478.632,440C461.904,440 446.176,446.512 434.344,458.344L445.656,469.656C454.464,460.848 466.176,456 478.632,456L480,456L480,440Z" style="fill:rgb(160,160,160);fill-rule:nonzero;"/>
    </g>
    <g transform="matrix(0.181023,0,0,0.184498,883.02,550.977)">
        <path d="M444.032,407.528L441.344,411.56L454.656,420.432L457.344,416.4C464.192,406.136 475.656,400 488,400L488,384C470.288,384 453.848,392.8 444.032,407.528Z" style="fill:rgb(160,160,160);fill-rule:nonzero;"/>
    </g>
    <g transform="matrix(0.180229,0,0,0.180229,184.412,369.206)">
        <path d="M414.56,319.488L352,305.584L352,285.816C376.176,268.368 392,240.024 392,208L392,165.352C393.656,163.712 395.216,161.96 396.552,160L432,160L432,144L416,144L416,128C416,70.76 374.664,21.328 318.952,10.472C316.696,4.376 310.872,0 304,0L288,0C281.128,0 275.304,4.376 273.048,10.472C217.336,21.328 176,70.76 176,128L176,144L160,144L160,160L195.448,160C196.792,161.96 198.344,163.72 200,165.36L200,208C200,240.024 215.824,268.368 240,285.816L240,305.584L177.44,319.488C129.488,330.144 96,371.888 96,421.008L96,496L496,496L496,421.008C496,371.888 462.512,330.144 414.56,319.488ZM176,480L112,480L112,421.008C112,381.152 138.088,347.104 176,336.416L176,480ZM355.872,322.832L325.992,362.68L304.176,340.864L345.04,320.432L355.872,322.832ZM296,327.056L256,307.056L256,295.16C268.192,300.776 281.712,304 296,304C310.288,304 323.808,300.776 336,295.16L336,307.056L296,327.056ZM207.152,148.424L204.944,144L192,144L192,128C192,79.8 225.8,37.896 272,26.936L272,64L288,64L288,16L304,16L304,64L320,64L320,26.936C366.2,37.896 400,79.8 400,128L400,144L387.056,144L384.848,148.424C381.272,155.56 374.096,160 366.112,160L225.888,160C217.896,160 210.72,155.568 207.152,148.424ZM216,174.624C219.168,175.504 222.48,176 225.888,176L366.104,176C369.512,176 372.824,175.496 375.992,174.624L375.992,203.056L365.304,208.4C355.368,213.368 344.232,216 333.12,216L320,216C318.664,216 317.488,215.144 317.064,213.88L314.12,205.048C311.504,197.248 304.224,192 296,192C287.776,192 280.496,197.248 277.872,205.064L274.944,213.872C274.512,215.144 273.336,216 272,216L258.88,216C247.76,216 236.632,213.368 226.688,208.4L216,203.056L216,174.624ZM217.24,221.568L219.528,222.712C231.688,228.792 245.296,232 258.88,232L272,232C280.224,232 287.504,226.752 290.128,218.936L293.056,210.128C293.912,207.584 298.096,207.592 298.936,210.12L301.88,218.952C304.496,226.752 311.776,232 320,232L333.12,232C346.704,232 360.312,228.792 372.472,222.712L374.76,221.568C368.288,259.224 335.48,288 296,288C256.52,288 223.712,259.224 217.24,221.568ZM246.96,320.424L287.824,340.856L266.008,362.672L236.128,322.824L246.96,320.424ZM288,480L192,480L192,464L288,464L288,480ZM288,448L192,448L192,332.64L218.984,326.648L288,418.664L288,448ZM275.704,375.6L296,355.312L316.296,375.608L296,402.664L275.704,375.6ZM400,480L304,480L304,464L400,464L400,480ZM400,448L304,448L304,418.664L373.016,326.64L400,332.64L400,448ZM480,480L416,480L416,336.416C453.912,347.104 480,381.16 480,421.008L480,480Z" style="fill:rgb(160,160,160);fill-rule:nonzero;"/>
    </g>
    <g transform="matrix(0.180229,0,0,0.180229,184.412,369.206)">
        <path d="M376,128L327.792,128C332.872,121.296 336,113.04 336,104C336,81.944 318.056,64 296,64C273.944,64 256,81.944 256,104C256,113.04 259.128,121.296 264.208,128L216,128L216,144L376,144L376,128ZM296,128C282.768,128 272,117.232 272,104C272,90.768 282.768,80 296,80C309.232,80 320,90.768 320,104C320,117.232 309.232,128 296,128Z" style="fill:rgb(160,160,160);fill-rule:nonzero;"/>
    </g>
    <g transform="matrix(0.180229,0,0,0.180229,184.412,369.206)">
        <rect x="320" y="416" width="64" height="16" style="fill:rgb(160,160,160);"/>
    </g>
    <g transform="matrix(0.180229,0,0,0.180229,184.412,369.206)">
        <path d="M120,248L120,246.648C120,240.84 118.424,235.144 115.44,230.184L88,184.448L60.56,230.176C57.576,235.152 56,240.84 56,246.648L56,248C56,265.648 70.352,280 88,280C105.648,280 120,265.648 120,248ZM72,248L72,246.648C72,243.744 72.792,240.904 74.28,238.416L88,215.552L101.72,238.424C103.208,240.904 104,243.744 104,246.648L104,248C104,256.824 96.824,264 88,264C79.176,264 72,256.824 72,248Z" style="fill:rgb(160,160,160);fill-rule:nonzero;"/>
    </g>
    <g transform="matrix(0.180229,0,0,0.180229,184.412,369.206)">
        <path d="M112,328L112,307.824C114.384,306.984 116.712,306.016 118.984,304.936L133.256,319.2L167.192,285.256L152.928,270.984C154.008,268.712 154.976,266.376 155.816,264L176,264L176,216L155.824,216C154.984,213.624 154.008,211.288 152.936,209.016L167.2,194.744L133.264,160.8L118.992,175.064C116.72,173.984 114.392,173.016 112.008,172.176L112.008,152L64,152L64,172.176C61.616,173.016 59.288,173.984 57.016,175.064L42.744,160.8L8.808,194.744L23.072,209.016C21.992,211.288 21.024,213.624 20.176,216L0,216L0,264L20.176,264C21.016,266.376 21.992,268.712 23.064,270.984L8.8,285.256L42.736,319.2L57.008,304.936C59.288,306.008 61.616,306.976 64,307.824L64,328L112,328ZM59.608,288.2L54.264,285.04L42.744,296.56L31.432,285.24L42.952,273.72L39.8,268.384C37.152,263.904 35.144,259.056 33.832,253.984L32.288,248L16,248L16,232L32.288,232L33.832,226C35.144,220.928 37.152,216.08 39.8,211.6L42.952,206.264L31.432,194.744L42.744,183.424L54.264,194.944L59.608,191.784C64.08,189.144 68.92,187.144 74,185.832L80,184.296L80,168L96,168L96,184.296L102,185.84C107.08,187.152 111.92,189.152 116.392,191.792L121.736,194.952L133.256,183.432L144.568,194.752L133.048,206.272L136.2,211.608C138.848,216.088 140.856,220.936 142.168,226.008L143.712,232L160,232L160,248L143.712,248L142.168,254C140.856,259.072 138.848,263.92 136.2,268.4L133.048,273.736L144.568,285.256L133.256,296.576L121.736,285.056L116.392,288.216C111.92,290.856 107.08,292.856 102,294.168L96,295.704L96,312L80,312L80,295.704L74,294.16C68.92,292.84 64.08,290.84 59.608,288.2Z" style="fill:rgb(160,160,160);fill-rule:nonzero;"/>
    </g>
</svg>
