<?xml version="1.0" encoding="UTF-8" standalone="no"?>
<!DOCTYPE svg PUBLIC "-//W3C//DTD SVG 1.1//EN" "http://www.w3.org/Graphics/SVG/1.1/DTD/svg11.dtd">
<svg width="100%" height="100%" viewBox="0 0 383 311" version="1.1" xmlns="http://www.w3.org/2000/svg" xmlns:xlink="http://www.w3.org/1999/xlink" xml:space="preserve" xmlns:serif="http://www.serif.com/" style="fill-rule:evenodd;clip-rule:evenodd;stroke-linejoin:round;stroke-miterlimit:2;">
    <g id="Artboard1" transform="matrix(0.9599,0,0,1.00974,10.5589,5.0487)">
        <rect x="-11" y="-5" width="399" height="308" style="fill:none;"/>
        <g transform="matrix(2.62893,0,0,2.07972,-274.456,-6.39881)">
            <g id="bg">
                <g id="bg1" serif:id="bg" transform="matrix(0.965549,0,0,1.16029,-93.3751,-81.7739)">
                    <g transform="matrix(42.5841,0,0,42.5841,206,105)">
                        <path d="M0.751,0.199L0.751,0.04L0.234,0.04L0.234,-0.639L0.026,-0.639L0.026,0.199L0.751,0.199ZM0.543,-0.388L0.492,-0.388L0.492,-0.477C0.492,-0.478 0.493,-0.479 0.494,-0.479L0.541,-0.479C0.542,-0.479 0.543,-0.478 0.543,-0.477L0.543,-0.388ZM0.647,-0C0.716,-0 0.751,-0.026 0.751,-0.079L0.751,-0.199L0.543,-0.199L0.543,-0.161C0.543,-0.16 0.542,-0.159 0.541,-0.159L0.494,-0.159C0.493,-0.159 0.492,-0.16 0.492,-0.161L0.492,-0.239L0.751,-0.239L0.751,-0.558C0.751,-0.612 0.716,-0.639 0.647,-0.639L0.388,-0.639C0.319,-0.639 0.284,-0.612 0.284,-0.558L0.284,-0.079C0.284,-0.026 0.319,-0 0.388,-0L0.647,-0Z" style="fill-rule:nonzero;stroke:black;stroke-width:0.14px;"/>
                    </g>
                    <g transform="matrix(42.5841,0,0,42.5841,239.003,105)">
                        <path d="M0.283,-0.159L0.234,-0.159C0.233,-0.159 0.232,-0.16 0.232,-0.161L0.232,-0.257C0.232,-0.258 0.233,-0.259 0.234,-0.259L0.283,-0.259L0.283,-0.159ZM0.491,-0L0.491,-0.558C0.491,-0.612 0.456,-0.639 0.387,-0.639L0.128,-0.639C0.059,-0.639 0.024,-0.612 0.024,-0.558L0.024,-0.44L0.232,-0.44L0.232,-0.477C0.232,-0.478 0.233,-0.479 0.234,-0.479L0.281,-0.479C0.282,-0.479 0.283,-0.478 0.283,-0.477L0.283,-0.399L0.128,-0.399C0.059,-0.399 0.024,-0.373 0.024,-0.32L0.024,-0.079C0.024,-0.026 0.059,-0 0.128,-0L0.491,-0Z" style="fill-rule:nonzero;stroke:black;stroke-width:0.14px;"/>
                    </g>
                    <g transform="matrix(42.5841,0,0,42.5841,305.093,105)">
                        <path d="M0.283,-0.388L0.232,-0.388L0.232,-0.477C0.232,-0.478 0.233,-0.479 0.234,-0.479L0.281,-0.479C0.282,-0.479 0.283,-0.478 0.283,-0.477L0.283,-0.388ZM0.387,-0C0.456,-0 0.491,-0.026 0.491,-0.079L0.491,-0.199L0.283,-0.199L0.283,-0.161C0.283,-0.16 0.282,-0.159 0.281,-0.159L0.234,-0.159C0.233,-0.159 0.232,-0.16 0.232,-0.161L0.232,-0.239L0.491,-0.239L0.491,-0.558C0.491,-0.612 0.456,-0.639 0.387,-0.639L0.128,-0.639C0.059,-0.639 0.024,-0.612 0.024,-0.558L0.024,-0.079C0.024,-0.026 0.059,-0 0.128,-0L0.387,-0Z" style="fill-rule:nonzero;stroke:black;stroke-width:0.14px;"/>
                    </g>
                    <g transform="matrix(42.5841,0,0,42.5841,327.024,105)">
                        <path d="M0.493,-0L0.493,-0.267C0.493,-0.298 0.476,-0.315 0.441,-0.32C0.475,-0.324 0.492,-0.341 0.492,-0.372L0.492,-0.558C0.492,-0.612 0.458,-0.639 0.389,-0.639L0.026,-0.639L0.026,-0L0.234,-0L0.234,-0.256L0.283,-0.256C0.284,-0.256 0.285,-0.255 0.285,-0.254L0.285,-0L0.493,-0ZM0.285,-0.385C0.285,-0.384 0.284,-0.383 0.283,-0.383L0.234,-0.383L0.234,-0.479L0.283,-0.479C0.284,-0.479 0.285,-0.478 0.285,-0.477L0.285,-0.385Z" style="fill-rule:nonzero;stroke:black;stroke-width:0.14px;"/>
                    </g>
                </g>
                <g id="bg2" serif:id="bg" transform="matrix(0.965549,0,0,1.16029,27.3186,-17.9581)">
                    <g transform="matrix(1,0,0,1,-39,15)">
                        <path d="M200.427,45.474L191.541,45.474C188.603,45.474 187.113,42.367 187.113,40.11L187.113,24.184C187.113,24.141 187.07,24.098 187.027,24.098L184.941,24.098L184.941,35L176.083,35L176.083,7.789L191.541,7.789C194.48,7.789 195.928,8.939 195.928,11.238L195.928,19.159C195.928,20.479 195.204,21.203 193.756,21.373C195.246,21.586 195.97,22.31 195.97,23.63L195.97,36.618C195.97,36.661 196.013,38.703 196.055,38.703L200.427,38.703L200.427,37L209.285,37L209.285,38.746L220.314,38.746L220.314,45.474L209.285,45.474L209.285,57.355C209.285,57.398 209.327,57.44 209.37,57.44L211.414,57.44C211.457,57.44 211.499,57.398 211.499,57.355L211.499,47.22L220.314,47.22L220.314,60.847C220.314,63.104 218.824,64.211 215.885,64.211L204.856,64.211C201.918,64.211 200.427,63.104 200.427,60.847L200.427,45.474ZM218.029,35L218.029,11.238C218.029,8.939 216.538,7.789 213.6,7.789C210.704,7.789 208.49,8.385 206.999,9.535L206.999,7.789L198.142,7.789L198.142,35L206.999,35L206.999,14.687C206.999,14.645 207.042,14.602 207.085,14.602L209.086,14.602C209.129,14.602 209.171,14.645 209.171,14.687L209.171,35L218.029,35ZM187.113,18.605C187.113,18.648 187.07,18.69 187.027,18.69L184.941,18.69L184.941,14.602L187.027,14.602C187.07,14.602 187.113,18.605 187.113,18.605Z" style="fill-rule:nonzero;stroke:black;stroke-width:5.87px;"/>
                    </g>
                    <g transform="matrix(42.5841,0,0,42.5841,182.379,79.2113)">
                        <path d="M0.283,-0.161C0.283,-0.16 0.282,-0.159 0.281,-0.159L0.234,-0.159C0.233,-0.159 0.232,-0.16 0.232,-0.161L0.232,-0.477C0.232,-0.478 0.233,-0.479 0.234,-0.479L0.281,-0.479C0.282,-0.479 0.283,-0.478 0.283,-0.477L0.283,-0.161ZM0.387,-0C0.456,-0 0.491,-0.026 0.491,-0.079L0.491,-0.558C0.491,-0.612 0.456,-0.639 0.387,-0.639L0.128,-0.639C0.059,-0.639 0.024,-0.612 0.024,-0.558L0.024,-0.079C0.024,-0.026 0.059,-0 0.128,-0L0.387,-0Z" style="fill-rule:nonzero;stroke:black;stroke-width:0.14px;"/>
                    </g>
                </g>
            </g>
            <g id="fg">
                <g transform="matrix(0.965549,0,0,1.16029,-93.3751,-81.7739)">
                    <g transform="matrix(42.5841,0,0,42.5841,206,105)">
                        <path d="M0.751,0.199L0.751,0.04L0.234,0.04L0.234,-0.639L0.026,-0.639L0.026,0.199L0.751,0.199Z" style="stroke:rgb(235,235,235);stroke-width:0.03px;"/>
                    </g>
                    <g transform="matrix(42.5841,0,0,42.5841,206,105)">
                        <path d="M0.647,0C0.716,0 0.751,-0.026 0.751,-0.079L0.751,-0.199L0.543,-0.199L0.543,-0.161C0.543,-0.16 0.542,-0.159 0.541,-0.159L0.494,-0.159C0.493,-0.159 0.492,-0.16 0.492,-0.161L0.492,-0.239L0.751,-0.239L0.751,-0.558C0.751,-0.612 0.716,-0.639 0.647,-0.639L0.388,-0.639C0.319,-0.639 0.284,-0.612 0.284,-0.558L0.284,-0.079C0.284,-0.026 0.319,0 0.388,0L0.647,0Z" style="stroke:rgb(235,235,235);stroke-width:0.03px;"/>
                    </g>
                    <g transform="matrix(42.5841,0,0,42.5841,206,105)">
                        <path d="M0.543,-0.388L0.492,-0.388L0.492,-0.477C0.492,-0.478 0.493,-0.479 0.494,-0.479L0.541,-0.479C0.542,-0.479 0.543,-0.478 0.543,-0.477L0.543,-0.388Z" style="stroke:rgb(244,244,244);stroke-width:0.03px;"/>
                    </g>
                    <g transform="matrix(42.5841,0,0,42.5841,239.003,105)">
                        <path d="M0.491,0L0.491,-0.558C0.491,-0.612 0.456,-0.639 0.387,-0.639L0.128,-0.639C0.059,-0.639 0.024,-0.612 0.024,-0.558L0.024,-0.44L0.232,-0.44L0.232,-0.477C0.232,-0.478 0.233,-0.479 0.234,-0.479L0.281,-0.479C0.282,-0.479 0.283,-0.478 0.283,-0.477L0.283,-0.399L0.128,-0.399C0.059,-0.399 0.024,-0.373 0.024,-0.32L0.024,-0.079C0.024,-0.026 0.059,0 0.128,0L0.491,0Z" style="stroke:rgb(235,235,235);stroke-width:0.03px;"/>
                    </g>
                    <g transform="matrix(42.5841,0,0,42.5841,239.003,105)">
                        <path d="M0.283,-0.159L0.234,-0.159C0.233,-0.159 0.232,-0.16 0.232,-0.161L0.232,-0.257C0.232,-0.258 0.233,-0.259 0.234,-0.259L0.283,-0.259L0.283,-0.159Z" style="stroke:white;stroke-width:0.03px;"/>
                    </g>
                    <g transform="matrix(42.5841,0,0,42.5841,305.093,105)">
                        <path d="M0.387,0C0.456,0 0.491,-0.026 0.491,-0.079L0.491,-0.199L0.283,-0.199L0.283,-0.161C0.283,-0.16 0.282,-0.159 0.281,-0.159L0.234,-0.159C0.233,-0.159 0.232,-0.16 0.232,-0.161L0.232,-0.239L0.491,-0.239L0.491,-0.558C0.491,-0.612 0.456,-0.639 0.387,-0.639L0.128,-0.639C0.059,-0.639 0.024,-0.612 0.024,-0.558L0.024,-0.079C0.024,-0.026 0.059,0 0.128,0L0.387,0Z" style="stroke:rgb(235,235,235);stroke-width:0.03px;"/>
                    </g>
                    <g transform="matrix(42.5841,0,0,42.5841,305.093,105)">
                        <path d="M0.283,-0.388L0.232,-0.388L0.232,-0.477C0.232,-0.478 0.233,-0.479 0.234,-0.479L0.281,-0.479C0.282,-0.479 0.283,-0.478 0.283,-0.477L0.283,-0.388Z" style="stroke:white;stroke-width:0.03px;"/>
                    </g>
                    <g transform="matrix(42.5841,0,0,42.5841,327.024,105)">
                        <path d="M0.493,0L0.493,-0.267C0.493,-0.298 0.476,-0.315 0.441,-0.32C0.475,-0.324 0.492,-0.341 0.492,-0.372L0.492,-0.558C0.492,-0.612 0.458,-0.639 0.389,-0.639L0.026,-0.639L0.026,0L0.234,0L0.234,-0.256L0.283,-0.256C0.284,-0.256 0.285,-0.255 0.285,-0.254L0.285,0L0.493,0Z" style="stroke:rgb(235,235,235);stroke-width:0.03px;"/>
                    </g>
                    <g transform="matrix(42.5841,0,0,42.5841,327.024,105)">
                        <path d="M0.285,-0.385C0.285,-0.384 0.284,-0.383 0.283,-0.383L0.234,-0.383L0.234,-0.479L0.283,-0.479C0.284,-0.479 0.285,-0.478 0.285,-0.477L0.285,-0.385Z" style="stroke:white;stroke-width:0.03px;"/>
                    </g>
                </g>
                <g transform="matrix(0.965549,0,0,1.16029,27.3186,-17.9581)">
                    <g transform="matrix(1,0,0,1,-39,15)">
                        <path d="M200.427,45.474L191.541,45.474C188.603,45.474 187.113,42.367 187.113,40.11L187.113,24.184C187.113,24.141 187.07,24.098 187.027,24.098L184.941,24.098L184.941,35L176.083,35L176.083,7.789L191.541,7.789C194.48,7.789 195.928,8.939 195.928,11.238L195.928,19.159C195.928,20.479 195.204,21.203 193.756,21.373C195.246,21.586 195.97,22.31 195.97,23.63L195.97,36.618C195.97,36.661 196.013,38.703 196.055,38.703L200.427,38.703L200.427,37L209.285,37L209.285,38.746L220.314,38.746L220.314,45.474L209.285,45.474L209.285,57.355C209.285,57.398 209.327,57.44 209.37,57.44L211.414,57.44C211.457,57.44 211.499,57.398 211.499,57.355L211.499,47.22L220.314,47.22L220.314,60.847C220.314,63.104 218.824,64.211 215.885,64.211L204.856,64.211C201.918,64.211 200.427,63.104 200.427,60.847L200.427,45.474Z" style="stroke:rgb(235,235,235);stroke-width:1.17px;"/>
                    </g>
                    <g transform="matrix(1,0,0,1,-39,15)">
                        <path d="M218.029,35L218.029,11.238C218.029,8.939 216.538,7.789 213.6,7.789C210.704,7.789 208.49,8.385 206.999,9.535L206.999,7.789L198.142,7.789L198.142,35L206.999,35L206.999,14.687C206.999,14.645 207.042,14.602 207.085,14.602L209.086,14.602C209.129,14.602 209.171,14.645 209.171,14.687L209.171,35L218.029,35Z" style="stroke:rgb(235,235,235);stroke-width:1.17px;"/>
                    </g>
                    <g transform="matrix(1,0,0,1,-39,15)">
                        <path d="M187.027,14.602C187.07,14.602 187.07,18.69 187.027,18.69L184.941,18.69L184.941,14.602L187.027,14.602Z" style="stroke:white;stroke-width:1.17px;"/>
                    </g>
                    <g transform="matrix(42.5841,0,0,42.5841,182.379,79.2113)">
                        <path d="M0.283,-0.161C0.283,-0.16 0.282,-0.159 0.281,-0.159L0.234,-0.159C0.233,-0.159 0.232,-0.16 0.232,-0.161L0.232,-0.477C0.232,-0.478 0.233,-0.479 0.234,-0.479L0.281,-0.479C0.282,-0.479 0.283,-0.478 0.283,-0.477L0.283,-0.161ZM0.387,-0C0.456,-0 0.491,-0.026 0.491,-0.079L0.491,-0.558C0.491,-0.612 0.456,-0.639 0.387,-0.639L0.128,-0.639C0.059,-0.639 0.024,-0.612 0.024,-0.558L0.024,-0.079C0.024,-0.026 0.059,-0 0.128,-0L0.387,-0Z" style="fill-rule:nonzero;stroke:rgb(235,235,235);stroke-width:0.03px;"/>
                    </g>
                </g>
            </g>
        </g>
        <g transform="matrix(2.62893,0,0,2.07972,-274.456,0.533661)">
            <g id="bg3" serif:id="bg" transform="matrix(0.965549,0,0,1.16029,-7.4412,-6.35524)">
                <path d="M148.568,102L148.568,63.648L138.584,63.648L138.584,71.328L131.144,71.328C127.832,71.328 126.152,72.624 126.152,75.216L126.152,98.208C126.152,100.752 127.688,102 131.144,102L148.568,102ZM138.584,94.368L136.232,94.368C136.184,94.368 136.136,94.32 136.136,94.272L136.136,79.104C136.136,79.056 136.184,79.008 136.232,79.008L138.584,79.008L138.584,94.368Z" style="fill-rule:nonzero;stroke:black;stroke-width:5.87px;"/>
                <path d="M185.96,111.552L185.96,103.92L173.576,103.92C173.528,103.92 173.48,103.872 173.48,103.824L173.48,89.184C173.48,87.696 172.664,86.88 170.984,86.64C172.616,86.448 173.432,85.632 173.432,84.144L173.432,75.216C173.432,72.624 171.8,71.328 168.488,71.328L151.064,71.328L151.064,102L161.048,102L161.048,89.712L163.4,89.712C163.448,89.712 163.496,89.76 163.496,89.808L163.496,107.76C163.496,110.304 165.176,111.552 168.488,111.552L185.96,111.552ZM163.496,83.52C163.496,83.568 163.448,83.616 163.4,83.616L161.048,83.616L161.048,79.008L163.4,79.008C163.448,79.008 163.496,79.056 163.496,79.104L163.496,83.52ZM185.912,102L185.912,71.328L175.928,71.328L175.928,102L185.912,102Z" style="fill-rule:nonzero;stroke:black;stroke-width:5.87px;"/>
                <path d="M207.224,102L212.264,71.328L202.52,71.328L200.024,89.856L197.48,71.328L187.352,71.328L192.296,102L207.224,102Z" style="fill-rule:nonzero;stroke:black;stroke-width:5.87px;"/>
                <path d="M226.088,83.376L223.64,83.376L223.64,79.104C223.64,79.056 223.688,79.008 223.736,79.008L225.992,79.008C226.04,79.008 226.088,79.056 226.088,79.104L226.088,83.376ZM231.08,102C234.392,102 236.072,100.752 236.072,98.208L236.072,92.448L226.088,92.448L226.088,94.272C226.088,94.32 226.04,94.368 225.992,94.368L223.736,94.368C223.688,94.368 223.64,94.32 223.64,94.272L223.64,90.528L236.072,90.528L236.072,75.216C236.072,72.624 234.392,71.328 231.08,71.328L218.648,71.328C215.336,71.328 213.656,72.624 213.656,75.216L213.656,98.208C213.656,100.752 215.336,102 218.648,102L231.08,102Z" style="fill-rule:nonzero;stroke:black;stroke-width:5.87px;"/>
                <path d="M260.888,102L260.888,89.184C260.888,87.696 260.072,86.88 258.392,86.64C260.024,86.448 260.84,85.632 260.84,84.144L260.84,75.216C260.84,72.624 259.208,71.328 255.896,71.328L238.472,71.328L238.472,102L248.456,102L248.456,89.712L250.808,89.712C250.856,89.712 250.904,89.76 250.904,89.808L250.904,102L260.888,102ZM250.904,83.52C250.904,83.568 250.856,83.616 250.808,83.616L248.456,83.616L248.456,79.008L250.808,79.008C250.856,79.008 250.904,79.056 250.904,79.104L250.904,83.52Z" style="fill-rule:nonzero;stroke:black;stroke-width:5.87px;"/>
            </g>
            <g id="fg1" serif:id="fg" transform="matrix(0.965549,0,0,1.16029,-7.4412,-6.35524)">
                <path d="M148.568,102L148.568,63.648L138.584,63.648L138.584,71.328L131.144,71.328C127.832,71.328 126.152,72.624 126.152,75.216L126.152,98.208C126.152,100.752 127.688,102 131.144,102L148.568,102ZM138.584,94.368L136.232,94.368C136.184,94.368 136.136,94.32 136.136,94.272L136.136,79.104C136.136,79.056 136.184,79.008 136.232,79.008L138.584,79.008L138.584,94.368Z" style="fill-rule:nonzero;stroke:rgb(235,235,235);stroke-width:1.17px;"/>
                <path d="M185.96,111.552L185.96,103.92L173.576,103.92C173.528,103.92 173.48,103.872 173.48,103.824L173.48,89.184C173.48,87.696 172.664,86.88 170.984,86.64C172.616,86.448 173.432,85.632 173.432,84.144L173.432,75.216C173.432,72.624 171.8,71.328 168.488,71.328L151.064,71.328L151.064,102L161.048,102L161.048,89.712L163.4,89.712C163.448,89.712 163.496,89.76 163.496,89.808L163.496,107.76C163.496,110.304 165.176,111.552 168.488,111.552L185.96,111.552ZM163.496,83.52C163.496,83.568 163.448,83.616 163.4,83.616L161.048,83.616L161.048,79.008L163.4,79.008C163.448,79.008 163.496,79.056 163.496,79.104L163.496,83.52ZM185.912,102L185.912,71.328L175.928,71.328L175.928,102L185.912,102Z" style="fill-rule:nonzero;stroke:rgb(235,235,235);stroke-width:1.17px;"/>
                <path d="M207.224,102L212.264,71.328L202.52,71.328L200.024,89.856L197.48,71.328L187.352,71.328L192.296,102L207.224,102Z" style="fill-rule:nonzero;stroke:rgb(235,235,235);stroke-width:1.17px;"/>
                <path d="M226.088,83.376L223.64,83.376L223.64,79.104C223.64,79.056 223.688,79.008 223.736,79.008L225.992,79.008C226.04,79.008 226.088,79.056 226.088,79.104L226.088,83.376ZM231.08,102C234.392,102 236.072,100.752 236.072,98.208L236.072,92.448L226.088,92.448L226.088,94.272C226.088,94.32 226.04,94.368 225.992,94.368L223.736,94.368C223.688,94.368 223.64,94.32 223.64,94.272L223.64,90.528L236.072,90.528L236.072,75.216C236.072,72.624 234.392,71.328 231.08,71.328L218.648,71.328C215.336,71.328 213.656,72.624 213.656,75.216L213.656,98.208C213.656,100.752 215.336,102 218.648,102L231.08,102Z" style="fill-rule:nonzero;stroke:rgb(235,235,235);stroke-width:1.17px;"/>
                <path d="M260.888,102L260.888,89.184C260.888,87.696 260.072,86.88 258.392,86.64C260.024,86.448 260.84,85.632 260.84,84.144L260.84,75.216C260.84,72.624 259.208,71.328 255.896,71.328L238.472,71.328L238.472,102L248.456,102L248.456,89.712L250.808,89.712C250.856,89.712 250.904,89.76 250.904,89.808L250.904,102L260.888,102ZM250.904,83.52C250.904,83.568 250.856,83.616 250.808,83.616L248.456,83.616L248.456,79.008L250.808,79.008C250.856,79.008 250.904,79.056 250.904,79.104L250.904,83.52Z" style="fill-rule:nonzero;stroke:rgb(235,235,235);stroke-width:1.17px;"/>
            </g>
        </g>
        <g transform="matrix(0.703342,0,0,0.668625,7.40378,-14.0041)">
            <g transform="matrix(1,0,0,1,227.952,-12.528)">
                <path d="M64.539,455.617C61.914,453.32 59.746,451.234 58.035,449.359C56.324,447.484 54.906,445.68 53.781,443.945L65.734,432.695C66.813,434.148 68.172,435.777 69.813,437.582C71.453,439.387 73.68,441.695 76.492,444.508L64.539,455.617Z" style="fill-rule:nonzero;stroke:black;stroke-width:7.41px;"/>
                <path d="M106.164,385.586L120.578,395.57L114.25,405.062L102.578,397.258L102.578,438.18L113.617,444.086L119.664,439.445L121.563,441.766C119.547,443.266 117.133,445.164 114.32,447.461C111.508,449.758 108.297,452.477 104.688,455.617C101.641,452.805 98.488,450.566 95.23,448.902C91.973,447.238 88.656,446.148 85.281,445.633C86.734,444.555 87.766,443.195 88.375,441.555C88.984,439.914 89.289,437.687 89.289,434.875L89.289,397.398C92.664,395.945 95.758,394.234 98.57,392.266C101.383,390.297 103.914,388.07 106.164,385.586Z" style="fill-rule:nonzero;stroke:black;stroke-width:7.41px;"/>
                <path d="M150.813,455.758C147.203,452.898 143.289,450.461 139.07,448.445C134.852,446.43 130.469,444.93 125.922,443.945C127.422,442.773 128.465,441.367 129.051,439.727C129.637,438.086 129.93,435.648 129.93,432.414L129.93,397.398C133.914,396.367 137.5,394.891 140.688,392.969C143.875,391.047 146.828,388.586 149.547,385.586C153.766,388.68 157.691,391.117 161.324,392.898C164.957,394.68 168.227,395.758 171.133,396.133L171.133,444.508C166.961,445.773 163.188,447.344 159.813,449.219C156.438,451.094 153.438,453.273 150.813,455.758ZM143.219,437.406C145.984,438.625 148.586,439.727 151.023,440.711C153.461,441.695 155.805,442.609 158.055,443.453L158.055,403.867C155.805,403.07 153.461,402.133 151.023,401.055C148.586,399.977 145.984,398.758 143.219,397.398L143.219,437.406Z" style="fill-rule:nonzero;stroke:black;stroke-width:7.41px;"/>
                <path d="M193.844,455.617C191.219,453.32 189.051,451.234 187.34,449.359C185.629,447.484 184.211,445.68 183.086,443.945L195.039,432.695C196.117,434.148 197.477,435.777 199.117,437.582C200.758,439.387 202.984,441.695 205.797,444.508L193.844,455.617Z" style="fill-rule:nonzero;stroke:black;stroke-width:7.41px;"/>
                <path d="M214.164,427.633L234.203,406.75L222.953,395.711L215.43,400.984L213.461,398.383L230.828,385.727L241.375,395.078C242.219,395.875 243.086,396.473 243.977,396.871C244.867,397.27 245.805,397.492 246.789,397.539L246.859,398.383L230.195,415.68C235.914,415.914 240.355,417.402 243.52,420.145C246.684,422.887 248.266,426.625 248.266,431.359C248.266,435.391 247.047,439.164 244.609,442.68C242.172,446.195 238.75,449.148 234.344,451.539C233.453,452.008 232.188,452.664 230.547,453.508C223.563,457.164 220.07,460.68 220.07,464.055C220.07,465.602 220.563,466.926 221.547,468.027C222.531,469.129 223.656,469.68 224.922,469.68C225.484,469.68 226.246,469.562 227.207,469.328C228.168,469.094 228.859,468.977 229.281,468.977C229.984,468.977 230.547,469.164 230.969,469.539C231.391,469.914 231.602,470.406 231.602,471.016C231.602,471.766 231.156,472.457 230.266,473.09C229.375,473.723 228.32,474.039 227.102,474.039C224.617,474.039 222.367,473.008 220.352,470.945C218.336,468.883 217.328,466.539 217.328,463.914C217.328,462.32 217.68,460.75 218.383,459.203C219.086,457.656 220.117,456.203 221.477,454.844C222.367,454 223.703,452.781 225.484,451.187C231.859,445.469 235.047,440.453 235.047,436.141C235.047,432.859 234.121,430.316 232.27,428.512C230.418,426.707 227.781,425.805 224.359,425.805C223.516,425.805 222.309,425.945 220.738,426.227C219.168,426.508 216.977,426.977 214.164,427.633Z" style="fill-rule:nonzero;stroke:black;stroke-width:7.41px;"/>
                <path d="M285.461,439.445L267.602,455.617L266.266,455.617C262.75,452.148 260.242,448.914 258.742,445.914C257.242,442.914 256.492,439.656 256.492,436.141C256.492,431.734 257.605,427.34 259.832,422.957C262.059,418.574 265.398,414.227 269.852,409.914L263.313,391.352C263.547,391.398 263.852,391.434 264.227,391.457C264.602,391.48 265.141,391.492 265.844,391.492C268.75,391.492 271.34,390.988 273.613,389.98C275.887,388.973 277.75,387.508 279.203,385.586L298.539,392.687L302.406,389.664L303.32,390.508C301.727,393.133 300.566,395.312 299.84,397.047C299.113,398.781 298.68,400.328 298.539,401.687L298.539,439.586C298.727,440.57 299.102,441.426 299.664,442.152C300.227,442.879 300.977,443.453 301.914,443.875L304.445,442.047L306.484,444.227L293.898,455.617C290.992,453.883 288.859,451.762 287.5,449.254C286.141,446.746 285.461,443.664 285.461,440.008L285.461,439.445ZM285.461,435.156L285.461,419.617L272.031,412.234C270.719,414.391 269.746,416.594 269.113,418.844C268.48,421.094 268.164,423.414 268.164,425.805C268.164,429.508 268.797,432.906 270.063,436C271.328,439.094 273.227,441.836 275.758,444.227L285.461,435.156ZM272.313,409.633L285.461,416.875L285.461,401.125L266.688,393.953L272.313,409.633Z" style="fill-rule:nonzero;stroke:black;stroke-width:7.41px;"/>
            </g>
            <g transform="matrix(1,0,0,1,227.952,-12.528)">
                <path d="M64.539,455.617C61.914,453.32 59.746,451.234 58.035,449.359C56.324,447.484 54.906,445.68 53.781,443.945L65.734,432.695C66.813,434.148 68.172,435.777 69.813,437.582C71.453,439.387 73.68,441.695 76.492,444.508L64.539,455.617Z" style="fill-rule:nonzero;stroke:rgb(249,249,249);stroke-width:1.48px;"/>
                <path d="M106.164,385.586L120.578,395.57L114.25,405.062L102.578,397.258L102.578,438.18L113.617,444.086L119.664,439.445L121.563,441.766C119.547,443.266 117.133,445.164 114.32,447.461C111.508,449.758 108.297,452.477 104.688,455.617C101.641,452.805 98.488,450.566 95.23,448.902C91.973,447.238 88.656,446.148 85.281,445.633C86.734,444.555 87.766,443.195 88.375,441.555C88.984,439.914 89.289,437.687 89.289,434.875L89.289,397.398C92.664,395.945 95.758,394.234 98.57,392.266C101.383,390.297 103.914,388.07 106.164,385.586Z" style="fill-rule:nonzero;stroke:rgb(249,249,249);stroke-width:1.48px;"/>
                <path d="M150.813,455.758C147.203,452.898 143.289,450.461 139.07,448.445C134.852,446.43 130.469,444.93 125.922,443.945C127.422,442.773 128.465,441.367 129.051,439.727C129.637,438.086 129.93,435.648 129.93,432.414L129.93,397.398C133.914,396.367 137.5,394.891 140.688,392.969C143.875,391.047 146.828,388.586 149.547,385.586C153.766,388.68 157.691,391.117 161.324,392.898C164.957,394.68 168.227,395.758 171.133,396.133L171.133,444.508C166.961,445.773 163.188,447.344 159.813,449.219C156.438,451.094 153.438,453.273 150.813,455.758ZM143.219,437.406C145.984,438.625 148.586,439.727 151.023,440.711C153.461,441.695 155.805,442.609 158.055,443.453L158.055,403.867C155.805,403.07 153.461,402.133 151.023,401.055C148.586,399.977 145.984,398.758 143.219,397.398L143.219,437.406Z" style="fill-rule:nonzero;stroke:rgb(249,249,249);stroke-width:1.48px;"/>
                <path d="M193.844,455.617C191.219,453.32 189.051,451.234 187.34,449.359C185.629,447.484 184.211,445.68 183.086,443.945L195.039,432.695C196.117,434.148 197.477,435.777 199.117,437.582C200.758,439.387 202.984,441.695 205.797,444.508L193.844,455.617Z" style="fill-rule:nonzero;stroke:rgb(249,249,249);stroke-width:1.48px;"/>
                <path d="M214.164,427.633L234.203,406.75L222.953,395.711L215.43,400.984L213.461,398.383L230.828,385.727L241.375,395.078C242.219,395.875 243.086,396.473 243.977,396.871C244.867,397.27 245.805,397.492 246.789,397.539L246.859,398.383L230.195,415.68C235.914,415.914 240.355,417.402 243.52,420.145C246.684,422.887 248.266,426.625 248.266,431.359C248.266,435.391 247.047,439.164 244.609,442.68C242.172,446.195 238.75,449.148 234.344,451.539C233.453,452.008 232.188,452.664 230.547,453.508C223.563,457.164 220.07,460.68 220.07,464.055C220.07,465.602 220.563,466.926 221.547,468.027C222.531,469.129 223.656,469.68 224.922,469.68C225.484,469.68 226.246,469.562 227.207,469.328C228.168,469.094 228.859,468.977 229.281,468.977C229.984,468.977 230.547,469.164 230.969,469.539C231.391,469.914 231.602,470.406 231.602,471.016C231.602,471.766 231.156,472.457 230.266,473.09C229.375,473.723 228.32,474.039 227.102,474.039C224.617,474.039 222.367,473.008 220.352,470.945C218.336,468.883 217.328,466.539 217.328,463.914C217.328,462.32 217.68,460.75 218.383,459.203C219.086,457.656 220.117,456.203 221.477,454.844C222.367,454 223.703,452.781 225.484,451.187C231.859,445.469 235.047,440.453 235.047,436.141C235.047,432.859 234.121,430.316 232.27,428.512C230.418,426.707 227.781,425.805 224.359,425.805C223.516,425.805 222.309,425.945 220.738,426.227C219.168,426.508 216.977,426.977 214.164,427.633Z" style="fill-rule:nonzero;stroke:rgb(249,249,249);stroke-width:1.48px;"/>
                <path d="M285.461,439.445L267.602,455.617L266.266,455.617C262.75,452.148 260.242,448.914 258.742,445.914C257.242,442.914 256.492,439.656 256.492,436.141C256.492,431.734 257.605,427.34 259.832,422.957C262.059,418.574 265.398,414.227 269.852,409.914L263.313,391.352C263.547,391.398 263.852,391.434 264.227,391.457C264.602,391.48 265.141,391.492 265.844,391.492C268.75,391.492 271.34,390.988 273.613,389.98C275.887,388.973 277.75,387.508 279.203,385.586L298.539,392.687L302.406,389.664L303.32,390.508C301.727,393.133 300.566,395.312 299.84,397.047C299.113,398.781 298.68,400.328 298.539,401.687L298.539,439.586C298.727,440.57 299.102,441.426 299.664,442.152C300.227,442.879 300.977,443.453 301.914,443.875L304.445,442.047L306.484,444.227L293.898,455.617C290.992,453.883 288.859,451.762 287.5,449.254C286.141,446.746 285.461,443.664 285.461,440.008L285.461,439.445ZM285.461,435.156L285.461,419.617L272.031,412.234C270.719,414.391 269.746,416.594 269.113,418.844C268.48,421.094 268.164,423.414 268.164,425.805C268.164,429.508 268.797,432.906 270.063,436C271.328,439.094 273.227,441.836 275.758,444.227L285.461,435.156ZM272.313,409.633L285.461,416.875L285.461,401.125L266.688,393.953L272.313,409.633Z" style="fill-rule:nonzero;stroke:rgb(249,249,249);stroke-width:1.48px;"/>
            </g>
        </g>
    </g>
</svg>
