<?xml version="1.0" encoding="UTF-8" standalone="no"?>
<!DOCTYPE svg PUBLIC "-//W3C//DTD SVG 1.1//EN" "http://www.w3.org/Graphics/SVG/1.1/DTD/svg11.dtd">
<svg width="100%" height="100%" viewBox="0 0 502 496" version="1.1" xmlns="http://www.w3.org/2000/svg" xmlns:xlink="http://www.w3.org/1999/xlink" xml:space="preserve" xmlns:serif="http://www.serif.com/" style="fill-rule:evenodd;clip-rule:evenodd;stroke-linejoin:round;stroke-miterlimit:2;">
    <g transform="matrix(0.943198,0,0,0.814778,-125.457,2.55414)">
        <path d="M604.9,50.5L194.3,50.5C187.9,50.5 182.8,55.7 182.8,62L182.8,433.2C182.8,439.6 188,444.7 194.3,444.7L211.6,444.7L211.6,427.4C211.6,424.7 213.7,422.6 216.4,422.6C219.1,422.6 221.2,424.7 221.2,427.4L221.2,466L233.7,466L233.7,475.6L212.6,475.6C206.2,475.6 201.1,480.8 201.1,487.1L201.1,490C201.1,496.4 206.3,501.5 212.6,501.5L233.7,501.5L233.7,532.6C233.7,543.7 238.9,552.6 245.2,552.6L314.1,552.6C314.1,552.6 311.294,501.715 313.994,501.715L487.213,501.9C489.913,501.9 487.1,552.6 487.1,552.6L557.8,552.6C564.2,552.6 569.3,543.7 569.3,532.6L569.3,501.6L586.6,501.6C593,501.6 598.1,496.4 598.1,490.1L598.1,487.1C598.1,480.7 592.9,475.6 586.6,475.6L569.3,475.6L569.3,466L579.9,466L579.9,444.9L580.2,444.9L580.2,427.6C580.2,424.9 582.3,422.8 585,422.8C587.7,422.8 589.8,424.9 589.8,427.6L589.8,444.9L604.9,444.9C611.3,444.9 616.4,439.7 616.4,433.4L616.4,62.1C616.5,55.7 611.4,50.5 604.9,50.5ZM238.7,329.1C230.5,329.1 223.9,323.7 223.9,317.1L223.9,308.5C223.9,301.8 230.5,296.5 238.7,296.5C238.7,296.5 256.4,308.2 263.1,317.9C266.2,322.4 264.3,329.3 261.7,329.3L238.7,329.1ZM303,406.4C303,412.8 297.8,417.9 291.5,417.9L255.9,417.9C249.5,417.9 244.4,412.7 244.4,406.4L244.4,390C244.4,383.6 249.6,378.5 255.9,378.5L291.5,378.5C297.9,378.5 303,383.7 303,390L303,406.4ZM462.7,449.6L336.6,449.6L336.6,441.9L462.6,441.9L462.7,449.6ZM462.7,417.9L336.6,417.9L336.6,410.2L462.6,410.2L462.7,417.9ZM295.3,304.4C276.1,304.4 293.4,242.9 306.4,239.9L490.6,239.9C506,239.9 519.1,304.4 512.7,304.4L295.3,304.4ZM554,406.4C554,412.8 548.8,417.9 542.5,417.9L506.9,417.9C500.5,417.9 495.4,412.7 495.4,406.4L495.4,390C495.4,383.6 500.6,378.5 506.9,378.5L542.5,378.5C548.9,378.5 554,383.7 554,390L554,406.4ZM574.4,317C574.4,323.7 567.8,329 559.6,329L536.6,329C534,329 532.1,322.2 535.2,317.6C541.9,307.9 559.6,296.2 559.6,296.2C567.8,296.2 574.4,301.6 574.4,308.2L574.4,317Z" style="fill:white;fill-rule:nonzero;"/>
    </g>
</svg>
