<?xml version="1.0" encoding="UTF-8" standalone="no"?>
<!DOCTYPE svg PUBLIC "-//W3C//DTD SVG 1.1//EN" "http://www.w3.org/Graphics/SVG/1.1/DTD/svg11.dtd">
<svg width="100%" height="100%" viewBox="0 0 551 70" version="1.1" xmlns="http://www.w3.org/2000/svg" xmlns:xlink="http://www.w3.org/1999/xlink" xml:space="preserve" xmlns:serif="http://www.serif.com/" style="fill-rule:evenodd;clip-rule:evenodd;stroke-linejoin:round;stroke-miterlimit:2;">
    <g id="logo_icon" transform="matrix(0.999393,0,0,0.718431,8.7506,-16.4932)">
        <g transform="matrix(0.127112,0,0,0.152748,-22.0263,27.3532)">
            <path d="M604.9,50.5L194.3,50.5C187.9,50.5 182.8,55.7 182.8,62L182.8,433.2C182.8,439.6 188,444.7 194.3,444.7L211.6,444.7L211.6,427.4C211.6,424.7 213.7,422.6 216.4,422.6C219.1,422.6 221.2,424.7 221.2,427.4L221.2,466L233.7,466L233.7,475.6L212.6,475.6C206.2,475.6 201.1,480.8 201.1,487.1L201.1,490C201.1,496.4 206.3,501.5 212.6,501.5L233.7,501.5L233.7,532.6C233.7,543.7 238.9,552.6 245.2,552.6L314.1,552.6L314.1,511.7L311.4,511.7C308.7,511.7 306.5,509.5 306.5,506.8C306.5,504.1 308.7,501.9 311.4,501.9L489,501.9C491.7,501.9 493.9,504.1 493.9,506.8C493.9,509.5 491.7,511.7 489,511.7L487.1,511.7L487.1,552.6L557.8,552.6C564.2,552.6 569.3,543.7 569.3,532.6L569.3,501.6L586.6,501.6C593,501.6 598.1,496.4 598.1,490.1L598.1,487.1C598.1,480.7 592.9,475.6 586.6,475.6L569.3,475.6L569.3,466L579.9,466L579.9,444.9L580.2,444.9L580.2,427.6C580.2,424.9 582.3,422.8 585,422.8C587.7,422.8 589.8,424.9 589.8,427.6L589.8,444.9L604.9,444.9C611.3,444.9 616.4,439.7 616.4,433.4L616.4,62.1C616.5,55.7 611.4,50.5 604.9,50.5ZM238.7,329.1C230.5,329.1 223.9,323.7 223.9,317.1L223.9,308.5C223.9,301.8 230.5,296.5 238.7,296.5C238.7,296.5 256.4,308.2 263.1,317.9C266.2,322.4 264.3,329.3 261.7,329.3L238.7,329.1ZM303,406.4C303,412.8 297.8,417.9 291.5,417.9L255.9,417.9C249.5,417.9 244.4,412.7 244.4,406.4L244.4,390C244.4,383.6 249.6,378.5 255.9,378.5L291.5,378.5C297.9,378.5 303,383.7 303,390L303,406.4ZM462.7,449.6L336.6,449.6L336.6,441.9L462.6,441.9L462.7,449.6ZM462.7,417.9L336.6,417.9L336.6,410.2L462.6,410.2L462.7,417.9ZM295.3,304.4C276.1,304.4 293.4,242.9 306.4,239.9L490.6,239.9C506,239.9 519.1,304.4 512.7,304.4L295.3,304.4ZM554,406.4C554,412.8 548.8,417.9 542.5,417.9L506.9,417.9C500.5,417.9 495.4,412.7 495.4,406.4L495.4,390C495.4,383.6 500.6,378.5 506.9,378.5L542.5,378.5C548.9,378.5 554,383.7 554,390L554,406.4ZM574.4,317C574.4,323.7 567.8,329 559.6,329L536.6,329C534,329 532.1,322.2 535.2,317.6C541.9,307.9 559.6,296.2 559.6,296.2C567.8,296.2 574.4,301.6 574.4,308.2L574.4,317Z" style="fill-rule:nonzero;stroke:rgb(220,168,26);stroke-width:58.97px;"/>
        </g>
        <g transform="matrix(0.127112,0,0,0.152748,-22.0263,27.3532)">
            <path d="M604.9,50.5L194.3,50.5C187.9,50.5 182.8,55.7 182.8,62L182.8,433.2C182.8,439.6 188,444.7 194.3,444.7L211.6,444.7L211.6,427.4C211.6,424.7 213.7,422.6 216.4,422.6C219.1,422.6 221.2,424.7 221.2,427.4L221.2,466L233.7,466L233.7,475.6L212.6,475.6C206.2,475.6 201.1,480.8 201.1,487.1L201.1,490C201.1,496.4 206.3,501.5 212.6,501.5L233.7,501.5L233.7,532.6C233.7,543.7 238.9,552.6 245.2,552.6L314.1,552.6L314.1,511.7L311.4,511.7C308.7,511.7 306.5,509.5 306.5,506.8C306.5,504.1 308.7,501.9 311.4,501.9L489,501.9C491.7,501.9 493.9,504.1 493.9,506.8C493.9,509.5 491.7,511.7 489,511.7L487.1,511.7L487.1,552.6L557.8,552.6C564.2,552.6 569.3,543.7 569.3,532.6L569.3,501.6L586.6,501.6C593,501.6 598.1,496.4 598.1,490.1L598.1,487.1C598.1,480.7 592.9,475.6 586.6,475.6L569.3,475.6L569.3,466L579.9,466L579.9,444.9L580.2,444.9L580.2,427.6C580.2,424.9 582.3,422.8 585,422.8C587.7,422.8 589.8,424.9 589.8,427.6L589.8,444.9L604.9,444.9C611.3,444.9 616.4,439.7 616.4,433.4L616.4,62.1C616.5,55.7 611.4,50.5 604.9,50.5ZM238.7,329.1C230.5,329.1 223.9,323.7 223.9,317.1L223.9,308.5C223.9,301.8 230.5,296.5 238.7,296.5C238.7,296.5 256.4,308.2 263.1,317.9C266.2,322.4 264.3,329.3 261.7,329.3L238.7,329.1ZM303,406.4C303,412.8 297.8,417.9 291.5,417.9L255.9,417.9C249.5,417.9 244.4,412.7 244.4,406.4L244.4,390C244.4,383.6 249.6,378.5 255.9,378.5L291.5,378.5C297.9,378.5 303,383.7 303,390L303,406.4ZM462.7,449.6L336.6,449.6L336.6,441.9L462.6,441.9L462.7,449.6ZM462.7,417.9L336.6,417.9L336.6,410.2L462.6,410.2L462.7,417.9ZM295.3,304.4C276.1,304.4 293.4,242.9 306.4,239.9L490.6,239.9C506,239.9 519.1,304.4 512.7,304.4L295.3,304.4ZM554,406.4C554,412.8 548.8,417.9 542.5,417.9L506.9,417.9C500.5,417.9 495.4,412.7 495.4,406.4L495.4,390C495.4,383.6 500.6,378.5 506.9,378.5L542.5,378.5C548.9,378.5 554,383.7 554,390L554,406.4ZM574.4,317C574.4,323.7 567.8,329 559.6,329L536.6,329C534,329 532.1,322.2 535.2,317.6C541.9,307.9 559.6,296.2 559.6,296.2C567.8,296.2 574.4,301.6 574.4,308.2L574.4,317Z" style="fill-rule:nonzero;stroke:black;stroke-width:42.12px;"/>
        </g>
        <g transform="matrix(0.127112,0,0,0.152748,-22.0263,27.3532)">
            <path d="M604.9,50.5L194.3,50.5C187.9,50.5 182.8,55.7 182.8,62L182.8,433.2C182.8,439.6 188,444.7 194.3,444.7L211.6,444.7L211.6,427.4C211.6,424.7 213.7,422.6 216.4,422.6C219.1,422.6 221.2,424.7 221.2,427.4L221.2,466L233.7,466L233.7,475.6L212.6,475.6C206.2,475.6 201.1,480.8 201.1,487.1L201.1,490C201.1,496.4 206.3,501.5 212.6,501.5L233.7,501.5L233.7,532.6C233.7,543.7 238.9,552.6 245.2,552.6L314.1,552.6L314.1,511.7L311.4,511.7C308.7,511.7 306.5,509.5 306.5,506.8C306.5,504.1 308.7,501.9 311.4,501.9L489,501.9C491.7,501.9 493.9,504.1 493.9,506.8C493.9,509.5 491.7,511.7 489,511.7L487.1,511.7L487.1,552.6L557.8,552.6C564.2,552.6 569.3,543.7 569.3,532.6L569.3,501.6L586.6,501.6C593,501.6 598.1,496.4 598.1,490.1L598.1,487.1C598.1,480.7 592.9,475.6 586.6,475.6L569.3,475.6L569.3,466L579.9,466L579.9,444.9L580.2,444.9L580.2,427.6C580.2,424.9 582.3,422.8 585,422.8C587.7,422.8 589.8,424.9 589.8,427.6L589.8,444.9L604.9,444.9C611.3,444.9 616.4,439.7 616.4,433.4L616.4,62.1C616.5,55.7 611.4,50.5 604.9,50.5ZM238.7,329.1C230.5,329.1 223.9,323.7 223.9,317.1L223.9,308.5C223.9,301.8 230.5,296.5 238.7,296.5C238.7,296.5 256.4,308.2 263.1,317.9C266.2,322.4 264.3,329.3 261.7,329.3L238.7,329.1ZM303,406.4C303,412.8 297.8,417.9 291.5,417.9L255.9,417.9C249.5,417.9 244.4,412.7 244.4,406.4L244.4,390C244.4,383.6 249.6,378.5 255.9,378.5L291.5,378.5C297.9,378.5 303,383.7 303,390L303,406.4ZM462.7,449.6L336.6,449.6L336.6,441.9L462.6,441.9L462.7,449.6ZM462.7,417.9L336.6,417.9L336.6,410.2L462.6,410.2L462.7,417.9ZM295.3,304.4C276.1,304.4 293.4,242.9 306.4,239.9L490.6,239.9C506,239.9 519.1,304.4 512.7,304.4L295.3,304.4ZM554,406.4C554,412.8 548.8,417.9 542.5,417.9L506.9,417.9C500.5,417.9 495.4,412.7 495.4,406.4L495.4,390C495.4,383.6 500.6,378.5 506.9,378.5L542.5,378.5C548.9,378.5 554,383.7 554,390L554,406.4ZM574.4,317C574.4,323.7 567.8,329 559.6,329L536.6,329C534,329 532.1,322.2 535.2,317.6C541.9,307.9 559.6,296.2 559.6,296.2C567.8,296.2 574.4,301.6 574.4,308.2L574.4,317Z" style="fill-rule:nonzero;stroke:white;stroke-width:8.42px;"/>
        </g>
    </g>
    <g>
        <g transform="matrix(1,0,0,1,-126,-55)">
            <path d="M254.064,117.736L254.064,107.56L220.976,107.56L220.976,64.104L207.664,64.104L207.664,117.736L254.064,117.736ZM240.752,80.168L237.488,80.168L237.488,74.472C237.488,74.408 237.552,74.344 237.616,74.344L240.624,74.344C240.688,74.344 240.752,74.408 240.752,74.472L240.752,80.168ZM247.408,105C251.824,105 254.064,103.336 254.064,99.944L254.064,92.264L240.752,92.264L240.752,94.696C240.752,94.76 240.688,94.824 240.624,94.824L237.616,94.824C237.552,94.824 237.488,94.76 237.488,94.696L237.488,89.704L254.064,89.704L254.064,69.288C254.064,65.832 251.824,64.104 247.408,64.104L230.832,64.104C226.416,64.104 224.176,65.832 224.176,69.288L224.176,99.944C224.176,103.336 226.416,105 230.832,105L247.408,105Z" style="fill-rule:nonzero;stroke:rgb(220,168,26);stroke-width:7px;"/>
            <path d="M273.712,94.824L270.576,94.824C270.512,94.824 270.448,94.76 270.448,94.696L270.448,88.552C270.448,88.488 270.512,88.424 270.576,88.424L273.712,88.424L273.712,94.824ZM287.024,105L287.024,69.288C287.024,65.832 284.784,64.104 280.368,64.104L263.792,64.104C259.376,64.104 257.136,65.832 257.136,69.288L257.136,76.84L270.448,76.84L270.448,74.472C270.448,74.408 270.512,74.344 270.576,74.344L273.584,74.344C273.648,74.344 273.712,74.408 273.712,74.472L273.712,79.464L263.792,79.464C259.376,79.464 257.136,81.128 257.136,84.52L257.136,99.944C257.136,103.336 259.376,105 263.792,105L287.024,105Z" style="fill-rule:nonzero;stroke:rgb(220,168,26);stroke-width:7px;"/>
            <path d="M353.328,117.736L353.328,107.56L320.304,107.56C320.24,107.56 320.176,107.496 320.176,107.432L320.176,87.912C320.176,85.928 319.088,84.84 316.848,84.52C319.024,84.264 320.112,83.176 320.112,81.192L320.112,69.288C320.112,65.832 317.936,64.104 313.52,64.104L290.288,64.104L290.288,105L303.6,105L303.6,88.616L306.736,88.616C306.8,88.616 306.864,88.68 306.864,88.744L306.864,112.68C306.864,116.072 309.104,117.736 313.52,117.736L353.328,117.736ZM306.864,80.36C306.864,80.424 306.8,80.488 306.736,80.488L303.6,80.488L303.6,74.344L306.736,74.344C306.8,74.344 306.864,74.408 306.864,74.472L306.864,80.36ZM353.328,105L353.328,69.288C353.328,65.832 351.088,64.104 346.672,64.104C342.32,64.104 338.992,65 336.752,66.728L336.752,64.104L323.44,64.104L323.44,105L336.752,105L336.752,74.472C336.752,74.408 336.816,74.344 336.88,74.344L339.888,74.344C339.952,74.344 340.016,74.408 340.016,74.472L340.016,105L353.328,105Z" style="fill-rule:nonzero;stroke:rgb(220,168,26);stroke-width:7px;"/>
            <path d="M373.04,80.168L369.776,80.168L369.776,74.472C369.776,74.408 369.84,74.344 369.904,74.344L372.912,74.344C372.976,74.344 373.04,74.408 373.04,74.472L373.04,80.168ZM379.696,105C384.112,105 386.352,103.336 386.352,99.944L386.352,92.264L373.04,92.264L373.04,94.696C373.04,94.76 372.976,94.824 372.912,94.824L369.904,94.824C369.84,94.824 369.776,94.76 369.776,94.696L369.776,89.704L386.352,89.704L386.352,69.288C386.352,65.832 384.112,64.104 379.696,64.104L363.12,64.104C358.704,64.104 356.464,65.832 356.464,69.288L356.464,99.944C356.464,103.336 358.704,105 363.12,105L379.696,105Z" style="fill-rule:nonzero;stroke:rgb(220,168,26);stroke-width:7px;"/>
            <path d="M454.576,117.736L454.576,107.56L419.568,107.56C419.504,107.56 419.44,107.496 419.44,107.432L419.44,87.912C419.44,85.928 418.352,84.84 416.112,84.52C418.288,84.264 419.376,83.176 419.376,81.192L419.376,69.288C419.376,65.832 417.2,64.104 412.784,64.104L389.552,64.104L389.552,105L402.864,105L402.864,88.616L406,88.616C406.064,88.616 406.128,88.68 406.128,88.744L406.128,112.68C406.128,116.072 408.368,117.736 412.784,117.736L454.576,117.736ZM406.128,80.36C406.128,80.424 406.064,80.488 406,80.488L402.864,80.488L402.864,74.344L406,74.344C406.064,74.344 406.128,74.408 406.128,74.472L406.128,80.36ZM447.92,105C452.336,105 454.576,103.336 454.576,99.944L454.576,79.464L441.328,79.464L441.328,94.696C441.328,94.76 441.264,94.824 441.2,94.824L438.128,94.824C438.064,94.824 438,94.76 438,94.696L438,76.84L454.576,76.84L454.576,66.728L438,66.728L438,64.104L424.688,64.104L424.688,66.728L421.424,66.728L421.424,76.84L424.688,76.84L424.688,99.944C424.688,103.336 426.928,105 431.344,105L447.92,105Z" style="fill-rule:nonzero;stroke:rgb(220,168,26);stroke-width:7px;"/>
            <path d="M474.288,94.696C474.288,94.76 474.224,94.824 474.16,94.824L471.152,94.824C471.088,94.824 471.024,94.76 471.024,94.696L471.024,74.472C471.024,74.408 471.088,74.344 471.152,74.344L474.16,74.344C474.224,74.344 474.288,74.408 474.288,74.472L474.288,94.696ZM480.944,105C485.36,105 487.6,103.336 487.6,99.944L487.6,69.288C487.6,65.832 485.36,64.104 480.944,64.104L464.368,64.104C459.952,64.104 457.712,65.832 457.712,69.288L457.712,99.944C457.712,103.336 459.952,105 464.368,105L480.944,105Z" style="fill-rule:nonzero;stroke:rgb(220,168,26);stroke-width:7px;"/>
            <path d="M507.376,94.696C507.376,94.76 507.312,94.824 507.248,94.824L504.112,94.824L504.112,74.344L507.248,74.344C507.312,74.344 507.376,74.408 507.376,74.472L507.376,94.696ZM514.032,105C518.448,105 520.688,103.336 520.688,99.944L520.688,69.288C520.688,65.832 518.448,64.104 514.032,64.104L490.8,64.104L490.8,105L514.032,105Z" style="fill-rule:nonzero;stroke:rgb(220,168,26);stroke-width:7px;"/>
            <path d="M570.416,117.736L570.416,107.56L553.904,107.56C553.84,107.56 553.776,107.496 553.776,107.432L553.776,87.912C553.776,85.928 552.688,84.84 550.448,84.52C552.624,84.264 553.712,83.176 553.712,81.192L553.712,69.288C553.712,65.832 551.536,64.104 547.12,64.104L523.888,64.104L523.888,105L537.2,105L537.2,88.616L540.336,88.616C540.4,88.616 540.464,88.68 540.464,88.744L540.464,112.68C540.464,116.072 542.704,117.736 547.12,117.736L570.416,117.736ZM540.464,80.36C540.464,80.424 540.4,80.488 540.336,80.488L537.2,80.488L537.2,74.344L540.336,74.344C540.4,74.344 540.464,74.408 540.464,74.472L540.464,80.36ZM570.352,105L570.352,64.104L557.04,64.104L557.04,105L570.352,105Z" style="fill-rule:nonzero;stroke:rgb(220,168,26);stroke-width:7px;"/>
            <path d="M598.768,105L605.488,64.104L592.496,64.104L589.168,88.808L585.776,64.104L572.272,64.104L578.864,105L598.768,105Z" style="fill-rule:nonzero;stroke:rgb(220,168,26);stroke-width:7px;"/>
            <path d="M623.92,80.168L620.656,80.168L620.656,74.472C620.656,74.408 620.72,74.344 620.784,74.344L623.792,74.344C623.856,74.344 623.92,74.408 623.92,74.472L623.92,80.168ZM630.576,105C634.992,105 637.232,103.336 637.232,99.944L637.232,92.264L623.92,92.264L623.92,94.696C623.92,94.76 623.856,94.824 623.792,94.824L620.784,94.824C620.72,94.824 620.656,94.76 620.656,94.696L620.656,89.704L637.232,89.704L637.232,69.288C637.232,65.832 634.992,64.104 630.576,64.104L614,64.104C609.584,64.104 607.344,65.832 607.344,69.288L607.344,99.944C607.344,103.336 609.584,105 614,105L630.576,105Z" style="fill-rule:nonzero;stroke:rgb(220,168,26);stroke-width:7px;"/>
            <path d="M670.32,105L670.32,87.912C670.32,85.928 669.232,84.84 666.992,84.52C669.168,84.264 670.256,83.176 670.256,81.192L670.256,69.288C670.256,65.832 668.08,64.104 663.664,64.104L640.432,64.104L640.432,105L653.744,105L653.744,88.616L656.88,88.616C656.944,88.616 657.008,88.68 657.008,88.744L657.008,105L670.32,105ZM657.008,80.36C657.008,80.424 656.944,80.488 656.88,80.488L653.744,80.488L653.744,74.344L656.88,74.344C656.944,74.344 657.008,74.408 657.008,74.472L657.008,80.36Z" style="fill-rule:nonzero;stroke:rgb(220,168,26);stroke-width:7px;"/>
        </g>
        <g transform="matrix(1,0,0,1,-126,-55)">
            <path d="M254.064,117.736L254.064,107.56L220.976,107.56L220.976,64.104L207.664,64.104L207.664,117.736L254.064,117.736ZM240.752,80.168L237.488,80.168L237.488,74.472C237.488,74.408 237.552,74.344 237.616,74.344L240.624,74.344C240.688,74.344 240.752,74.408 240.752,74.472L240.752,80.168ZM247.408,105C251.824,105 254.064,103.336 254.064,99.944L254.064,92.264L240.752,92.264L240.752,94.696C240.752,94.76 240.688,94.824 240.624,94.824L237.616,94.824C237.552,94.824 237.488,94.76 237.488,94.696L237.488,89.704L254.064,89.704L254.064,69.288C254.064,65.832 251.824,64.104 247.408,64.104L230.832,64.104C226.416,64.104 224.176,65.832 224.176,69.288L224.176,99.944C224.176,103.336 226.416,105 230.832,105L247.408,105Z" style="fill-rule:nonzero;stroke:black;stroke-width:5px;"/>
            <path d="M273.712,94.824L270.576,94.824C270.512,94.824 270.448,94.76 270.448,94.696L270.448,88.552C270.448,88.488 270.512,88.424 270.576,88.424L273.712,88.424L273.712,94.824ZM287.024,105L287.024,69.288C287.024,65.832 284.784,64.104 280.368,64.104L263.792,64.104C259.376,64.104 257.136,65.832 257.136,69.288L257.136,76.84L270.448,76.84L270.448,74.472C270.448,74.408 270.512,74.344 270.576,74.344L273.584,74.344C273.648,74.344 273.712,74.408 273.712,74.472L273.712,79.464L263.792,79.464C259.376,79.464 257.136,81.128 257.136,84.52L257.136,99.944C257.136,103.336 259.376,105 263.792,105L287.024,105Z" style="fill-rule:nonzero;stroke:black;stroke-width:5px;"/>
            <path d="M353.328,117.736L353.328,107.56L320.304,107.56C320.24,107.56 320.176,107.496 320.176,107.432L320.176,87.912C320.176,85.928 319.088,84.84 316.848,84.52C319.024,84.264 320.112,83.176 320.112,81.192L320.112,69.288C320.112,65.832 317.936,64.104 313.52,64.104L290.288,64.104L290.288,105L303.6,105L303.6,88.616L306.736,88.616C306.8,88.616 306.864,88.68 306.864,88.744L306.864,112.68C306.864,116.072 309.104,117.736 313.52,117.736L353.328,117.736ZM306.864,80.36C306.864,80.424 306.8,80.488 306.736,80.488L303.6,80.488L303.6,74.344L306.736,74.344C306.8,74.344 306.864,74.408 306.864,74.472L306.864,80.36ZM353.328,105L353.328,69.288C353.328,65.832 351.088,64.104 346.672,64.104C342.32,64.104 338.992,65 336.752,66.728L336.752,64.104L323.44,64.104L323.44,105L336.752,105L336.752,74.472C336.752,74.408 336.816,74.344 336.88,74.344L339.888,74.344C339.952,74.344 340.016,74.408 340.016,74.472L340.016,105L353.328,105Z" style="fill-rule:nonzero;stroke:black;stroke-width:5px;"/>
            <path d="M373.04,80.168L369.776,80.168L369.776,74.472C369.776,74.408 369.84,74.344 369.904,74.344L372.912,74.344C372.976,74.344 373.04,74.408 373.04,74.472L373.04,80.168ZM379.696,105C384.112,105 386.352,103.336 386.352,99.944L386.352,92.264L373.04,92.264L373.04,94.696C373.04,94.76 372.976,94.824 372.912,94.824L369.904,94.824C369.84,94.824 369.776,94.76 369.776,94.696L369.776,89.704L386.352,89.704L386.352,69.288C386.352,65.832 384.112,64.104 379.696,64.104L363.12,64.104C358.704,64.104 356.464,65.832 356.464,69.288L356.464,99.944C356.464,103.336 358.704,105 363.12,105L379.696,105Z" style="fill-rule:nonzero;stroke:black;stroke-width:5px;"/>
            <path d="M454.576,117.736L454.576,107.56L419.568,107.56C419.504,107.56 419.44,107.496 419.44,107.432L419.44,87.912C419.44,85.928 418.352,84.84 416.112,84.52C418.288,84.264 419.376,83.176 419.376,81.192L419.376,69.288C419.376,65.832 417.2,64.104 412.784,64.104L389.552,64.104L389.552,105L402.864,105L402.864,88.616L406,88.616C406.064,88.616 406.128,88.68 406.128,88.744L406.128,112.68C406.128,116.072 408.368,117.736 412.784,117.736L454.576,117.736ZM406.128,80.36C406.128,80.424 406.064,80.488 406,80.488L402.864,80.488L402.864,74.344L406,74.344C406.064,74.344 406.128,74.408 406.128,74.472L406.128,80.36ZM447.92,105C452.336,105 454.576,103.336 454.576,99.944L454.576,79.464L441.328,79.464L441.328,94.696C441.328,94.76 441.264,94.824 441.2,94.824L438.128,94.824C438.064,94.824 438,94.76 438,94.696L438,76.84L454.576,76.84L454.576,66.728L438,66.728L438,64.104L424.688,64.104L424.688,66.728L421.424,66.728L421.424,76.84L424.688,76.84L424.688,99.944C424.688,103.336 426.928,105 431.344,105L447.92,105Z" style="fill-rule:nonzero;stroke:black;stroke-width:5px;"/>
            <path d="M474.288,94.696C474.288,94.76 474.224,94.824 474.16,94.824L471.152,94.824C471.088,94.824 471.024,94.76 471.024,94.696L471.024,74.472C471.024,74.408 471.088,74.344 471.152,74.344L474.16,74.344C474.224,74.344 474.288,74.408 474.288,74.472L474.288,94.696ZM480.944,105C485.36,105 487.6,103.336 487.6,99.944L487.6,69.288C487.6,65.832 485.36,64.104 480.944,64.104L464.368,64.104C459.952,64.104 457.712,65.832 457.712,69.288L457.712,99.944C457.712,103.336 459.952,105 464.368,105L480.944,105Z" style="fill-rule:nonzero;stroke:black;stroke-width:5px;"/>
            <path d="M507.376,94.696C507.376,94.76 507.312,94.824 507.248,94.824L504.112,94.824L504.112,74.344L507.248,74.344C507.312,74.344 507.376,74.408 507.376,74.472L507.376,94.696ZM514.032,105C518.448,105 520.688,103.336 520.688,99.944L520.688,69.288C520.688,65.832 518.448,64.104 514.032,64.104L490.8,64.104L490.8,105L514.032,105Z" style="fill-rule:nonzero;stroke:black;stroke-width:5px;"/>
            <path d="M570.416,117.736L570.416,107.56L553.904,107.56C553.84,107.56 553.776,107.496 553.776,107.432L553.776,87.912C553.776,85.928 552.688,84.84 550.448,84.52C552.624,84.264 553.712,83.176 553.712,81.192L553.712,69.288C553.712,65.832 551.536,64.104 547.12,64.104L523.888,64.104L523.888,105L537.2,105L537.2,88.616L540.336,88.616C540.4,88.616 540.464,88.68 540.464,88.744L540.464,112.68C540.464,116.072 542.704,117.736 547.12,117.736L570.416,117.736ZM540.464,80.36C540.464,80.424 540.4,80.488 540.336,80.488L537.2,80.488L537.2,74.344L540.336,74.344C540.4,74.344 540.464,74.408 540.464,74.472L540.464,80.36ZM570.352,105L570.352,64.104L557.04,64.104L557.04,105L570.352,105Z" style="fill-rule:nonzero;stroke:black;stroke-width:5px;"/>
            <path d="M598.768,105L605.488,64.104L592.496,64.104L589.168,88.808L585.776,64.104L572.272,64.104L578.864,105L598.768,105Z" style="fill-rule:nonzero;stroke:black;stroke-width:5px;"/>
            <path d="M623.92,80.168L620.656,80.168L620.656,74.472C620.656,74.408 620.72,74.344 620.784,74.344L623.792,74.344C623.856,74.344 623.92,74.408 623.92,74.472L623.92,80.168ZM630.576,105C634.992,105 637.232,103.336 637.232,99.944L637.232,92.264L623.92,92.264L623.92,94.696C623.92,94.76 623.856,94.824 623.792,94.824L620.784,94.824C620.72,94.824 620.656,94.76 620.656,94.696L620.656,89.704L637.232,89.704L637.232,69.288C637.232,65.832 634.992,64.104 630.576,64.104L614,64.104C609.584,64.104 607.344,65.832 607.344,69.288L607.344,99.944C607.344,103.336 609.584,105 614,105L630.576,105Z" style="fill-rule:nonzero;stroke:black;stroke-width:5px;"/>
            <path d="M670.32,105L670.32,87.912C670.32,85.928 669.232,84.84 666.992,84.52C669.168,84.264 670.256,83.176 670.256,81.192L670.256,69.288C670.256,65.832 668.08,64.104 663.664,64.104L640.432,64.104L640.432,105L653.744,105L653.744,88.616L656.88,88.616C656.944,88.616 657.008,88.68 657.008,88.744L657.008,105L670.32,105ZM657.008,80.36C657.008,80.424 656.944,80.488 656.88,80.488L653.744,80.488L653.744,74.344L656.88,74.344C656.944,74.344 657.008,74.408 657.008,74.472L657.008,80.36Z" style="fill-rule:nonzero;stroke:black;stroke-width:5px;"/>
        </g>
        <g transform="matrix(1,0,0,1,-126,-55)">
            <path d="M254.064,117.736L254.064,107.56L220.976,107.56L220.976,64.104L207.664,64.104L207.664,117.736L254.064,117.736ZM240.752,80.168L237.488,80.168L237.488,74.472C237.488,74.408 237.552,74.344 237.616,74.344L240.624,74.344C240.688,74.344 240.752,74.408 240.752,74.472L240.752,80.168ZM247.408,105C251.824,105 254.064,103.336 254.064,99.944L254.064,92.264L240.752,92.264L240.752,94.696C240.752,94.76 240.688,94.824 240.624,94.824L237.616,94.824C237.552,94.824 237.488,94.76 237.488,94.696L237.488,89.704L254.064,89.704L254.064,69.288C254.064,65.832 251.824,64.104 247.408,64.104L230.832,64.104C226.416,64.104 224.176,65.832 224.176,69.288L224.176,99.944C224.176,103.336 226.416,105 230.832,105L247.408,105Z" style="fill-rule:nonzero;stroke:white;stroke-width:1px;"/>
            <path d="M273.712,94.824L270.576,94.824C270.512,94.824 270.448,94.76 270.448,94.696L270.448,88.552C270.448,88.488 270.512,88.424 270.576,88.424L273.712,88.424L273.712,94.824ZM287.024,105L287.024,69.288C287.024,65.832 284.784,64.104 280.368,64.104L263.792,64.104C259.376,64.104 257.136,65.832 257.136,69.288L257.136,76.84L270.448,76.84L270.448,74.472C270.448,74.408 270.512,74.344 270.576,74.344L273.584,74.344C273.648,74.344 273.712,74.408 273.712,74.472L273.712,79.464L263.792,79.464C259.376,79.464 257.136,81.128 257.136,84.52L257.136,99.944C257.136,103.336 259.376,105 263.792,105L287.024,105Z" style="fill-rule:nonzero;stroke:white;stroke-width:1px;"/>
            <path d="M353.328,117.736L353.328,107.56L320.304,107.56C320.24,107.56 320.176,107.496 320.176,107.432L320.176,87.912C320.176,85.928 319.088,84.84 316.848,84.52C319.024,84.264 320.112,83.176 320.112,81.192L320.112,69.288C320.112,65.832 317.936,64.104 313.52,64.104L290.288,64.104L290.288,105L303.6,105L303.6,88.616L306.736,88.616C306.8,88.616 306.864,88.68 306.864,88.744L306.864,112.68C306.864,116.072 309.104,117.736 313.52,117.736L353.328,117.736ZM306.864,80.36C306.864,80.424 306.8,80.488 306.736,80.488L303.6,80.488L303.6,74.344L306.736,74.344C306.8,74.344 306.864,74.408 306.864,74.472L306.864,80.36ZM353.328,105L353.328,69.288C353.328,65.832 351.088,64.104 346.672,64.104C342.32,64.104 338.992,65 336.752,66.728L336.752,64.104L323.44,64.104L323.44,105L336.752,105L336.752,74.472C336.752,74.408 336.816,74.344 336.88,74.344L339.888,74.344C339.952,74.344 340.016,74.408 340.016,74.472L340.016,105L353.328,105Z" style="fill-rule:nonzero;stroke:white;stroke-width:1px;"/>
            <path d="M373.04,80.168L369.776,80.168L369.776,74.472C369.776,74.408 369.84,74.344 369.904,74.344L372.912,74.344C372.976,74.344 373.04,74.408 373.04,74.472L373.04,80.168ZM379.696,105C384.112,105 386.352,103.336 386.352,99.944L386.352,92.264L373.04,92.264L373.04,94.696C373.04,94.76 372.976,94.824 372.912,94.824L369.904,94.824C369.84,94.824 369.776,94.76 369.776,94.696L369.776,89.704L386.352,89.704L386.352,69.288C386.352,65.832 384.112,64.104 379.696,64.104L363.12,64.104C358.704,64.104 356.464,65.832 356.464,69.288L356.464,99.944C356.464,103.336 358.704,105 363.12,105L379.696,105Z" style="fill-rule:nonzero;stroke:white;stroke-width:1px;"/>
            <path d="M454.576,117.736L454.576,107.56L419.568,107.56C419.504,107.56 419.44,107.496 419.44,107.432L419.44,87.912C419.44,85.928 418.352,84.84 416.112,84.52C418.288,84.264 419.376,83.176 419.376,81.192L419.376,69.288C419.376,65.832 417.2,64.104 412.784,64.104L389.552,64.104L389.552,105L402.864,105L402.864,88.616L406,88.616C406.064,88.616 406.128,88.68 406.128,88.744L406.128,112.68C406.128,116.072 408.368,117.736 412.784,117.736L454.576,117.736ZM406.128,80.36C406.128,80.424 406.064,80.488 406,80.488L402.864,80.488L402.864,74.344L406,74.344C406.064,74.344 406.128,74.408 406.128,74.472L406.128,80.36ZM447.92,105C452.336,105 454.576,103.336 454.576,99.944L454.576,79.464L441.328,79.464L441.328,94.696C441.328,94.76 441.264,94.824 441.2,94.824L438.128,94.824C438.064,94.824 438,94.76 438,94.696L438,76.84L454.576,76.84L454.576,66.728L438,66.728L438,64.104L424.688,64.104L424.688,66.728L421.424,66.728L421.424,76.84L424.688,76.84L424.688,99.944C424.688,103.336 426.928,105 431.344,105L447.92,105Z" style="fill-rule:nonzero;stroke:white;stroke-width:1px;"/>
            <path d="M474.288,94.696C474.288,94.76 474.224,94.824 474.16,94.824L471.152,94.824C471.088,94.824 471.024,94.76 471.024,94.696L471.024,74.472C471.024,74.408 471.088,74.344 471.152,74.344L474.16,74.344C474.224,74.344 474.288,74.408 474.288,74.472L474.288,94.696ZM480.944,105C485.36,105 487.6,103.336 487.6,99.944L487.6,69.288C487.6,65.832 485.36,64.104 480.944,64.104L464.368,64.104C459.952,64.104 457.712,65.832 457.712,69.288L457.712,99.944C457.712,103.336 459.952,105 464.368,105L480.944,105Z" style="fill-rule:nonzero;stroke:white;stroke-width:1px;"/>
            <path d="M507.376,94.696C507.376,94.76 507.312,94.824 507.248,94.824L504.112,94.824L504.112,74.344L507.248,74.344C507.312,74.344 507.376,74.408 507.376,74.472L507.376,94.696ZM514.032,105C518.448,105 520.688,103.336 520.688,99.944L520.688,69.288C520.688,65.832 518.448,64.104 514.032,64.104L490.8,64.104L490.8,105L514.032,105Z" style="fill-rule:nonzero;stroke:white;stroke-width:1px;"/>
            <path d="M570.416,117.736L570.416,107.56L553.904,107.56C553.84,107.56 553.776,107.496 553.776,107.432L553.776,87.912C553.776,85.928 552.688,84.84 550.448,84.52C552.624,84.264 553.712,83.176 553.712,81.192L553.712,69.288C553.712,65.832 551.536,64.104 547.12,64.104L523.888,64.104L523.888,105L537.2,105L537.2,88.616L540.336,88.616C540.4,88.616 540.464,88.68 540.464,88.744L540.464,112.68C540.464,116.072 542.704,117.736 547.12,117.736L570.416,117.736ZM540.464,80.36C540.464,80.424 540.4,80.488 540.336,80.488L537.2,80.488L537.2,74.344L540.336,74.344C540.4,74.344 540.464,74.408 540.464,74.472L540.464,80.36ZM570.352,105L570.352,64.104L557.04,64.104L557.04,105L570.352,105Z" style="fill-rule:nonzero;stroke:white;stroke-width:1px;"/>
            <path d="M598.768,105L605.488,64.104L592.496,64.104L589.168,88.808L585.776,64.104L572.272,64.104L578.864,105L598.768,105Z" style="fill-rule:nonzero;stroke:white;stroke-width:1px;"/>
            <path d="M623.92,80.168L620.656,80.168L620.656,74.472C620.656,74.408 620.72,74.344 620.784,74.344L623.792,74.344C623.856,74.344 623.92,74.408 623.92,74.472L623.92,80.168ZM630.576,105C634.992,105 637.232,103.336 637.232,99.944L637.232,92.264L623.92,92.264L623.92,94.696C623.92,94.76 623.856,94.824 623.792,94.824L620.784,94.824C620.72,94.824 620.656,94.76 620.656,94.696L620.656,89.704L637.232,89.704L637.232,69.288C637.232,65.832 634.992,64.104 630.576,64.104L614,64.104C609.584,64.104 607.344,65.832 607.344,69.288L607.344,99.944C607.344,103.336 609.584,105 614,105L630.576,105Z" style="fill-rule:nonzero;stroke:white;stroke-width:1px;"/>
            <path d="M670.32,105L670.32,87.912C670.32,85.928 669.232,84.84 666.992,84.52C669.168,84.264 670.256,83.176 670.256,81.192L670.256,69.288C670.256,65.832 668.08,64.104 663.664,64.104L640.432,64.104L640.432,105L653.744,105L653.744,88.616L656.88,88.616C656.944,88.616 657.008,88.68 657.008,88.744L657.008,105L670.32,105ZM657.008,80.36C657.008,80.424 656.944,80.488 656.88,80.488L653.744,80.488L653.744,74.344L656.88,74.344C656.944,74.344 657.008,74.408 657.008,74.472L657.008,80.36Z" style="fill-rule:nonzero;stroke:white;stroke-width:1px;"/>
        </g>
    </g>
    <g id="container" transform="matrix(1,0,0,1,-6,-24)">
        <rect x="6" y="24" width="551" height="70" style="fill:none;"/>
    </g>
</svg>
