<?xml version="1.0" encoding="UTF-8" standalone="no"?>
<!DOCTYPE svg PUBLIC "-//W3C//DTD SVG 1.1//EN" "http://www.w3.org/Graphics/SVG/1.1/DTD/svg11.dtd">
<svg width="100%" height="100%" viewBox="0 0 800 600" version="1.1" xmlns="http://www.w3.org/2000/svg" xmlns:xlink="http://www.w3.org/1999/xlink" xml:space="preserve" xmlns:serif="http://www.serif.com/" style="fill-rule:evenodd;clip-rule:evenodd;stroke-linejoin:round;stroke-miterlimit:2;">
    <g transform="matrix(0.856575,-0.516023,0.516023,0.856575,-500.734,638.862)">
        <path d="M632.875,176.175L632.875,135.159C632.875,132.913 634.699,131.089 636.946,131.089C639.192,131.089 641.016,132.913 641.016,135.159L641.016,176.175L667.323,176.175C667.583,176.123 667.853,176.095 668.129,176.095C670.376,176.095 672.199,177.919 672.199,180.165L672.199,223.715C672.199,225.961 670.376,227.785 668.129,227.785C665.883,227.785 664.059,225.961 664.059,223.715L664.059,184.316L641.016,184.316L641.016,223.358C641.016,225.605 639.192,227.428 636.946,227.428C634.699,227.428 632.875,225.605 632.875,223.358L632.875,184.316L610.98,184.316L610.98,223.658C610.98,225.905 609.156,227.729 606.91,227.729C604.663,227.729 602.839,225.905 602.839,223.658L602.839,184.316L577.623,184.316L577.623,223.724C577.623,225.97 575.799,227.794 573.553,227.794C571.307,227.794 569.483,225.97 569.483,223.724L569.483,135.525C569.483,133.279 571.307,131.455 573.553,131.455C575.799,131.455 577.623,133.279 577.623,135.525L577.623,176.175L602.839,176.175L602.839,135.46C602.839,133.213 604.663,131.389 606.91,131.389C609.156,131.389 610.98,133.213 610.98,135.46L610.98,176.175L632.875,176.175Z" style="fill:rgb(47,47,47);"/>
    </g>
    <g transform="matrix(0.856575,-0.516023,0.516023,0.856575,-500.734,638.862)">
        <g transform="matrix(16,0,0,16,569.206,128.68)">
            <path d="M0.356,-0L0.265,-0L0.265,-0.602L0.083,-0.535L0.083,-0.617L0.342,-0.714L0.356,-0.714L0.356,-0Z" style="fill-rule:nonzero;"/>
        </g>
        <g transform="matrix(16,0,0,16,602.509,128.68)">
            <path d="M0.19,-0.399L0.255,-0.399C0.278,-0.399 0.299,-0.403 0.316,-0.409C0.334,-0.415 0.349,-0.423 0.36,-0.434C0.372,-0.445 0.381,-0.458 0.387,-0.473C0.393,-0.488 0.396,-0.504 0.396,-0.521C0.396,-0.562 0.385,-0.593 0.365,-0.615C0.344,-0.636 0.313,-0.646 0.271,-0.646C0.252,-0.646 0.234,-0.644 0.219,-0.638C0.203,-0.632 0.189,-0.624 0.178,-0.614C0.167,-0.603 0.158,-0.59 0.152,-0.575C0.146,-0.56 0.143,-0.543 0.143,-0.524L0.052,-0.524C0.052,-0.552 0.057,-0.577 0.068,-0.601C0.078,-0.625 0.093,-0.646 0.112,-0.663C0.132,-0.681 0.155,-0.695 0.181,-0.705C0.208,-0.716 0.238,-0.721 0.271,-0.721C0.303,-0.721 0.333,-0.716 0.359,-0.708C0.385,-0.699 0.408,-0.686 0.427,-0.67C0.445,-0.653 0.46,-0.632 0.47,-0.607C0.481,-0.582 0.486,-0.553 0.486,-0.52C0.486,-0.506 0.484,-0.492 0.479,-0.478C0.475,-0.463 0.468,-0.449 0.459,-0.435C0.45,-0.421 0.439,-0.407 0.425,-0.395C0.41,-0.383 0.394,-0.373 0.374,-0.365C0.397,-0.357 0.417,-0.347 0.433,-0.335C0.449,-0.323 0.461,-0.309 0.471,-0.294C0.48,-0.279 0.487,-0.264 0.491,-0.247C0.495,-0.23 0.497,-0.214 0.497,-0.198C0.497,-0.165 0.491,-0.135 0.479,-0.11C0.468,-0.084 0.452,-0.062 0.432,-0.044C0.412,-0.027 0.388,-0.013 0.361,-0.004C0.333,0.005 0.304,0.01 0.271,0.01C0.241,0.01 0.211,0.005 0.184,-0.003C0.157,-0.012 0.133,-0.024 0.112,-0.041C0.092,-0.058 0.076,-0.079 0.064,-0.103C0.052,-0.128 0.046,-0.156 0.046,-0.188L0.137,-0.188C0.137,-0.169 0.14,-0.152 0.146,-0.137C0.152,-0.122 0.161,-0.109 0.173,-0.098C0.185,-0.087 0.199,-0.079 0.215,-0.073C0.232,-0.067 0.251,-0.064 0.271,-0.064C0.292,-0.064 0.311,-0.067 0.328,-0.072C0.344,-0.077 0.358,-0.086 0.37,-0.097C0.382,-0.108 0.391,-0.122 0.397,-0.138C0.403,-0.155 0.406,-0.174 0.406,-0.196C0.406,-0.218 0.403,-0.238 0.396,-0.254C0.388,-0.27 0.378,-0.284 0.365,-0.294C0.352,-0.305 0.336,-0.313 0.317,-0.318C0.299,-0.323 0.278,-0.326 0.255,-0.326L0.19,-0.326L0.19,-0.399Z" style="fill-rule:nonzero;"/>
        </g>
        <g transform="matrix(16,0,0,16,633.124,128.68)">
            <path d="M0.101,-0.356L0.137,-0.711L0.501,-0.711L0.501,-0.627L0.213,-0.627L0.192,-0.434C0.205,-0.441 0.221,-0.448 0.241,-0.455C0.261,-0.461 0.284,-0.464 0.311,-0.464C0.343,-0.464 0.372,-0.459 0.399,-0.448C0.425,-0.436 0.447,-0.42 0.465,-0.4C0.484,-0.379 0.498,-0.354 0.507,-0.325C0.517,-0.295 0.522,-0.263 0.522,-0.227C0.522,-0.192 0.517,-0.161 0.508,-0.132C0.499,-0.103 0.485,-0.078 0.466,-0.057C0.448,-0.036 0.424,-0.02 0.396,-0.008C0.368,0.004 0.335,0.01 0.297,0.01C0.268,0.01 0.241,0.006 0.216,-0.002C0.19,-0.01 0.167,-0.022 0.147,-0.039C0.128,-0.055 0.111,-0.075 0.099,-0.1C0.086,-0.125 0.078,-0.154 0.075,-0.187L0.161,-0.187C0.166,-0.146 0.181,-0.116 0.204,-0.095C0.228,-0.074 0.258,-0.064 0.297,-0.064C0.318,-0.064 0.337,-0.068 0.354,-0.075C0.371,-0.083 0.385,-0.093 0.396,-0.107C0.408,-0.121 0.417,-0.138 0.423,-0.158C0.429,-0.178 0.432,-0.201 0.432,-0.226C0.432,-0.248 0.429,-0.268 0.422,-0.288C0.416,-0.307 0.407,-0.323 0.395,-0.338C0.383,-0.352 0.368,-0.363 0.35,-0.371C0.333,-0.379 0.312,-0.383 0.29,-0.383C0.274,-0.383 0.261,-0.382 0.25,-0.38C0.239,-0.378 0.229,-0.375 0.22,-0.371C0.211,-0.367 0.203,-0.362 0.196,-0.357C0.189,-0.351 0.181,-0.345 0.173,-0.338L0.101,-0.356Z" style="fill-rule:nonzero;"/>
        </g>
        <g transform="matrix(16,0,0,16,633.124,243.291)">
            <path d="M0.413,-0.711L0.413,-0.635L0.405,-0.635C0.361,-0.635 0.325,-0.628 0.294,-0.615C0.264,-0.602 0.239,-0.585 0.22,-0.563C0.2,-0.542 0.185,-0.517 0.175,-0.489C0.165,-0.461 0.159,-0.432 0.156,-0.402C0.176,-0.424 0.199,-0.441 0.225,-0.451C0.251,-0.461 0.279,-0.466 0.31,-0.466C0.345,-0.466 0.376,-0.46 0.401,-0.446C0.427,-0.433 0.448,-0.415 0.464,-0.393C0.481,-0.371 0.493,-0.346 0.501,-0.318C0.509,-0.29 0.513,-0.261 0.513,-0.232C0.513,-0.198 0.508,-0.166 0.499,-0.137C0.49,-0.108 0.476,-0.082 0.457,-0.06C0.438,-0.039 0.416,-0.022 0.388,-0.009C0.361,0.003 0.329,0.01 0.293,0.01C0.255,0.01 0.221,0.002 0.192,-0.014C0.164,-0.03 0.14,-0.051 0.121,-0.077C0.102,-0.103 0.088,-0.132 0.078,-0.165C0.069,-0.197 0.064,-0.23 0.064,-0.263L0.064,-0.305C0.064,-0.338 0.066,-0.372 0.07,-0.405C0.074,-0.438 0.081,-0.469 0.091,-0.499C0.101,-0.529 0.115,-0.557 0.132,-0.583C0.148,-0.609 0.169,-0.632 0.195,-0.651C0.22,-0.67 0.25,-0.685 0.284,-0.695C0.319,-0.706 0.359,-0.711 0.405,-0.711L0.413,-0.711ZM0.294,-0.391C0.278,-0.391 0.263,-0.389 0.249,-0.384C0.234,-0.378 0.22,-0.372 0.208,-0.363C0.196,-0.354 0.185,-0.344 0.176,-0.332C0.167,-0.32 0.16,-0.307 0.155,-0.293L0.155,-0.26C0.155,-0.228 0.159,-0.2 0.166,-0.176C0.174,-0.152 0.184,-0.131 0.197,-0.115C0.21,-0.099 0.225,-0.086 0.241,-0.078C0.258,-0.069 0.275,-0.065 0.293,-0.065C0.314,-0.065 0.332,-0.069 0.349,-0.077C0.365,-0.085 0.379,-0.096 0.39,-0.111C0.401,-0.125 0.41,-0.142 0.416,-0.162C0.421,-0.182 0.424,-0.204 0.424,-0.228C0.424,-0.249 0.422,-0.269 0.416,-0.289C0.411,-0.309 0.403,-0.326 0.392,-0.341C0.381,-0.356 0.368,-0.368 0.352,-0.377C0.335,-0.387 0.316,-0.391 0.294,-0.391Z" style="fill-rule:nonzero;"/>
        </g>
        <g transform="matrix(16,0,0,16,602.715,243.291)">
            <path d="M0.44,-0.239L0.539,-0.239L0.539,-0.165L0.44,-0.165L0.44,-0L0.35,-0L0.35,-0.165L0.026,-0.165L0.026,-0.218L0.344,-0.711L0.44,-0.711L0.44,-0.239ZM0.128,-0.239L0.35,-0.239L0.35,-0.587L0.339,-0.568L0.128,-0.239Z" style="fill-rule:nonzero;"/>
        </g>
        <g transform="matrix(16,0,0,16,569.141,243.291)">
            <path d="M0.525,-0L0.059,-0L0.059,-0.065L0.292,-0.324C0.313,-0.347 0.331,-0.368 0.345,-0.387C0.36,-0.405 0.371,-0.422 0.379,-0.437C0.387,-0.452 0.393,-0.466 0.396,-0.479C0.4,-0.492 0.401,-0.506 0.401,-0.52C0.401,-0.537 0.399,-0.554 0.393,-0.569C0.388,-0.585 0.38,-0.598 0.369,-0.609C0.359,-0.621 0.346,-0.63 0.331,-0.636C0.315,-0.643 0.298,-0.646 0.278,-0.646C0.254,-0.646 0.233,-0.643 0.215,-0.636C0.197,-0.629 0.183,-0.619 0.171,-0.606C0.159,-0.593 0.15,-0.578 0.145,-0.56C0.139,-0.543 0.136,-0.523 0.136,-0.501L0.045,-0.501C0.045,-0.531 0.05,-0.56 0.06,-0.586C0.07,-0.613 0.085,-0.636 0.104,-0.656C0.124,-0.676 0.148,-0.692 0.177,-0.703C0.206,-0.715 0.24,-0.721 0.278,-0.721C0.311,-0.721 0.341,-0.716 0.368,-0.707C0.394,-0.698 0.417,-0.685 0.435,-0.668C0.454,-0.651 0.468,-0.631 0.478,-0.608C0.487,-0.584 0.492,-0.559 0.492,-0.53C0.492,-0.509 0.489,-0.488 0.481,-0.467C0.474,-0.446 0.465,-0.425 0.453,-0.404C0.441,-0.383 0.426,-0.362 0.41,-0.342C0.394,-0.321 0.377,-0.301 0.359,-0.281L0.168,-0.074L0.525,-0.074L0.525,-0Z" style="fill-rule:nonzero;"/>
        </g>
        <g transform="matrix(16,0,0,16,664.541,243.291)">
            <path d="M0.343,-0.288L0.176,-0.288L0.176,-0L0.082,-0L0.082,-0.711L0.317,-0.711C0.397,-0.711 0.459,-0.693 0.502,-0.656C0.545,-0.62 0.567,-0.567 0.567,-0.497C0.567,-0.453 0.555,-0.414 0.531,-0.381C0.507,-0.348 0.474,-0.324 0.431,-0.308L0.598,-0.006L0.598,-0L0.498,-0L0.343,-0.288ZM0.176,-0.364L0.32,-0.364C0.346,-0.364 0.368,-0.368 0.387,-0.375C0.406,-0.382 0.422,-0.391 0.435,-0.403C0.447,-0.415 0.457,-0.429 0.463,-0.445C0.469,-0.461 0.473,-0.479 0.473,-0.497C0.473,-0.518 0.47,-0.536 0.464,-0.553C0.458,-0.57 0.448,-0.584 0.436,-0.596C0.423,-0.608 0.407,-0.618 0.387,-0.624C0.368,-0.631 0.344,-0.634 0.317,-0.634L0.176,-0.634L0.176,-0.364Z" style="fill-rule:nonzero;"/>
        </g>
    </g>
</svg>
