<?xml version="1.0" encoding="iso-8859-1"?>
<!-- Generator: Adobe Illustrator 19.0.0, SVG Export Plug-In . SVG Version: 6.00 Build 0)  -->
<svg version="1.1" id="Layer_1" xmlns="http://www.w3.org/2000/svg" xmlns:xlink="http://www.w3.org/1999/xlink" x="0px" y="0px"
	 viewBox="0 0 512 512" style="enable-background:new 0 0 512 512;" xml:space="preserve">
<g>
	<g>
		<path d="M217.043,0H16.696C7.479,0,0,7.473,0,16.696v200.348c0,9.223,7.479,16.696,16.696,16.696h200.348
			c9.217,0,16.696-7.473,16.696-16.696V16.696C233.739,7.473,226.261,0,217.043,0z M150.261,133.565h-16.696v16.696
			c0,9.223-7.479,16.696-16.696,16.696s-16.696-7.473-16.696-16.696v-16.696H83.478c-9.217,0-16.696-7.473-16.696-16.696
			c0-9.223,7.479-16.696,16.696-16.696h16.696V83.478c0-9.223,7.479-16.696,16.696-16.696s16.696,7.473,16.696,16.696v16.696h16.696
			c9.217,0,16.696,7.473,16.696,16.696C166.957,126.092,159.478,133.565,150.261,133.565z"/>
	</g>
</g>
<g>
	<g>
		<path d="M217.043,278.261H16.696C7.479,278.261,0,285.734,0,294.957v200.348C0,504.527,7.479,512,16.696,512h200.348
			c9.217,0,16.696-7.473,16.696-16.696V294.957C233.739,285.734,226.261,278.261,217.043,278.261z M152.282,406.934
			c6.521,6.516,6.521,17.092,0,23.609c-3.261,3.261-7.533,4.892-11.804,4.892s-8.544-1.631-11.804-4.892l-11.805-11.804
			l-11.804,11.804c-3.261,3.261-7.533,4.892-11.804,4.892c-4.271,0-8.544-1.631-11.804-4.892c-6.521-6.516-6.521-17.092,0-23.609
			l11.803-11.804l-11.804-11.804c-6.521-6.516-6.521-17.092,0-23.609c6.521-6.521,17.087-6.521,23.609,0l11.804,11.804
			l11.804-11.804c6.521-6.521,17.087-6.521,23.609,0c6.521,6.516,6.521,17.092,0,23.609l-11.804,11.804L152.282,406.934z"/>
	</g>
</g>
<g>
	<g>
		<path d="M495.304,0H294.957c-9.217,0-16.696,7.473-16.696,16.696v200.348c0,9.223,7.479,16.696,16.696,16.696h200.348
			c9.217,0,16.696-7.473,16.696-16.696V16.696C512,7.473,504.521,0,495.304,0z M428.522,133.565h-66.783
			c-9.217,0-16.696-7.473-16.696-16.696c0-9.223,7.479-16.696,16.696-16.696h66.783c9.217,0,16.696,7.473,16.696,16.696
			C445.217,126.092,437.739,133.565,428.522,133.565z"/>
	</g>
</g>
<g>
	<g>
		<path d="M495.304,278.261H294.957c-9.217,0-16.696,7.473-16.696,16.696v200.348c0,9.223,7.479,16.696,16.696,16.696h200.348
			c9.217,0,16.696-7.473,16.696-16.696V294.957C512,285.734,504.521,278.261,495.304,278.261z M428.522,445.217h-66.783
			c-9.217,0-16.696-7.473-16.696-16.696c0-9.223,7.479-16.696,16.696-16.696h66.783c9.217,0,16.696,7.473,16.696,16.696
			C445.217,437.744,437.739,445.217,428.522,445.217z M428.522,378.435h-66.783c-9.217,0-16.696-7.473-16.696-16.696
			c0-9.223,7.479-16.696,16.696-16.696h66.783c9.217,0,16.696,7.473,16.696,16.696C445.217,370.962,437.739,378.435,428.522,378.435
			z"/>
	</g>
</g>
<g>
</g>
<g>
</g>
<g>
</g>
<g>
</g>
<g>
</g>
<g>
</g>
<g>
</g>
<g>
</g>
<g>
</g>
<g>
</g>
<g>
</g>
<g>
</g>
<g>
</g>
<g>
</g>
<g>
</g>
</svg>
