<?xml version="1.0" encoding="iso-8859-1"?>
<!-- Generator: Adobe Illustrator 19.0.0, SVG Export Plug-In . SVG Version: 6.00 Build 0)  -->
<svg version="1.1" id="Capa_1" xmlns="http://www.w3.org/2000/svg" xmlns:xlink="http://www.w3.org/1999/xlink" x="0px" y="0px"
	 viewBox="0 0 480.054 480.054" style="enable-background:new 0 0 480.054 480.054;" xml:space="preserve">
<g>
	<g>
		<path d="M424.676,107.377l-84-84c-12.087-11.95-27.667-19.74-44.48-22.24c-2.66-0.723-5.403-1.1-8.16-1.12h-176
			c-43.29-0.893-79.107,33.477-80,76.767c-0.022,1.078-0.022,2.156,0,3.233v321.12c-0.728,42.851,33.42,78.179,76.271,78.906
			c1.243,0.021,2.486,0.012,3.729-0.026h256c48,0,77.92-30.24,80-80v-236.16c0,0,0-1.44,0-2.08
			C447.591,141.302,439.216,121.799,424.676,107.377z M318.116,87.057l42.72,42.72h-42.72V87.057z M384.036,398.897
			c0,15.2-3.84,17.12-16,17.12h-254.88c-12.96,0-16-4.16-17.12-16v-320c0-9.76,3.2-16,16-16h144v96c0,17.673,14.327,32,32,32h96
			V398.897z"/>
	</g>
</g>
<g>
</g>
<g>
</g>
<g>
</g>
<g>
</g>
<g>
</g>
<g>
</g>
<g>
</g>
<g>
</g>
<g>
</g>
<g>
</g>
<g>
</g>
<g>
</g>
<g>
</g>
<g>
</g>
<g>
</g>
</svg>
