<?xml version="1.0" encoding="iso-8859-1"?>
<!-- Generator: Adobe Illustrator 19.0.0, SVG Export Plug-In . SVG Version: 6.00 Build 0)  -->
<svg version="1.1" id="Capa_1" xmlns="http://www.w3.org/2000/svg" xmlns:xlink="http://www.w3.org/1999/xlink" x="0px" y="0px"
	 viewBox="0 0 512 512" style="enable-background:new 0 0 512 512;" xml:space="preserve">
<g>
	<g>
		<path d="M316.632,0H195.368c-18.573,0-33.684,15.111-33.684,33.684v60.632h40.421V40.421h107.789v53.895h40.421V33.684
			C350.316,15.111,335.205,0,316.632,0z"/>
	</g>
</g>
<g>
	<g>
		<path d="M397.474,107.789v357.053c0,3.651-3.086,6.737-6.737,6.737H121.263c-3.651,0-6.737-3.086-6.737-6.737V107.789H74.105
			v357.053c0,25.997,21.154,47.158,47.158,47.158h269.474c25.997,0,47.158-21.16,47.158-47.158V107.789H397.474z"/>
	</g>
</g>
<g>
	<g>
		<path d="M451.368,80.842H60.632c-11.163,0-20.211,9.048-20.211,20.211c0,11.163,9.048,20.211,20.211,20.211h390.737
			c11.163,0,20.211-9.048,20.211-20.211C471.579,89.89,462.531,80.842,451.368,80.842z"/>
	</g>
</g>
<g>
	<g>
		<path d="M256,175.158c-11.163,0-20.211,9.048-20.211,20.211v195.368c0,11.163,9.048,20.211,20.211,20.211
			s20.211-9.048,20.211-20.211V195.368C276.21,184.206,267.163,175.158,256,175.158z"/>
	</g>
</g>
<g>
	<g>
		<path d="M330.105,175.158c-11.163,0-20.211,9.048-20.211,20.211v195.368c0,11.163,9.048,20.211,20.211,20.211
			s20.211-9.048,20.211-20.211V195.368C350.316,184.206,341.268,175.158,330.105,175.158z"/>
	</g>
</g>
<g>
	<g>
		<path d="M181.895,175.158c-11.163,0-20.211,9.048-20.211,20.211v195.368c0,11.163,9.048,20.211,20.211,20.211
			c11.163,0,20.211-9.048,20.211-20.211V195.368C202.105,184.206,193.058,175.158,181.895,175.158z"/>
	</g>
</g>
<g>
</g>
<g>
</g>
<g>
</g>
<g>
</g>
<g>
</g>
<g>
</g>
<g>
</g>
<g>
</g>
<g>
</g>
<g>
</g>
<g>
</g>
<g>
</g>
<g>
</g>
<g>
</g>
<g>
</g>
</svg>
